<?xml version="1.0" standalone="no"?>
<!DOCTYPE svg PUBLIC "-//W3C//DTD SVG 1.1//EN" "http://www.w3.org/Graphics/SVG/1.1/DTD/svg11.dtd" >
<svg xmlns="http://www.w3.org/2000/svg" xmlns:xlink="http://www.w3.org/1999/xlink" version="1.1">
<metadata>
Created by FontForge 20200427 at Tue Dec 22 20:11:59 2015
 By www
Copyright (c) 2015 by Dieter Hofrichter. All rights reserved.
</metadata>
<defs>
<font id="HalifaxW03-Regular" horiz-adv-x="362" >
  <font-face 
    font-family="HalifaxW03-Regular"
    font-weight="400"
    font-stretch="normal"
    units-per-em="1000"
    panose-1="2 0 5 3 0 0 0 2 0 4"
    ascent="800"
    descent="-200"
    x-height="500"
    cap-height="706"
    bbox="-156 -294 1170 999"
    underline-thickness="50"
    underline-position="-125"
    unicode-range="U+0020-FB04"
  />
<missing-glyph horiz-adv-x="210" 
 />
    <glyph glyph-name="uniFB00" unicode="ff" horiz-adv-x="644" 
d="M188 0h-92v422h-68v78h68v44q0 43 4 70.5t13 47.5q18 38 56 57t90 19q53 0 87 -16v-82q-29 18 -71 18q-27 0 -47.5 -10t-28.5 -28q-11 -22 -11 -76v-44h107v-78h-107v-422zM510 0h-92v422h-65v78h65v60q0 81 18 120q17 38 55 57t90 19q51 0 86 -16v-83q-28 19 -70 19
q-27 0 -47 -10t-28 -28q-12 -22 -12 -80v-58h117v-78h-117v-422z" />
    <glyph glyph-name="uniFB01" unicode="fi" horiz-adv-x="566" 
d="M343 740v-80q-32 16 -68 16q-27 0 -47 -10t-29 -28q-11 -22 -11 -80v-58h124v-78h-124v-422h-92v422h-68v78h68v60q0 80 17 120q17 38 55.5 57t90.5 19q49 0 84 -16zM491 0h-92v500h92v-500zM499 661q0 -24 -16 -40.5t-40 -16.5q-22 0 -37 16t-15 39q0 24 15.5 40.5
t38.5 16.5t38.5 -15.5t15.5 -39.5z" />
    <glyph glyph-name="uniFB02" unicode="fl" horiz-adv-x="567" 
d="M188 0h-92v422h-68v78h68v60q0 80 17 120q17 38 55.5 57t90.5 19q48 0 81 -14v-80q-31 14 -65 14q-27 0 -47 -9.5t-29 -27.5q-11 -23 -11 -81v-58h124v-78h-124v-422zM491 0h-93v747h93v-747z" />
    <glyph glyph-name="uniFB03" unicode="ffi" horiz-adv-x="888" 
d="M188 0h-92v422h-68v78h68v44q0 43 4 70.5t13 47.5q18 38 56 57t90 19q53 0 87 -16v-82q-29 18 -71 18q-27 0 -47.5 -10t-28.5 -28q-11 -22 -11 -76v-44h107v-78h-107v-422zM666 740v-82q-30 18 -69 18q-27 0 -47 -10t-28 -28q-12 -22 -12 -80v-58h124v-78h-124v-422h-92
v422h-64v78h64v60q0 81 18 120q17 38 55 57t90 19q50 0 85 -16zM813 0h-92v500h92v-500zM821 661q0 -24 -15.5 -40.5t-39.5 -16.5q-23 0 -38 16t-15 39q0 24 15.5 40.5t39.5 16.5q22 0 37.5 -16t15.5 -39z" />
    <glyph glyph-name="uniFB04" unicode="ffl" horiz-adv-x="889" 
d="M188 0h-92v422h-68v78h68v44q0 43 4 70.5t13 47.5q18 38 56 57t90 19q53 0 87 -16v-82q-29 18 -71 18q-27 0 -47.5 -10t-28.5 -28q-11 -22 -11 -76v-44h107v-78h-107v-422zM510 0h-92v422h-65v78h65v60q0 81 18 120q17 38 55 57t90 19q48 0 81 -14v-82q-27 16 -65 16
q-27 0 -47 -9.5t-28 -27.5q-12 -23 -12 -81v-58h124v-78h-124v-422zM813 0h-92v747h92v-747z" />
    <glyph glyph-name="f_b.liga" unicode="fb" horiz-adv-x="888" 
d="M188 0h-92v422h-68v78h68v60q0 80 17 120q17 38 55.5 57t90.5 19q48 0 81 -14v-82q-27 16 -65 16q-27 0 -47 -9.5t-29 -27.5q-11 -23 -11 -81v-58h124v-78h-124v-422zM398 26v721h92v-298q27 29 67.5 46t83.5 17q100 0 153 -66.5t53 -182.5q0 -68 -18.5 -120.5
t-52.5 -86.5t-80.5 -51t-101.5 -17q-46 0 -96.5 9t-99.5 29zM490 86q19 -11 51 -17.5t63 -6.5q30 0 57 11.5t47.5 35t32 60.5t11.5 85q0 58 -17 97.5t-48 61t-73 21.5q-37 0 -72 -18t-52 -43v-287z" />
    <glyph glyph-name="f_f_b.liga" unicode="ffb" horiz-adv-x="1210" 
d="M188 0h-92v422h-68v78h68v44q0 43 4 70.5t13 47.5q18 38 56 57t90 19q53 0 87 -16v-82q-29 18 -71 18q-27 0 -47.5 -10t-28.5 -28q-11 -22 -11 -76v-44h107v-78h-107v-422zM510 0h-92v422h-64v78h64v60q0 81 18 120q17 38 55 57t90 19q48 0 81 -14v-82q-27 16 -65 16
q-27 0 -47 -9.5t-28 -27.5q-12 -23 -12 -81v-58h124v-78h-124v-422zM721 26v721h92v-298q26 29 66.5 46t83.5 17q100 0 153.5 -66.5t53.5 -182.5q0 -68 -19 -120.5t-53 -86.5t-80.5 -51t-101.5 -17q-104 0 -195 38zM813 86q19 -11 50.5 -17.5t62.5 -6.5q47 0 80 24t50.5 66
t17.5 102q0 58 -17 97.5t-47.5 61t-72.5 21.5q-38 0 -72 -18t-52 -43v-287z" />
    <glyph glyph-name="f_f_h.liga" unicode="ffh" horiz-adv-x="1197" 
d="M188 0h-92v422h-68v78h68v44q0 43 4 70.5t13 47.5q18 38 56 57t90 19q53 0 87 -16v-82q-29 18 -71 18q-27 0 -47.5 -10t-28.5 -28q-11 -22 -11 -76v-44h107v-78h-107v-422zM510 0h-92v422h-65v78h65v60q0 81 18 120q17 38 55 57t90 19q48 0 81 -14v-82q-27 16 -65 16
q-27 0 -47 -9.5t-28 -27.5q-12 -23 -12 -81v-58h124v-78h-124v-422zM813 0h-92v747h92v-307q23 31 65.5 51.5t89.5 20.5q111 0 142 -86q7 -21 12 -52t5 -99v-275h-93v273q0 40 -1.5 67t-8.5 43q-19 47 -86 47q-37 0 -70.5 -18.5t-54.5 -49.5v-362z" />
    <glyph glyph-name="f_f_j.liga" unicode="ffj" horiz-adv-x="888" 
d="M188 0h-92v422h-68v78h68v44q0 43 4 70.5t13 47.5q18 38 56 57t90 19q53 0 87 -16v-82q-29 18 -71 18q-27 0 -47.5 -10t-28.5 -28q-11 -22 -11 -76v-44h107v-78h-107v-422zM666 740v-82q-30 18 -69 18q-27 0 -47 -10t-28 -28q-12 -22 -12 -80v-58h124v-78h-124v-422h-92
v422h-65v78h65v60q0 81 18 120q17 38 55 57t90 19q50 0 85 -16zM651 -238l-32 74q19 9 41.5 23.5t31.5 24.5q12 14 20.5 36t8.5 71v509h92v-515q0 -50 -7 -81.5t-24 -51.5q-41 -49 -131 -90zM821 661q0 -24 -15.5 -40.5t-39.5 -16.5q-23 0 -38 16t-15 39q0 24 15.5 40.5
t39.5 16.5q22 0 37.5 -16t15.5 -39z" />
    <glyph glyph-name="f_f_k.liga" unicode="ffk" horiz-adv-x="1156" 
d="M188 0h-92v422h-68v78h68v44q0 43 4 70.5t13 47.5q18 38 56 57t90 19q53 0 87 -16v-82q-29 18 -71 18q-27 0 -47.5 -10t-28.5 -28q-11 -22 -11 -76v-44h107v-78h-107v-422zM510 0h-92v422h-65v78h65v60q0 81 18 120q17 38 55 57t90 19q48 0 81 -14v-82q-27 16 -65 16
q-27 0 -47 -9.5t-28 -27.5q-12 -23 -12 -81v-58h124v-78h-124v-422zM813 0h-92v747h92v-445l202 198h114l-231 -219l255 -281h-115l-225 251v-251z" />
    <glyph glyph-name="f_h.liga" unicode="fh" horiz-adv-x="874" 
d="M188 0h-92v422h-68v78h68v60q0 80 17 120q17 38 55.5 57t90.5 19q48 0 81 -14v-82q-27 16 -65 16q-27 0 -47 -9.5t-29 -27.5q-11 -23 -11 -81v-58h124v-78h-124v-422zM490 0h-92v747h92v-307q23 31 65.5 51.5t89.5 20.5q111 0 142 -86q7 -21 12 -52t5 -99v-275h-93v273
q0 40 -1.5 67t-8.5 43q-19 47 -86 47q-37 0 -70.5 -18.5t-54.5 -49.5v-362z" />
    <glyph glyph-name="f_j.liga" unicode="fj" horiz-adv-x="566" 
d="M343 740v-82q-30 18 -68 18q-27 0 -47 -10t-29 -28q-11 -22 -11 -80v-58h124v-78h-124v-422h-92v422h-68v78h68v60q0 80 17 120q17 38 55.5 57t90.5 19q49 0 84 -16zM328 -238l-32 74q20 9 42.5 23.5t31.5 24.5q12 14 20 35.5t8 71.5v509h93v-515q0 -49 -7.5 -81
t-24.5 -52q-39 -49 -131 -90zM499 661q0 -24 -16 -40.5t-40 -16.5q-22 0 -37 16t-15 39q0 24 15.5 40.5t38.5 16.5t38.5 -15.5t15.5 -39.5z" />
    <glyph glyph-name="f_k.liga" unicode="fk" horiz-adv-x="834" 
d="M188 0h-92v422h-68v78h68v60q0 80 17 120q17 38 55.5 57t90.5 19q48 0 81 -14v-82q-27 16 -65 16q-27 0 -47 -9.5t-29 -27.5q-11 -23 -11 -81v-58h124v-78h-124v-422zM491 0h-92v747h92v-445l202 198h114l-231 -219l255 -281h-115l-225 251v-251z" />
    <glyph glyph-name=".notdef" horiz-adv-x="210" 
 />
    <glyph glyph-name=".null" horiz-adv-x="0" 
 />
    <glyph glyph-name="nonmarkingreturn" horiz-adv-x="333" 
 />
    <glyph glyph-name="space" unicode=" " horiz-adv-x="210" 
 />
    <glyph glyph-name="exclam" unicode="!" horiz-adv-x="272" 
d="M191 226h-77q-14 339 -14 480h104q0 -140 -13 -480zM217 59q0 -28 -19.5 -47.5t-47.5 -19.5q-27 0 -45 19t-18 46q0 28 19 47t47 19q27 0 45.5 -18.5t18.5 -45.5z" />
    <glyph glyph-name="quotedbl" unicode="&#x22;" horiz-adv-x="336" 
d="M121 468h-59q-9 142 -12 279h82q-1 -128 -11 -279zM274 468h-58q-4 58 -8 144t-5 135h83q-3 -136 -12 -279z" />
    <glyph glyph-name="numbersign" unicode="#" horiz-adv-x="545" 
d="M159 -14h-44l27 198h-97v89h110l18 128h-106v89h118l27 190h43l-26 -190h133l27 190h43l-26 -190h94v-89h-107l-17 -128h102v-89h-115l-27 -198h-44l27 198h-133zM216 401l-17 -128h133l18 128h-134z" />
    <glyph glyph-name="dollar" unicode="$" horiz-adv-x="557" 
d="M315 -86h-58v79q-54 3 -103.5 21t-84.5 44v102q37 -34 88.5 -55t99.5 -25v227l-38 17q-80 35 -114 79.5t-34 109.5q0 78 48 126t138 56v78h58v-78q38 -3 79.5 -15.5t70.5 -32.5v-99q-33 25 -73.5 40.5t-76.5 19.5v-223l24 -10q83 -36 122.5 -79.5t39.5 -113.5
q0 -77 -48 -127.5t-138 -59.5v-81zM404 180q0 31 -20.5 54.5t-68.5 46.5v-198q45 8 67 34t22 63zM168 515q0 -27 16.5 -53t72.5 -51v197q-21 -3 -42.5 -14t-34 -32.5t-12.5 -46.5z" />
    <glyph glyph-name="percent" unicode="%" horiz-adv-x="813" 
d="M336 482q0 -64 -19 -110.5t-53 -71.5t-83 -25q-50 0 -84 25t-52.5 71t-18.5 111q0 56 17 107t54.5 79t86.5 28q73 0 112.5 -52t39.5 -162zM263 483q0 74 -19 111t-62 37q-24 0 -42.5 -15.5t-29 -49t-10.5 -85.5q0 -72 21.5 -107.5t60.5 -35.5q81 0 81 145zM263 -12h-55
l347 713h54zM787 200q0 -64 -19 -110.5t-53 -71.5t-83 -25q-50 0 -84 25t-52.5 71t-18.5 111q0 56 17 107t54.5 79t86.5 28q73 0 112.5 -52t39.5 -162zM714 201q0 74 -19 111t-62 37q-24 0 -42.5 -15.5t-29 -49t-10.5 -85.5q0 -72 21.5 -107.5t60.5 -35.5q81 0 81 145z" />
    <glyph glyph-name="ampersand" unicode="&#x26;" horiz-adv-x="682" 
d="M539 0l-69 68q-93 -80 -206 -80q-100 0 -162 54t-62 142q0 36 12.5 71.5t50 68t96.5 60.5q-53 72 -53 146q0 32 12.5 61.5t35.5 52t57 35t74 12.5q72 0 116.5 -37.5t44.5 -102.5q0 -62 -36.5 -105t-108.5 -82q63 -78 144 -163q37 40 82 115l79 -50q-42 -71 -101 -134
l127 -132h-133zM293 423q56 30 78 57.5t22 61.5q0 28 -20 47.5t-52 19.5q-38 0 -59 -20.5t-21 -52.5q0 -21 11.5 -51t40.5 -62zM248 322q-57 -27 -81.5 -57t-24.5 -77q0 -29 14 -55t40.5 -41t68.5 -15q41 0 80 15t69 42q-96 101 -166 188z" />
    <glyph glyph-name="quotesingle" unicode="'" horiz-adv-x="182" 
d="M121 468h-59q-9 142 -12 279h82q-1 -128 -11 -279z" />
    <glyph glyph-name="parenleft" unicode="(" horiz-adv-x="316" 
d="M250 -155q-102 83 -156 197t-54 254q0 142 51.5 259.5t157.5 198.5h72q-98 -85 -149 -197t-51 -260q0 -262 200 -452h-71z" />
    <glyph glyph-name="parenright" unicode=")" horiz-adv-x="316" 
d="M67 754q63 -50 109.5 -116.5t73 -151t26.5 -186.5q0 -287 -210 -455h-71q200 181 200 455t-200 454h72z" />
    <glyph glyph-name="asterisk" unicode="*" horiz-adv-x="427" 
d="M372 619l16 -57l-137 -43q38 -45 91 -116l-48 -34q-53 73 -82 119l-81 -119l-47 33q38 54 89 118q-53 15 -134 43l18 55q81 -27 132 -49q-6 94 -6 146h61q0 -62 -5 -147q53 22 133 51z" />
    <glyph glyph-name="plus" unicode="+" horiz-adv-x="701" 
d="M383 34h-66v228h-217v66h217v226h66v-226h218v-66h-218v-228z" />
    <glyph glyph-name="comma" unicode="," horiz-adv-x="233" 
d="M78 -153h-77q83 133 84 300h93q0 -89 -27 -167t-73 -133z" />
    <glyph glyph-name="hyphen" unicode="-" horiz-adv-x="346" 
d="M301 221h-255v77h255v-77z" />
    <glyph glyph-name="period" unicode="." horiz-adv-x="217" 
d="M181 59q0 -28 -19.5 -47.5t-47.5 -19.5q-27 0 -45 19t-18 46q0 28 19 47t47 19q27 0 45.5 -18.5t18.5 -45.5z" />
    <glyph glyph-name="slash" unicode="/" horiz-adv-x="350" 
d="M46 -57h-60l312 788h60z" />
    <glyph glyph-name="zero" unicode="0" horiz-adv-x="546" 
d="M513 339q0 -71 -14 -134t-43 -112t-75.5 -77t-107.5 -28q-46 0 -90.5 19t-77.5 63t-52.5 111.5t-19.5 157.5q0 74 15 140t45.5 115.5t77 78t106.5 28.5q236 0 236 -362zM417 341q0 133 -33.5 201.5t-108.5 68.5q-44 0 -75.5 -29t-49.5 -89t-18 -156q0 -130 38 -195
t106 -65t104.5 65.5t36.5 198.5z" />
    <glyph glyph-name="one" unicode="1" horiz-adv-x="546" 
d="M347 0h-100v569l-139 -66v98l239 106v-707z" />
    <glyph glyph-name="two" unicode="2" horiz-adv-x="546" 
d="M501 0h-471q114 131 170 197t92 116q72 99 72 173q0 63 -34 94t-96 31q-43 0 -88 -19t-86 -53v92q89 70 196 70q100 0 152 -52.5t52 -144.5q0 -40 -10 -78.5t-30 -74.5t-42 -65q-62 -83 -167 -198q16 1 290 1v-89z" />
    <glyph glyph-name="three" unicode="3" horiz-adv-x="546" 
d="M55 31v94q28 -19 74 -34t104 -15q74 0 108 35t34 92q0 39 -25 68t-75 37q-29 5 -92 5h-20v86h21q65 0 91 10q37 14 56.5 39t19.5 58q0 21 -9 46.5t-37 42.5t-76 17q-41 0 -83 -14t-77 -39v86q31 24 80.5 40t98.5 16q95 0 146 -47t51 -131q0 -38 -14.5 -69.5t-42 -54
t-70.5 -35.5q78 -13 115.5 -56.5t37.5 -111.5q0 -45 -16 -83.5t-46.5 -66.5t-76.5 -43t-104 -15q-47 0 -96 12t-77 31z" />
    <glyph glyph-name="four" unicode="4" horiz-adv-x="546" 
d="M428 0h-95v193h-300v64l312 432h83v-419h94v-77h-94v-193zM333 270q0 242 2 289q-3 -4 -19.5 -28.5t-37 -54t-57 -81.5t-89.5 -125h201z" />
    <glyph glyph-name="five" unicode="5" horiz-adv-x="546" 
d="M62 29v100q81 -52 174 -52q71 0 112 38.5t41 103.5q0 63 -40 94.5t-110 31.5q-36 0 -79 -8t-74 -23l35 375h330v-89h-257l-19 -190q17 8 45.5 12.5t53.5 4.5q68 0 115 -25t71.5 -70t24.5 -111q0 -109 -65 -171t-179 -62q-110 0 -179 41z" />
    <glyph glyph-name="six" unicode="6" horiz-adv-x="546" 
d="M141 344q23 44 68.5 71t105.5 27q41 0 77 -13t62.5 -40t41.5 -68t15 -94q0 -55 -16 -100t-45.5 -76t-70.5 -47t-90 -16q-51 0 -95.5 19t-77 60t-51 107t-18.5 154q0 95 22 167t60.5 117t89.5 67t108 22q46 0 81 -8t64 -28v-100q-56 45 -138 45q-190 0 -193 -266zM148 254
q2 -57 24 -105q15 -34 45.5 -54.5t70.5 -20.5q10 0 34 4.5t46 22.5t36 48.5t14 76.5q0 70 -34.5 103.5t-92.5 33.5q-54 0 -93.5 -31.5t-49.5 -77.5z" />
    <glyph glyph-name="seven" unicode="7" horiz-adv-x="546" 
d="M236 0h-99l247 600h-341v89h469z" />
    <glyph glyph-name="eight" unicode="8" horiz-adv-x="546" 
d="M169 357q-25 10 -50.5 30.5t-41 54t-15.5 72.5q0 31 11 63t37.5 59.5t68.5 46t96 18.5q58 0 108.5 -21t77 -65t26.5 -99q0 -37 -16 -71.5t-42.5 -55t-52.5 -29.5q62 -16 94.5 -64t32.5 -107q0 -90 -63.5 -145.5t-170.5 -55.5q-71 0 -121.5 26t-77.5 69t-27 103
q0 43 19 81t49 59.5t58 30.5zM401 510q0 52 -34 81.5t-93 29.5q-52 0 -89 -30.5t-37 -81.5q0 -48 33 -81.5t93 -33.5q28 0 58.5 10.5t49.5 38.5t19 67zM413 196q0 61 -37.5 91t-100.5 30q-32 0 -64.5 -11t-54.5 -41.5t-22 -69.5q0 -23 8 -46t28 -42t49 -28t53 -9
q43 0 75 16.5t45.5 37.5t17 39t3.5 33z" />
    <glyph glyph-name="nine" unicode="9" horiz-adv-x="546" 
d="M406 343q-14 -27 -46 -51.5t-67 -34.5t-62 -10q-63 0 -106.5 27.5t-66 74.5t-22.5 113q0 55 16.5 100t46.5 76t72 47t91 16q51 0 94.5 -19t75.5 -60t50 -107t18 -154q0 -97 -21.5 -169.5t-59.5 -117t-89 -65.5t-110 -21q-98 0 -149 36v100q55 -45 142 -45
q63 0 104.5 25.5t64.5 81.5t24 157zM399 435q-2 61 -22 104q-15 35 -45 55.5t-71 20.5q-33 0 -65 -16.5t-49.5 -53t-17.5 -82.5q0 -36 11.5 -69t42 -52t72.5 -19q54 0 94 32.5t50 79.5z" />
    <glyph glyph-name="colon" unicode=":" horiz-adv-x="237" 
d="M201 59q0 -28 -19.5 -47.5t-47.5 -19.5q-27 0 -45 19t-18 46q0 28 19 47t47 19q27 0 45.5 -18.5t18.5 -45.5zM201 432q0 -28 -19.5 -47.5t-47.5 -19.5q-27 0 -45 19t-18 46q0 28 19 47t47 19q27 0 45.5 -18.5t18.5 -45.5z" />
    <glyph glyph-name="semicolon" unicode=";" horiz-adv-x="237" 
d="M201 432q0 -28 -19.5 -47.5t-47.5 -19.5q-27 0 -45 19t-18 46q0 28 19 47t47 19q27 0 45.5 -18.5t18.5 -45.5zM91 -153h-77q83 133 84 300h93q0 -89 -27 -167t-73 -133z" />
    <glyph glyph-name="less" unicode="&#x3c;" horiz-adv-x="701" 
d="M570 47l-453 217v62l453 223v-76l-379 -177l379 -173v-76z" />
    <glyph glyph-name="equal" unicode="=" horiz-adv-x="701" 
d="M100 432h501v-66h-501v66zM100 224h501v-66h-501v66z" />
    <glyph glyph-name="greater" unicode="&#x3e;" horiz-adv-x="701" 
d="M130 549l453 -218v-63l-453 -221v75l380 177l-380 173v77z" />
    <glyph glyph-name="question" unicode="?" horiz-adv-x="413" 
d="M214 226h-78q0 66 13 97t36 52q40 38 68 73.5t28 77.5q0 40 -24.5 70.5t-77.5 30.5q-37 0 -73.5 -13t-63.5 -37v92q30 25 72 37.5t89 12.5q49 0 92 -18t65.5 -57.5t22.5 -90.5q0 -52 -27.5 -101.5t-90.5 -102.5q-21 -18 -34.5 -42.5t-16.5 -80.5zM241 59
q0 -28 -19.5 -47.5t-47.5 -19.5q-27 0 -45 19t-18 46q0 28 19 47t47 19q27 0 45.5 -18.5t18.5 -45.5z" />
    <glyph glyph-name="at" unicode="@" horiz-adv-x="790" 
d="M478 115q-58 -64 -142 -64q-60 0 -90.5 35.5t-30.5 98.5q0 51 17.5 100.5t52.5 89t86.5 62.5t115.5 23q24 0 54.5 -5t53.5 -14l-51 -239q-10 -45 -10 -66q0 -17 10 -26.5t26 -9.5q18 0 39.5 13.5t42 44.5t36 79t15.5 106q0 60 -18 108t-52 80.5t-82 49t-106 16.5
q-70 0 -134 -29t-112 -81t-75.5 -122.5t-27.5 -148.5q0 -65 20.5 -121.5t59 -97.5t94.5 -63.5t123 -22.5q58 0 117.5 14t138.5 59v-49q-52 -33 -120.5 -50.5t-141.5 -17.5q-75 0 -138.5 25t-109 71.5t-70 111t-24.5 140.5q0 120 57 219.5t149.5 152t195.5 52.5
q67 0 123.5 -20t96.5 -57.5t61.5 -91.5t21.5 -119q0 -74 -26 -146.5t-73.5 -112.5t-97.5 -40q-65 0 -75 63zM475 161l53 241q-28 6 -53 6q-34 0 -69.5 -13t-64 -43t-46.5 -72.5t-18 -91.5q0 -40 21 -61t58 -21q59 0 119 55z" />
    <glyph glyph-name="A" unicode="A" horiz-adv-x="651" 
d="M114 0h-109l273 706h95l273 -706h-106l-80 201h-268zM223 292h205q-78 205 -102 282q-17 -50 -103 -282z" />
    <glyph glyph-name="B" unicode="B" horiz-adv-x="634" 
d="M87 0v706h200q91 0 136 -15q26 -9 53.5 -28.5t44.5 -54.5t17 -76q0 -113 -103 -160q153 -28 153 -172q0 -41 -15 -78t-40 -60t-50 -35q-54 -27 -172 -27h-224zM189 88h118q87 0 112 12q32 15 48 41.5t16 67.5q0 38 -22 67t-59 39q-32 8 -100 8h-113v-235zM189 405h102
q73 0 98 17q24 15 36.5 41t12.5 52q0 20 -7 39t-18 30.5t-21 17.5q-33 17 -99 17h-104v-214z" />
    <glyph glyph-name="C" unicode="C" horiz-adv-x="655" 
d="M610 48q-88 -60 -223 -60q-72 0 -135 25t-110 72.5t-73 115t-26 148.5q0 80 26 149t73 118.5t111.5 76.5t137.5 27q141 0 220 -57v-108q-19 18 -49.5 36t-71.5 27.5t-81 9.5q-57 0 -105.5 -19t-83 -55.5t-53 -88t-18.5 -114.5q0 -64 20.5 -115.5t56.5 -86t84 -52
t101 -17.5q107 0 199 66v-98z" />
    <glyph glyph-name="D" unicode="D" horiz-adv-x="713" 
d="M87 0v706h170q155 0 227 -32q92 -39 138.5 -119t46.5 -195q0 -120 -51.5 -205t-153.5 -124q-82 -31 -229 -31h-148zM189 95h68q44 0 95.5 6t83.5 21q45 22 76 61.5t41.5 85t10.5 88.5q0 76 -29.5 135t-89.5 91q-20 11 -62 19.5t-106 8.5h-88v-516z" />
    <glyph glyph-name="E" unicode="E" horiz-adv-x="543" 
d="M505 0h-418v706h401v-95h-299v-199h279v-95h-279v-222h316v-95z" />
    <glyph glyph-name="F" unicode="F" horiz-adv-x="516" 
d="M189 0h-102v706h394v-95h-292v-214h272v-95h-272v-302z" />
    <glyph glyph-name="G" unicode="G" horiz-adv-x="713" 
d="M649 48q-47 -26 -116.5 -43t-141.5 -17q-76 0 -141 26t-111 74t-71 115.5t-25 146.5q0 80 26 149t73 118.5t111.5 76t137.5 26.5q153 0 232 -58v-108q-78 74 -214 74q-58 0 -106.5 -20t-82.5 -57t-52.5 -88.5t-18.5 -111.5q0 -62 19 -113t54 -86t82 -53.5t101 -18.5
q82 0 144 28v159h-147v95h247v-314z" />
    <glyph glyph-name="H" unicode="H" horiz-adv-x="712" 
d="M625 0h-101v317h-335v-317h-102v706h102v-294h335v294h101v-706z" />
    <glyph glyph-name="I" unicode="I" horiz-adv-x="276" 
d="M189 0h-102v706h102v-706z" />
    <glyph glyph-name="J" unicode="J" horiz-adv-x="278" 
d="M-2 -191l-35 81q74 36 99 66q27 32 27 106v644h102v-637q0 -113 -46 -165q-49 -55 -147 -95z" />
    <glyph glyph-name="K" unicode="K" horiz-adv-x="617" 
d="M189 0h-102v706h102v-312q71 87 270 312h123l-298 -332l329 -374h-130q-209 238 -294 341v-341z" />
    <glyph glyph-name="L" unicode="L" horiz-adv-x="524" 
d="M500 0h-413v706h102v-611h311v-95z" />
    <glyph glyph-name="M" unicode="M" horiz-adv-x="814" 
d="M187 0h-100v706h110q197 -314 209 -336q31 52 213 336h108v-706h-100q0 468 2 551q-28 -46 -225 -346q-191 299 -219 346q2 -82 2 -551z" />
    <glyph glyph-name="N" unicode="N" horiz-adv-x="732" 
d="M185 0h-98v706h91q10 -14 33 -46t160.5 -221.5t178.5 -251.5q-2 83 -2 519h97v-706h-84q-10 14 -33 46.5t-166.5 235t-178.5 256.5q2 -67 2 -538z" />
    <glyph glyph-name="O" unicode="O" horiz-adv-x="763" 
d="M720 356q0 -82 -25 -150.5t-70.5 -117t-109 -74.5t-137.5 -26q-72 0 -134 26t-107 74t-69.5 116.5t-24.5 148.5q0 79 25.5 147.5t71.5 117t110 75t137 26.5q76 0 138.5 -27t106 -76t66 -116t22.5 -144zM615 349q0 130 -62.5 204t-166.5 74q-51 0 -94.5 -18t-75.5 -53.5
t-49.5 -87t-17.5 -114.5q0 -126 65 -200t168 -74q51 0 94.5 18.5t74.5 53t47.5 85t16.5 112.5z" />
    <glyph glyph-name="P" unicode="P" horiz-adv-x="592" 
d="M189 0h-102v706h154q98 0 148 -11q78 -15 120 -65.5t42 -134.5q0 -70 -30.5 -120.5t-87.5 -74.5q-67 -27 -185 -27h-59v-273zM189 364h62q83 0 123 15q34 13 53 42t19 69q0 48 -27 76.5t-76 37.5q-36 7 -104 7h-50v-247z" />
    <glyph glyph-name="Q" unicode="Q" horiz-adv-x="763" 
d="M720 356q0 -123 -54 -212.5t-148 -128.5q95 -56 219 -92l-30 -87q-77 21 -170 68t-142 85l-17 -1q-72 0 -134 26t-107 74t-69.5 116.5t-24.5 148.5q0 79 25.5 147.5t71.5 117t110 75t137 26.5q76 0 138.5 -27t106 -76t66 -116t22.5 -144zM615 349q0 130 -62.5 204
t-166.5 74q-51 0 -94.5 -18t-75.5 -53.5t-49.5 -87t-17.5 -114.5q0 -126 65 -200t168 -74q51 0 94.5 18.5t74.5 53t47.5 85t16.5 112.5z" />
    <glyph glyph-name="R" unicode="R" horiz-adv-x="619" 
d="M189 0h-102v706h148q108 0 157 -11q148 -30 148 -180q0 -135 -138 -184q29 -12 50.5 -36.5t48.5 -71t115 -223.5h-112q-42 84 -75 147t-55 93.5t-43 43.5q-21 12 -66 12h-76v-296zM189 382h92q47 0 74 10q80 32 80 114q0 44 -25.5 75t-81.5 37q-27 3 -94 3h-45v-239z" />
    <glyph glyph-name="S" unicode="S" horiz-adv-x="541" 
d="M45 56v109q44 -39 108 -63t117 -24q71 0 102.5 27.5t31.5 71.5q0 32 -26 59.5t-85 55.5l-88 41q-85 40 -121 84.5t-36 112.5q0 87 61 138t173 51q51 0 101 -13.5t86 -36.5v-106q-40 31 -93.5 49.5t-101.5 18.5q-59 0 -91 -27.5t-32 -68.5q0 -29 16 -53t80 -54l87 -41
q89 -42 131 -85.5t42 -118.5q0 -88 -62.5 -141.5t-179.5 -53.5q-63 0 -122.5 19.5t-97.5 48.5z" />
    <glyph glyph-name="T" unicode="T" horiz-adv-x="577" 
d="M338 0h-102v611h-209v95h522v-95h-211v-611z" />
    <glyph glyph-name="U" unicode="U" horiz-adv-x="723" 
d="M79 706h101v-409q0 -80 15 -123q16 -46 60.5 -70t104.5 -24q52 0 90 15t56.5 41t25.5 51q11 45 11 116v403h101v-406q0 -44 -6.5 -87.5t-16.5 -74.5q-25 -72 -93 -111t-170 -39q-96 0 -163 36t-93 109q-23 65 -23 161v412z" />
    <glyph glyph-name="V" unicode="V" horiz-adv-x="649" 
d="M370 0h-91l-274 706h109q184 -484 214 -570q26 79 211 570h105z" />
    <glyph glyph-name="W" unicode="W" horiz-adv-x="977" 
d="M310 0h-89l-210 706h106q89 -308 114.5 -397.5t41.5 -153.5q12 41 27.5 91.5t74.5 232t74 227.5h83q5 -14 17.5 -53t73.5 -224t85 -274q2 10 7 30.5t21 79t127 441.5h104l-212 -706h-88q-5 15 -18 56t-74.5 232.5t-84.5 279.5q-3 -11 -8.5 -30t-23.5 -78t-148 -460z" />
    <glyph glyph-name="X" unicode="X" horiz-adv-x="681" 
d="M129 0h-121l263 375l-233 331h123q41 -56 77 -107t72.5 -103.5t39.5 -57.5q56 90 181 268h116l-236 -336l262 -370h-124q-61 84 -103 143.5t-73.5 105t-36.5 52.5q-140 -206 -207 -301z" />
    <glyph glyph-name="Y" unicode="Y" horiz-adv-x="632" 
d="M364 0h-102v293l-258 413h120q133 -217 192 -319q44 80 199 319h113l-264 -413v-293z" />
    <glyph glyph-name="Z" unicode="Z" horiz-adv-x="621" 
d="M591 0h-584l406 612l-358 -1v95h541l-404 -612q50 1 399 1v-95z" />
    <glyph glyph-name="bracketleft" unicode="[" horiz-adv-x="260" 
d="M248 -155h-175v903h175v-53h-98v-797h98v-53z" />
    <glyph glyph-name="backslash" unicode="\" horiz-adv-x="350" 
d="M365 -57h-60l-312 788h60z" />
    <glyph glyph-name="bracketright" unicode="]" horiz-adv-x="260" 
d="M12 752h175v-903h-175v53h98v796h-98v54z" />
    <glyph glyph-name="asciicircum" unicode="^" horiz-adv-x="711" 
d="M584 312h-74l-155 318l-154 -318h-74l193 394h70z" />
    <glyph glyph-name="underscore" unicode="_" horiz-adv-x="445" 
d="M0 -82h445v-37h-445v37z" />
    <glyph glyph-name="grave" unicode="`" horiz-adv-x="179" 
d="M201 578h-78l-144 170h108z" />
    <glyph glyph-name="a" unicode="a" horiz-adv-x="503" 
d="M432 0h-87v52q-60 -62 -146 -62q-34 0 -70 14.5t-60.5 51t-24.5 81.5q0 38 16 69t46 49q28 17 79.5 31t156.5 21v15q0 22 -5 43t-13 33q-23 33 -82 33q-47 0 -91 -15.5t-78 -45.5v83q34 29 82 44.5t96 15.5q120 0 161 -81q20 -40 20 -133v-299zM342 113v125
q-50 -3 -95.5 -10.5t-79.5 -26.5q-16 -9 -25 -26t-9 -34q0 -22 12 -41.5t34.5 -28t45.5 -8.5q64 0 117 50z" />
    <glyph glyph-name="b" unicode="b" horiz-adv-x="565" 
d="M76 26v721h92v-298q27 29 67 46t84 17q99 0 152.5 -66.5t53.5 -182.5q0 -68 -18.5 -120.5t-52.5 -86.5t-80.5 -51t-101.5 -17q-46 0 -96.5 9t-99.5 29zM168 86q19 -11 50.5 -17.5t62.5 -6.5q47 0 80 24t50.5 66t17.5 102q0 35 -7.5 68.5t-25 58.5t-44 39t-60.5 14
q-38 0 -72 -18t-52 -43v-287z" />
    <glyph glyph-name="c" unicode="c" horiz-adv-x="467" 
d="M436 27q-63 -39 -151 -39q-55 0 -100.5 18.5t-78 52.5t-49.5 83t-17 107q0 56 18.5 105t52.5 84.5t81 55t100 19.5q91 0 142 -40v-95q-30 25 -61 37t-70 12q-49 0 -85.5 -20.5t-59 -59.5t-22.5 -93t19.5 -93.5t56.5 -63t89 -23.5q71 0 135 43v-90z" />
    <glyph glyph-name="d" unicode="d" horiz-adv-x="567" 
d="M490 0h-91v50q-26 -29 -67 -45.5t-88 -16.5q-95 0 -151 68.5t-56 182.5q0 59 15.5 109t45.5 87t74.5 57t100.5 20q38 0 72 -11t52 -30v276h93v-747zM397 123v264q-14 22 -44 36t-66 14q-49 0 -83.5 -24.5t-53 -66.5t-18.5 -101q0 -60 17.5 -99.5t48 -60.5t72.5 -21
q38 0 73.5 17.5t53.5 41.5z" />
    <glyph glyph-name="e" unicode="e" horiz-adv-x="514" 
d="M472 34q-78 -46 -178 -46q-119 0 -186.5 70t-67.5 195q0 28 6 62.5t21.5 68t43.5 63t71 48t91 18.5q67 0 112 -27.5t70.5 -82t25.5 -137.5v-36h-345q1 -51 21.5 -85t59.5 -53t95 -19q39 0 84 13.5t76 37.5v-90zM137 301h248q0 70 -28 103.5t-85 33.5q-23 0 -46.5 -7.5
t-44.5 -27t-32 -48.5t-12 -54z" />
    <glyph glyph-name="f" unicode="f" horiz-adv-x="322" 
d="M188 0h-92v422h-68v78h68v60q0 78 17 118q8 19 26.5 37.5t50.5 29.5t69 11q24 0 48.5 -4.5t37.5 -11.5v-81q-30 17 -75 17q-24 0 -43 -9t-27 -26q-12 -24 -12 -80v-61h117v-78h-117v-422z" />
    <glyph glyph-name="g" unicode="g" horiz-adv-x="501" 
d="M162 169q-28 9 -56.5 30t-45.5 56t-17 76q0 80 56 130t145 50q49 0 83 -11h160v-77h-79q13 -16 21 -39.5t8 -49.5q0 -99 -81 -142q-39 -20 -113 -36q-28 -6 -46 -20.5t-18 -31.5q0 -10 7.5 -18.5t21.5 -11.5q17 -4 73.5 -8t78.5 -7q35 -5 65 -19.5t46 -44.5t16 -66
q0 -37 -18.5 -70t-52 -57t-81 -37t-102.5 -13q-72 0 -119 19t-70.5 49t-23.5 69q0 21 11 44.5t40.5 44.5t69.5 35q-28 9 -41.5 26t-13.5 39q0 53 76 91zM347 331q0 36 -15 61t-41 34.5t-51 9.5q-22 0 -47.5 -9.5t-42.5 -35t-17 -59.5q0 -32 16.5 -56t42 -33t47.5 -9
q48 0 78 26t30 71zM394 -86q0 17 -8 31.5t-40 25.5q-19 6 -54 10t-65 4q-25 0 -53.5 -8t-47 -28.5t-18.5 -44.5q0 -34 34 -55t98 -21q65 0 109.5 25.5t44.5 60.5z" />
    <glyph glyph-name="h" unicode="h" horiz-adv-x="552" 
d="M168 0h-92v747h92v-307q23 31 65.5 51.5t89.5 20.5q111 0 142 -86q7 -21 12 -52t5 -99v-275h-93v273q0 40 -1.5 67t-8.5 43q-19 47 -86 47q-37 0 -70.5 -18.5t-54.5 -49.5v-362z" />
    <glyph glyph-name="i" unicode="i" horiz-adv-x="244" 
d="M168 0h-92v500h92v-500zM179 659q0 -25 -16.5 -41.5t-41.5 -16.5q-24 0 -40 16t-16 40q0 25 17 42t41 17t40 -16.5t16 -40.5z" />
    <glyph glyph-name="j" unicode="j" horiz-adv-x="244" 
d="M6 -238l-33 75q19 9 41 23.5t31 24.5q12 14 21.5 37.5t9.5 73.5v504h92v-510q0 -98 -33 -138q-40 -49 -129 -90zM179 659q0 -25 -16.5 -41.5t-41.5 -16.5q-24 0 -40 16t-16 40q0 25 17 42t41 17t40 -16.5t16 -40.5z" />
    <glyph glyph-name="k" unicode="k" horiz-adv-x="512" 
d="M168 0h-92v747h92v-452q98 103 198 205h118l-226 -217l251 -283h-116q-166 185 -225 256v-256z" />
    <glyph glyph-name="l" unicode="l" horiz-adv-x="244" 
d="M168 0h-92v747h92v-747z" />
    <glyph glyph-name="m" unicode="m" horiz-adv-x="851" 
d="M168 0h-92v500h91v-61q25 32 65.5 52.5t87.5 20.5q102 0 136 -84q28 37 71.5 60.5t96.5 23.5q50 0 86.5 -21.5t51.5 -65.5q7 -20 11.5 -51t4.5 -98v-276h-92v273q0 74 -10 103q-19 54 -86 54q-37 0 -68 -18t-52 -49q3 -27 3 -87v-276h-92v273q0 79 -11 107
q-10 25 -30.5 37.5t-53.5 12.5q-37 0 -67 -18.5t-51 -49.5v-362z" />
    <glyph glyph-name="n" unicode="n" horiz-adv-x="555" 
d="M168 0h-92v500h90v-61q23 31 68 52t92 21q119 0 146 -106q10 -39 10 -131v-275h-93v273q0 81 -10 109q-18 48 -83 48q-36 0 -73.5 -19.5t-54.5 -48.5v-362z" />
    <glyph glyph-name="o" unicode="o" horiz-adv-x="555" 
d="M515 253q0 -122 -64.5 -193.5t-172.5 -71.5q-54 0 -98.5 18.5t-75.5 53.5t-47.5 83t-16.5 105q0 56 17 105t49 85t76.5 55.5t97.5 19.5t97.5 -19t75 -53.5t46.5 -83t16 -104.5zM423 251q0 87 -37.5 134.5t-106.5 47.5q-65 0 -105.5 -49t-40.5 -135q0 -85 39 -133t106 -48
q69 0 107 47.5t38 135.5z" />
    <glyph glyph-name="p" unicode="p" horiz-adv-x="563" 
d="M168 -237h-92v737h89v-53q24 28 64.5 46.5t83.5 18.5q37 0 74.5 -12t71 -45.5t49 -86t15.5 -108.5q0 -125 -62.5 -197.5t-171.5 -72.5q-33 0 -66 7t-55 23v-257zM168 103q7 -8 25 -18t44 -15t39 -5q47 0 80 22t52 64t19 104q0 86 -36 133.5t-104 47.5q-35 0 -70 -19
t-49 -43v-271z" />
    <glyph glyph-name="q" unicode="q" horiz-adv-x="571" 
d="M489 -237h-92v285q-25 -29 -65.5 -44.5t-87.5 -15.5q-95 0 -151 68.5t-56 182.5q0 59 15.5 109t45.5 87t74.5 57t99.5 20q38 0 72.5 -12.5t53.5 -34.5v35h91v-737zM397 123v264q-14 22 -44 36t-64 14q-50 0 -85 -24.5t-53.5 -66.5t-18.5 -101q0 -60 17.5 -99.5
t48.5 -60.5t74 -21q38 0 73 17.5t52 41.5z" />
    <glyph glyph-name="r" unicode="r" horiz-adv-x="375" 
d="M168 0h-92v500h90v-73q18 41 52.5 63.5t79.5 22.5q36 0 60 -12v-87q-28 19 -68 19q-39 0 -71 -22t-51 -63v-348z" />
    <glyph glyph-name="s" unicode="s" horiz-adv-x="416" 
d="M39 38v98q35 -31 84 -49.5t89 -18.5q46 0 65.5 13.5t19.5 41.5q0 21 -16 36.5t-67 40.5l-57 27q-56 26 -84.5 61.5t-28.5 84.5q0 38 20.5 71.5t61.5 51t90 17.5q39 0 80 -11.5t73 -33.5v-93q-35 27 -79 42.5t-80 15.5q-40 0 -56.5 -15.5t-16.5 -37.5q0 -26 20 -43.5
t56 -34.5l58 -27q62 -29 90 -60.5t28 -83.5q0 -66 -47.5 -104.5t-127.5 -38.5q-96 0 -175 50z" />
    <glyph glyph-name="t" unicode="t" horiz-adv-x="358" 
d="M342 13q-46 -25 -114 -25q-32 0 -60 11t-43 30.5t-21 38.5q-11 35 -11 117v237h-66v78h67v140h91v-140h133v-78h-133v-239q0 -47 8 -74q6 -19 23.5 -29.5t44.5 -10.5q44 0 81 23v-79z" />
    <glyph glyph-name="u" unicode="u" horiz-adv-x="555" 
d="M479 0h-92v60q-26 -33 -65.5 -52.5t-89.5 -19.5q-113 0 -142 86q-7 21 -12 52.5t-5 98.5v275h92v-273q0 -78 10 -102q11 -28 31.5 -41.5t59.5 -13.5q36 0 67 18t53 48v364h93v-500z" />
    <glyph glyph-name="v" unicode="v" horiz-adv-x="505" 
d="M288 0h-75l-209 500h103q4 -10 13.5 -34.5t52 -131t57 -144t23.5 -66.5q10 31 27.5 76t121.5 300h99z" />
    <glyph glyph-name="w" unicode="w" horiz-adv-x="763" 
d="M247 0h-73l-161 500h103q55 -184 73.5 -249t29.5 -111l8.5 25.5t20 59t99.5 275.5h71q30 -84 74 -204t54 -156q4 20 11 45.5t40.5 138.5t51.5 176h101l-163 -500h-73q-4 10 -13 35.5t-59 160t-62 174.5q-5 -18 -14 -44.5t-52 -143.5t-67 -182z" />
    <glyph glyph-name="x" unicode="x" horiz-adv-x="513" 
d="M115 0h-107l184 257l-170 243h114q108 -162 123 -185q69 103 126 185h107l-174 -235l187 -265h-114l-138 199z" />
    <glyph glyph-name="y" unicode="y" horiz-adv-x="504" 
d="M216 -237h-101l98 250l-209 487h103q136 -322 156 -378q29 90 139 378h98z" />
    <glyph glyph-name="z" unicode="z" horiz-adv-x="473" 
d="M455 0h-448q225 336 286 424q-34 -1 -250 -1v77h407l-284 -424q45 1 289 1v-77z" />
    <glyph glyph-name="braceleft" unicode="{" horiz-adv-x="312" 
d="M303 -157h-33q-74 0 -111 30q-40 34 -40 126v126q0 80 -23 112q-21 29 -75 34v57q63 8 80 39q18 30 18 105v131q0 77 34 116q35 38 119 38h31v-53h-26q-45 0 -65 -28q-19 -25 -19 -79v-127q0 -98 -31 -136q-18 -20 -59 -34q35 -7 54 -27q36 -38 36 -144v-128
q0 -60 22 -83q20 -24 64 -24h24v-51z" />
    <glyph glyph-name="bar" unicode="|" horiz-adv-x="209" 
d="M136 -156h-63v904h63v-904z" />
    <glyph glyph-name="braceright" unicode="}" horiz-adv-x="312" 
d="M8 757h34q72 0 110 -31q41 -35 41 -126v-126q0 -80 23 -112q20 -27 74 -34v-56q-62 -8 -80 -39q-17 -29 -17 -105v-132q0 -80 -34 -116q-14 -16 -40 -26.5t-79 -10.5h-32v52h26q19 0 36.5 7t28.5 21q20 25 20 79v128q0 99 31 136q18 20 58 34q-34 6 -54 26
q-35 38 -35 144v129q0 58 -22 83q-10 12 -28 17.5t-37 5.5h-24v52z" />
    <glyph glyph-name="asciitilde" unicode="~" horiz-adv-x="701" 
d="M132 222l-47 34q77 116 159 116q16 0 40 -7t79 -40q59 -36 97 -36q23 0 47.5 14t59.5 71l50 -31q-36 -60 -73 -90.5t-86 -30.5q-50 0 -117 40q-68 40 -100 40q-28 0 -54.5 -19t-54.5 -61z" />
    <glyph glyph-name="exclamdown" unicode="&#xa1;" horiz-adv-x="272" 
d="M81 263h77q14 -339 14 -480h-104q0 140 13 480zM55 430q0 28 19.5 47.5t47.5 19.5q27 0 45 -19t18 -46q0 -28 -19 -47t-47 -19q-27 0 -45.5 18.5t-18.5 45.5z" />
    <glyph glyph-name="cent" unicode="&#xa2;" horiz-adv-x="496" 
d="M322 -86h-56v82q-58 7 -100.5 35.5t-69 81.5t-26.5 132q0 103 51.5 170.5t144.5 81.5v86h56v-83q14 -1 42.5 -5.5t50.5 -15t34 -20.5v-87q-29 25 -59.5 37.5t-67.5 12.5v-347q69 0 129 46v-85q-58 -39 -129 -42v-80zM163 250q0 -69 27 -111.5t76 -56.5v332
q-50 -16 -76.5 -60.5t-26.5 -103.5z" />
    <glyph glyph-name="sterling" unicode="&#xa3;" horiz-adv-x="645" 
d="M449 289h-165l-36 -200h321v-89h-498v89h76l36 200h-67v64h79l21 115q15 89 45 140q24 40 62 62t69.5 26.5t49.5 4.5q78 0 123 -28v-96q-23 16 -54 25t-59 9q-40 0 -64.5 -12.5t-39.5 -38.5q-21 -35 -35 -113l-17 -94h153v-64z" />
    <glyph glyph-name="currency" unicode="&#xa4;" horiz-adv-x="561" 
d="M468 98l-67 67q-27 -19 -60.5 -28.5t-62.5 -9.5q-30 0 -62 10t-57 27l-66 -66l-44 44l68 67q-42 55 -42 122q0 68 41 122l-67 68l46 44l66 -67q25 20 58 29.5t61 9.5q32 0 64 -10t55 -30l68 68l43 -43l-67 -68q41 -51 41 -120q0 -33 -10 -65.5t-30 -57.5l67 -70zM416 331
q0 23 -7 47.5t-24 46t-43.5 36t-61.5 14.5q-41 0 -76 -23.5t-48.5 -56t-13.5 -62.5q0 -23 7.5 -48t26.5 -48t48.5 -35t55.5 -12q56 0 96 40.5t40 100.5z" />
    <glyph glyph-name="yen" unicode="&#xa5;" horiz-adv-x="646" 
d="M556 345h-151l-35 -55v-28h186v-54h-186v-208h-100v208h-178v54h178v28l-35 55h-143v55h109l-180 289h119q106 -170 184 -303q48 82 193 303h108l-185 -289h116v-55z" />
    <glyph glyph-name="brokenbar" unicode="&#xa6;" horiz-adv-x="215" 
d="M141 400h-68v306h68v-306zM141 -39h-68v306h68v-306z" />
    <glyph glyph-name="section" unicode="&#xa7;" horiz-adv-x="448" 
d="M47 -53v88q77 -66 164 -66q38 0 63 23t25 54q0 19 -9.5 38.5t-46.5 42.5q-115 71 -139 88q-37 26 -51.5 55.5t-14.5 66.5q0 44 27 78t69 48q-61 55 -61 127q0 23 9 49.5t29 48.5t51.5 35t73.5 13q94 0 145 -39v-84q-31 26 -67 38.5t-72 12.5q-40 0 -61 -20.5t-21 -49.5
q0 -22 10 -41.5t58 -50.5q79 -50 133 -91q54 -42 54 -113q0 -22 -9.5 -47.5t-32.5 -47t-51 -30.5q35 -27 50.5 -55.5t15.5 -67.5q0 -23 -7.5 -49t-27.5 -49.5t-55 -40.5t-87 -17q-94 0 -164 53zM275 207q24 8 43.5 28t19.5 46t-13.5 46t-45.5 41l-96 62q-26 -6 -46 -28.5
t-20 -50.5q0 -20 9 -38t43 -42q37 -25 106 -64z" />
    <glyph glyph-name="dieresis" unicode="&#xa8;" horiz-adv-x="179" 
d="M59 659q0 -23 -15 -38.5t-37 -15.5q-23 0 -37 15t-14 38t14.5 38.5t37.5 15.5t37 -15t14 -38zM223 659q0 -23 -15 -38.5t-37 -15.5q-23 0 -37 15t-14 38t14.5 38.5t37.5 15.5t37 -15t14 -38z" />
    <glyph glyph-name="copyright" unicode="&#xa9;" horiz-adv-x="828" 
d="M780 352q0 -76 -27.5 -143.5t-77 -117.5t-117 -77.5t-144.5 -27.5t-144.5 28t-117 78t-77 117.5t-27.5 142.5q0 76 27.5 143.5t77 117.5t117 78t143.5 28q79 0 147 -27.5t117.5 -77.5t76 -118t26.5 -144zM748 352q0 70 -24.5 132.5t-69.5 109t-107.5 72.5t-133.5 26
q-70 0 -132 -26t-106.5 -72.5t-69 -109t-24.5 -132.5t24.5 -132.5t69.5 -108.5t106.5 -71.5t132.5 -25.5t133 25.5t107 71t69.5 108t24.5 133.5zM563 152q-54 -38 -137 -38q-35 0 -72 11t-69 38.5t-49 63t-22 67t-5 57.5q0 38 11 79t41.5 80.5t76 59t91.5 19.5q87 0 132 -32
v-72q-46 41 -122 41q-45 0 -79.5 -19.5t-57 -58t-22.5 -93.5q0 -56 19.5 -95t55.5 -61t87 -22q65 0 121 40v-65z" />
    <glyph glyph-name="ordfeminine" unicode="&#xaa;" horiz-adv-x="319" 
d="M275 282h-64v31q-34 -37 -89 -37q-43 0 -68 24t-25 61q0 46 38 68q43 24 142 32v9q0 27 -10 39q-7 9 -19.5 14t-28.5 5q-27 0 -56 -9.5t-49 -26.5v56q21 19 53 28.5t60 9.5q79 0 104 -51q12 -22 12 -79v-174zM209 351v68q-73 -7 -96 -20q-9 -5 -15 -15t-6 -20
q0 -16 13 -27.5t39 -11.5q36 0 65 26z" />
    <glyph glyph-name="guillemotleft" unicode="&#xab;" horiz-adv-x="434" 
d="M233 74h-86l-126 184l125 184h86l-122 -184zM409 74h-87l-126 184l125 184h87l-122 -184z" />
    <glyph glyph-name="logicalnot" unicode="&#xac;" horiz-adv-x="701" 
d="M601 34h-65v228h-447v66h512v-294z" />
    <glyph glyph-name="uni00AD" unicode="&#xad;" horiz-adv-x="346" 
d="M301 221h-255v77h255v-77z" />
    <glyph glyph-name="registered" unicode="&#xae;" horiz-adv-x="828" 
d="M780 352q0 -76 -27.5 -143.5t-77 -117.5t-117 -77.5t-144.5 -27.5t-144.5 28t-117 78t-77 117.5t-27.5 142.5q0 76 27.5 143.5t77 117.5t117 78t143.5 28q79 0 147 -27.5t117.5 -77.5t76 -118t26.5 -144zM748 352q0 70 -24.5 132.5t-69.5 109t-107.5 72.5t-133.5 26
q-70 0 -132 -26t-106.5 -72.5t-69 -109t-24.5 -132.5t24.5 -132.5t69.5 -108.5t106.5 -71.5t132.5 -25.5t133 25.5t107 71t69.5 108t24.5 133.5zM347 127h-64v453h93q72 0 98 -6q94 -22 94 -116q0 -22 -8 -46t-29.5 -43.5t-50.5 -29.5q21 -9 41.5 -36t93.5 -176h-71
q-37 77 -62 121t-48 59q-12 9 -40 9h-47v-189zM347 374h60q30 0 46 7q49 19 49 71q0 19 -8.5 34.5t-24.5 23t-32 9.5q-27 3 -61 3h-29v-148z" />
    <glyph glyph-name="macron" unicode="&#xaf;" horiz-adv-x="169" 
d="M212 605h-256v69h256v-69z" />
    <glyph glyph-name="degree" unicode="&#xb0;" horiz-adv-x="312" 
d="M290 577q0 -22 -7 -46t-26 -46t-48 -33.5t-54 -11.5q-57 0 -95 39t-38 94q0 30 13 61.5t47.5 54t74.5 22.5q30 0 60.5 -12.5t51.5 -46t21 -75.5zM247 577q0 26 -13.5 50t-35.5 34t-43 10q-29 0 -50.5 -16.5t-29.5 -39t-8 -40.5t8.5 -40t30.5 -38t50 -16q18 0 39.5 9
t36.5 33t15 54z" />
    <glyph glyph-name="plusminus" unicode="&#xb1;" horiz-adv-x="701" 
d="M383 153h-66v216h-217v66h217v214h66v-214h218v-66h-218v-216zM601 0h-501v66h501v-66z" />
    <glyph glyph-name="uni00B2" unicode="&#xb2;" 
d="M324 420h-305q116 123 165 185q42 53 42 94q0 35 -20 52.5t-56 17.5q-26 0 -56 -11t-54 -29v62q26 20 59 31.5t68 11.5q66 0 99 -33t33 -86q0 -68 -53 -130q-33 -39 -94 -103q34 1 172 1v-63z" />
    <glyph glyph-name="uni00B3" unicode="&#xb3;" 
d="M38 438v66q23 -15 55 -22.5t60 -7.5q42 0 62 18.5t20 48.5q0 21 -14.5 36t-42.5 19q-30 4 -58 4h-14v58h14q41 0 56 5q44 14 44 52q0 25 -17.5 40.5t-54.5 15.5q-24 0 -52 -8.5t-49 -22.5v60q22 15 54.5 24.5t61.5 9.5q61 0 94.5 -28.5t33.5 -77.5q0 -22 -11 -43
t-31.5 -33.5t-40.5 -17.5q24 -3 47.5 -14t37.5 -33.5t14 -51.5q0 -55 -41 -88.5t-116 -33.5q-28 0 -60.5 6.5t-51.5 18.5z" />
    <glyph glyph-name="acute" unicode="&#xb4;" horiz-adv-x="179" 
d="M57 578h-78l114 170h108z" />
    <glyph glyph-name="uni00B5" unicode="&#xb5;" horiz-adv-x="578" 
d="M174 -237h-92v737h92v-273q0 -74 10 -102q11 -28 33.5 -41.5t60.5 -13.5q37 0 70.5 19t55.5 49v362h92v-500h-92v61q-16 -29 -52.5 -49.5t-77.5 -20.5q-75 0 -100 54v-282z" />
    <glyph glyph-name="paragraph" unicode="&#xb6;" horiz-adv-x="511" 
d="M286 -127h-32v368q-35 0 -72.5 11.5t-73 42.5t-53 77.5t-17.5 93.5q0 54 17 98.5t50 76t83 48.5t114 17h139v-833h-31v802h-124v-802z" />
    <glyph glyph-name="periodcentered" unicode="&#xb7;" horiz-adv-x="217" 
d="M181 260q0 -28 -19.5 -47.5t-47.5 -19.5q-27 0 -45 19t-18 46q0 28 19 47t47 19q27 0 45.5 -18.5t18.5 -45.5z" />
    <glyph glyph-name="cedilla" unicode="&#xb8;" horiz-adv-x="169" 
d="M-12 -240v55q10 -7 29 -12.5t42 -5.5q14 0 27.5 5t20.5 16.5t7 25.5q0 19 -16 31.5t-46 12.5q-23 0 -40 -6l34 125h53l-20 -70l13 1q42 0 66 -25.5t24 -67.5q0 -50 -33.5 -76.5t-88.5 -26.5q-19 0 -40 5t-32 13z" />
    <glyph glyph-name="uni00B9" unicode="&#xb9;" 
d="M230 420h-76v322l-80 -33v66l156 62v-417z" />
    <glyph glyph-name="ordmasculine" unicode="&#xba;" horiz-adv-x="348" 
d="M322 433q0 -73 -40 -115.5t-109 -42.5q-68 0 -107.5 42t-39.5 112q0 69 41 113t108 44q68 0 107.5 -42t39.5 -111zM253 431q0 47 -20.5 72t-58.5 25q-36 0 -58 -26t-22 -73q0 -45 21 -70.5t58 -25.5q39 0 59.5 25t20.5 73z" />
    <glyph glyph-name="guillemotright" unicode="&#xbb;" horiz-adv-x="434" 
d="M201 442h86l126 -184l-125 -184h-86l122 184zM25 442h87l126 -184l-125 -184h-87l122 184z" />
    <glyph glyph-name="onequarter" unicode="&#xbc;" horiz-adv-x="800" 
d="M251 -12h-55l347 713h54zM233 282h-76v322l-80 -33v66l156 62v-417zM693 0h-72v109h-187v45l195 253h64v-244h58v-54h-58v-109zM621 163q0 129 1 156l-118 -156h117z" />
    <glyph glyph-name="onehalf" unicode="&#xbd;" horiz-adv-x="800" 
d="M231 -12h-55l347 713h54zM219 282h-76v322l-80 -33v66l156 62v-417zM765 0h-305q116 123 165 185q42 53 42 94q0 35 -20 52.5t-56 17.5q-26 0 -56 -11t-54 -29v62q26 20 59 31.5t68 11.5q66 0 99 -33t33 -86q0 -68 -53 -130q-33 -39 -94 -103q34 1 172 1v-63z" />
    <glyph glyph-name="threequarters" unicode="&#xbe;" horiz-adv-x="800" 
d="M277 -12h-55l347 713h54zM57 300v66q23 -15 55 -22.5t60 -7.5q42 0 62 18.5t20 48.5q0 21 -14.5 36t-42.5 19q-30 4 -58 4h-14v58h14q41 0 56 5q44 14 44 52q0 25 -17.5 40.5t-54.5 15.5q-24 0 -52 -8.5t-49 -22.5v60q22 15 54.5 24.5t61.5 9.5q61 0 94.5 -28.5
t33.5 -77.5q0 -22 -11 -43t-31.5 -33.5t-40.5 -17.5q24 -3 47.5 -14t37.5 -33.5t14 -51.5q0 -55 -41 -88.5t-116 -33.5q-28 0 -60.5 6.5t-51.5 18.5zM711 0h-72v109h-187v45l195 253h64v-244h58v-54h-58v-109zM639 163q0 129 1 156l-118 -156h117z" />
    <glyph glyph-name="questiondown" unicode="&#xbf;" horiz-adv-x="413" 
d="M199 263h78q0 -66 -13 -97t-36 -52q-40 -38 -68 -73.5t-28 -77.5q0 -40 24.5 -70.5t77.5 -30.5q37 0 73.5 13t63.5 37v-92q-30 -25 -72 -37.5t-89 -12.5q-49 0 -92 18t-65.5 57.5t-22.5 90.5q0 52 27.5 101.5t90.5 102.5q21 18 34.5 42.5t16.5 80.5zM172 430
q0 28 19.5 47.5t47.5 19.5q27 0 45 -19t18 -46q0 -28 -19 -47t-47 -19q-27 0 -45.5 18.5t-18.5 45.5z" />
    <glyph glyph-name="Agrave" unicode="&#xc0;" horiz-adv-x="651" 
d="M114 0h-109l273 706h95l273 -706h-106l-80 201h-268zM223 292h205q-78 205 -102 282q-17 -50 -103 -282zM410 760h-95l-164 137h126z" />
    <glyph glyph-name="Aacute" unicode="&#xc1;" horiz-adv-x="651" 
d="M114 0h-109l273 706h95l273 -706h-106l-80 201h-268zM223 292h205q-78 205 -102 282q-17 -50 -103 -282zM330 760h-95l133 137h126z" />
    <glyph glyph-name="Acircumflex" unicode="&#xc2;" horiz-adv-x="651" 
d="M114 0h-109l273 706h95l273 -706h-106l-80 201h-268zM223 292h205q-78 205 -102 282q-17 -50 -103 -282zM244 760h-83l127 137h73l128 -137h-84l-82 67z" />
    <glyph glyph-name="Atilde" unicode="&#xc3;" horiz-adv-x="651" 
d="M112 0h-109l273 706h95l273 -706h-106l-80 201h-268zM221 292h205q-78 205 -102 282q-17 -50 -103 -282zM218 762h-58q3 29 14.5 60t33.5 50t48 19q31 0 76 -31q21 -14 32.5 -19.5t22.5 -5.5q30 0 39 55h59q-5 -61 -30.5 -94t-60.5 -33q-8 0 -26 3.5t-57 28.5
q-21 14 -30.5 18t-18.5 4q-15 0 -27.5 -15t-16.5 -40z" />
    <glyph glyph-name="Adieresis" unicode="&#xc4;" horiz-adv-x="651" 
d="M114 0h-109l273 706h95l273 -706h-106l-80 201h-268zM223 292h205q-78 205 -102 282q-17 -50 -103 -282zM290 829q0 -23 -15 -38.5t-37 -15.5q-23 0 -37 15t-14 38t14.5 38.5t37.5 15.5t37 -15t14 -38zM462 829q0 -23 -15 -38.5t-37 -15.5q-23 0 -37 15t-14 38t14.5 38.5
t37.5 15.5t37 -15t14 -38z" />
    <glyph glyph-name="Aring" unicode="&#xc5;" horiz-adv-x="651" 
d="M114 0h-109l273 706h95l273 -706h-106l-80 201h-268zM223 292h205q-78 205 -102 282q-17 -50 -103 -282zM416 839q0 -38 -26.5 -64t-65.5 -26q-37 0 -62.5 26t-25.5 64q0 40 26 65.5t66 25.5q39 0 63.5 -25t24.5 -66zM377 840q0 25 -15 40.5t-38 15.5q-21 0 -36 -16.5
t-15 -40.5q0 -23 14 -39t39 -16q22 0 36.5 16.5t14.5 39.5z" />
    <glyph glyph-name="AE" unicode="&#xc6;" horiz-adv-x="996" 
d="M123 0h-123l491 706h450v-95h-299v-199h279v-95h-279v-222h316v-95h-418v210h-273zM329 304h211v312q-49 -76 -211 -312z" />
    <glyph glyph-name="Ccedilla" unicode="&#xc7;" horiz-adv-x="655" 
d="M273 -247v57q14 -9 35 -14t38 -5q29 0 42.5 14t13.5 34t-16.5 33t-46.5 13q-25 0 -41 -7l30 115q-93 14 -157 66t-96 125.5t-32 164.5q0 80 26 149t73 118.5t111.5 76.5t137.5 27q141 0 220 -57v-108q-19 18 -49.5 36t-71.5 27.5t-81 9.5q-57 0 -105.5 -19t-83 -55.5
t-53 -88t-18.5 -114.5q0 -64 20.5 -115.5t56.5 -86t84 -52t101 -17.5q107 0 199 66v-98q-88 -60 -223 -60h-6l-15 -53l13 1q43 0 67.5 -26t24.5 -70q0 -51 -34 -78.5t-90 -27.5q-19 0 -40.5 5.5t-33.5 13.5z" />
    <glyph glyph-name="Egrave" unicode="&#xc8;" horiz-adv-x="543" 
d="M505 0h-418v706h401v-95h-299v-199h279v-95h-279v-222h316v-95zM381 760h-95l-164 137h126z" />
    <glyph glyph-name="Eacute" unicode="&#xc9;" horiz-adv-x="543" 
d="M505 0h-418v706h401v-95h-299v-199h279v-95h-279v-222h316v-95zM306 750h-95l133 137h126z" />
    <glyph glyph-name="Ecircumflex" unicode="&#xca;" horiz-adv-x="543" 
d="M505 0h-418v706h401v-95h-299v-199h279v-95h-279v-222h316v-95zM207 760h-83l127 137h73l128 -137h-84l-82 67z" />
    <glyph glyph-name="Edieresis" unicode="&#xcb;" horiz-adv-x="543" 
d="M505 0h-418v706h401v-95h-299v-199h279v-95h-279v-222h316v-95zM257 829q0 -23 -15 -38.5t-37 -15.5q-23 0 -37 15t-14 38t14.5 38.5t37.5 15.5t37 -15t14 -38zM429 829q0 -23 -15 -38.5t-37 -15.5q-23 0 -37 15t-14 38t14.5 38.5t37.5 15.5t37 -15t14 -38z" />
    <glyph glyph-name="Igrave" unicode="&#xcc;" horiz-adv-x="276" 
d="M189 0h-102v706h102v-706zM223 760h-95l-164 137h126z" />
    <glyph glyph-name="Iacute" unicode="&#xcd;" horiz-adv-x="276" 
d="M189 0h-102v706h102v-706zM144 750h-95l133 137h126z" />
    <glyph glyph-name="Icircumflex" unicode="&#xce;" horiz-adv-x="276" 
d="M189 0h-102v706h102v-706zM56 760h-83l127 137h73l128 -137h-84l-82 67z" />
    <glyph glyph-name="Idieresis" unicode="&#xcf;" horiz-adv-x="276" 
d="M189 0h-102v706h102v-706zM103 829q0 -23 -15 -38.5t-37 -15.5q-23 0 -37 15t-14 38t14.5 38.5t37.5 15.5t37 -15t14 -38zM275 829q0 -23 -15 -38.5t-37 -15.5q-23 0 -37 15t-14 38t14.5 38.5t37.5 15.5t37 -15t14 -38z" />
    <glyph glyph-name="Eth" unicode="&#xd0;" horiz-adv-x="713" 
d="M87 0v333h-76v64h76v309h170q155 0 227 -32q92 -39 138.5 -119t46.5 -195q0 -120 -51.5 -205t-153.5 -124q-82 -31 -229 -31h-148zM189 95h68q44 0 95.5 6t83.5 21q45 22 76 61.5t41.5 85t10.5 88.5q0 76 -29.5 135t-89.5 91q-20 11 -62 19.5t-106 8.5h-88v-214h180v-64
h-180v-238z" />
    <glyph glyph-name="Ntilde" unicode="&#xd1;" horiz-adv-x="732" 
d="M185 0h-98v706h91q10 -14 33 -46t160.5 -221.5t178.5 -251.5q-2 83 -2 519h97v-706h-84q-10 14 -33 46.5t-166.5 235t-178.5 256.5q2 -67 2 -538zM261 762h-58q3 29 14.5 60t33.5 50t48 19q31 0 76 -31q21 -14 32.5 -19.5t22.5 -5.5q30 0 39 55h59q-5 -61 -30.5 -94
t-60.5 -33q-8 0 -26 3.5t-57 28.5q-21 14 -30.5 18t-18.5 4q-15 0 -27.5 -15t-16.5 -40z" />
    <glyph glyph-name="Ograve" unicode="&#xd2;" horiz-adv-x="763" 
d="M720 356q0 -82 -25 -150.5t-70.5 -117t-109 -74.5t-137.5 -26q-72 0 -134 26t-107 74t-69.5 116.5t-24.5 148.5q0 79 25.5 147.5t71.5 117t110 75t137 26.5q76 0 138.5 -27t106 -76t66 -116t22.5 -144zM615 349q0 130 -62.5 204t-166.5 74q-51 0 -94.5 -18t-75.5 -53.5
t-49.5 -87t-17.5 -114.5q0 -126 65 -200t168 -74q51 0 94.5 18.5t74.5 53t47.5 85t16.5 112.5zM484 760h-95l-164 137h126z" />
    <glyph glyph-name="Oacute" unicode="&#xd3;" horiz-adv-x="763" 
d="M720 356q0 -82 -25 -150.5t-70.5 -117t-109 -74.5t-137.5 -26q-72 0 -134 26t-107 74t-69.5 116.5t-24.5 148.5q0 79 25.5 147.5t71.5 117t110 75t137 26.5q76 0 138.5 -27t106 -76t66 -116t22.5 -144zM615 349q0 130 -62.5 204t-166.5 74q-51 0 -94.5 -18t-75.5 -53.5
t-49.5 -87t-17.5 -114.5q0 -126 65 -200t168 -74q51 0 94.5 18.5t74.5 53t47.5 85t16.5 112.5zM371 754h-95l133 137h126z" />
    <glyph glyph-name="Ocircumflex" unicode="&#xd4;" horiz-adv-x="763" 
d="M720 356q0 -82 -25 -150.5t-70.5 -117t-109 -74.5t-137.5 -26q-72 0 -134 26t-107 74t-69.5 116.5t-24.5 148.5q0 79 25.5 147.5t71.5 117t110 75t137 26.5q76 0 138.5 -27t106 -76t66 -116t22.5 -144zM615 349q0 130 -62.5 204t-166.5 74q-51 0 -94.5 -18t-75.5 -53.5
t-49.5 -87t-17.5 -114.5q0 -126 65 -200t168 -74q51 0 94.5 18.5t74.5 53t47.5 85t16.5 112.5zM307 760h-83l127 137h73l128 -137h-84l-82 67z" />
    <glyph glyph-name="Otilde" unicode="&#xd5;" horiz-adv-x="763" 
d="M720 356q0 -82 -25 -150.5t-70.5 -117t-109 -74.5t-137.5 -26q-72 0 -134 26t-107 74t-69.5 116.5t-24.5 148.5q0 79 25.5 147.5t71.5 117t110 75t137 26.5q76 0 138.5 -27t106 -76t66 -116t22.5 -144zM615 349q0 130 -62.5 204t-166.5 74q-51 0 -94.5 -18t-75.5 -53.5
t-49.5 -87t-17.5 -114.5q0 -126 65 -200t168 -74q51 0 94.5 18.5t74.5 53t47.5 85t16.5 112.5zM282 762h-58q3 29 14.5 60t33.5 50t48 19q31 0 76 -31q21 -14 32.5 -19.5t22.5 -5.5q30 0 39 55h59q-5 -61 -30.5 -94t-60.5 -33q-8 0 -26 3.5t-57 28.5q-21 14 -30.5 18
t-18.5 4q-15 0 -27.5 -15t-16.5 -40z" />
    <glyph glyph-name="Odieresis" unicode="&#xd6;" horiz-adv-x="763" 
d="M720 356q0 -82 -25 -150.5t-70.5 -117t-109 -74.5t-137.5 -26q-72 0 -134 26t-107 74t-69.5 116.5t-24.5 148.5q0 79 25.5 147.5t71.5 117t110 75t137 26.5q76 0 138.5 -27t106 -76t66 -116t22.5 -144zM615 349q0 130 -62.5 204t-166.5 74q-51 0 -94.5 -18t-75.5 -53.5
t-49.5 -87t-17.5 -114.5q0 -126 65 -200t168 -74q51 0 94.5 18.5t74.5 53t47.5 85t16.5 112.5zM352 829q0 -23 -15 -38.5t-37 -15.5q-23 0 -37 15t-14 38t14.5 38.5t37.5 15.5t37 -15t14 -38zM524 829q0 -23 -15 -38.5t-37 -15.5q-23 0 -37 15t-14 38t14.5 38.5t37.5 15.5
t37 -15t14 -38z" />
    <glyph glyph-name="multiply" unicode="&#xd7;" horiz-adv-x="701" 
d="M180 80l-45 47l170 172l-170 171l46 48l169 -172l171 171l45 -47l-171 -171l170 -171l-45 -47l-170 171z" />
    <glyph glyph-name="Oslash" unicode="&#xd8;" horiz-adv-x="763" 
d="M136 -48l-50 32l63 91q-50 48 -78 120t-28 158q0 79 25.5 147.5t71.5 117t110 75t137 26.5q100 0 177 -47l58 83l49 -32l-60 -86q52 -49 80.5 -122t28.5 -159q0 -81 -25 -150t-71 -117.5t-109 -74.5t-137 -26q-102 0 -182 50zM615 349q0 63 -16.5 115.5t-45.5 88.5
l-301 -434q54 -39 130 -39q106 0 169.5 72t63.5 197zM149 354q0 -120 59 -195l301 433q-25 16 -58 25.5t-65 9.5q-51 0 -94.5 -18t-75.5 -53.5t-49.5 -87t-17.5 -114.5z" />
    <glyph glyph-name="Ugrave" unicode="&#xd9;" horiz-adv-x="723" 
d="M79 706h101v-409q0 -80 15 -123q16 -46 60.5 -70t104.5 -24q52 0 90 15t56.5 41t25.5 51q11 45 11 116v403h101v-406q0 -44 -6.5 -87.5t-16.5 -74.5q-25 -72 -93 -111t-170 -39q-96 0 -163 36t-93 109q-23 65 -23 161v412zM462 760h-95l-164 137h126z" />
    <glyph glyph-name="Uacute" unicode="&#xda;" horiz-adv-x="723" 
d="M79 706h101v-409q0 -80 15 -123q16 -46 60.5 -70t104.5 -24q52 0 90 15t56.5 41t25.5 51q11 45 11 116v403h101v-406q0 -44 -6.5 -87.5t-16.5 -74.5q-25 -72 -93 -111t-170 -39q-96 0 -163 36t-93 109q-23 65 -23 161v412zM369 750h-95l133 137h126z" />
    <glyph glyph-name="Ucircumflex" unicode="&#xdb;" horiz-adv-x="723" 
d="M79 706h101v-409q0 -80 15 -123q16 -46 60.5 -70t104.5 -24q52 0 90 15t56.5 41t25.5 51q11 45 11 116v403h101v-406q0 -44 -6.5 -87.5t-16.5 -74.5q-25 -72 -93 -111t-170 -39q-96 0 -163 36t-93 109q-23 65 -23 161v412zM284 760h-83l127 137h73l128 -137h-84l-82 67z
" />
    <glyph glyph-name="Udieresis" unicode="&#xdc;" horiz-adv-x="723" 
d="M79 706h101v-409q0 -80 15 -123q16 -46 60.5 -70t104.5 -24q52 0 90 15t56.5 41t25.5 51q11 45 11 116v403h101v-406q0 -44 -6.5 -87.5t-16.5 -74.5q-25 -72 -93 -111t-170 -39q-96 0 -163 36t-93 109q-23 65 -23 161v412zM331 829q0 -23 -15 -38.5t-37 -15.5
q-23 0 -37 15t-14 38t14.5 38.5t37.5 15.5t37 -15t14 -38zM503 829q0 -23 -15 -38.5t-37 -15.5q-23 0 -37 15t-14 38t14.5 38.5t37.5 15.5t37 -15t14 -38z" />
    <glyph glyph-name="Yacute" unicode="&#xdd;" horiz-adv-x="632" 
d="M364 0h-102v293l-258 413h120q133 -217 192 -319q44 80 199 319h113l-264 -413v-293zM326 759h-95l133 137h126z" />
    <glyph glyph-name="Thorn" unicode="&#xde;" horiz-adv-x="592" 
d="M189 0h-102v706h102v-128h52q99 0 149 -11q78 -15 119.5 -65.5t41.5 -135.5q0 -70 -30.5 -120t-87.5 -74q-67 -27 -185 -27h-59v-145zM189 236h62q79 0 123 15q35 13 53.5 40.5t18.5 67.5q0 49 -26 78.5t-74 37.5q-52 8 -107 8h-50v-247z" />
    <glyph glyph-name="germandbls" unicode="&#xdf;" horiz-adv-x="566" 
d="M168 0h-92v487q0 50 5.5 95.5t25.5 81.5q11 21 35 43t62.5 35.5t80.5 13.5q59 0 101.5 -23.5t67.5 -66.5t25 -100q0 -69 -25.5 -111.5t-86.5 -70.5q52 -6 88 -31t55.5 -65.5t19.5 -95.5q0 -91 -50.5 -147.5t-137.5 -56.5q-77 0 -119 24v86q19 -13 51.5 -21.5t55.5 -8.5
q50 0 79 31.5t29 99.5q0 63 -41.5 99t-124.5 36h-16v84h15q30 0 57.5 13t43 47t15.5 76q0 53 -27 87.5t-78 34.5q-31 0 -55.5 -13t-37.5 -35q-21 -36 -21 -138v-490z" />
    <glyph glyph-name="agrave" unicode="&#xe0;" horiz-adv-x="503" 
d="M432 0h-87v52q-60 -62 -146 -62q-34 0 -70 14.5t-60.5 51t-24.5 81.5q0 38 16 69t46 49q28 17 79.5 31t156.5 21v15q0 22 -5 43t-13 33q-23 33 -82 33q-47 0 -91 -15.5t-78 -45.5v83q34 29 82 44.5t96 15.5q120 0 161 -81q20 -40 20 -133v-299zM342 113v125
q-50 -3 -95.5 -10.5t-79.5 -26.5q-16 -9 -25 -26t-9 -34q0 -22 12 -41.5t34.5 -28t45.5 -8.5q64 0 117 50zM318 578h-78l-144 170h108z" />
    <glyph glyph-name="aacute" unicode="&#xe1;" horiz-adv-x="503" 
d="M432 0h-87v52q-60 -62 -146 -62q-34 0 -70 14.5t-60.5 51t-24.5 81.5q0 38 16 69t46 49q28 17 79.5 31t156.5 21v15q0 22 -5 43t-13 33q-23 33 -82 33q-47 0 -91 -15.5t-78 -45.5v83q34 29 82 44.5t96 15.5q120 0 161 -81q20 -40 20 -133v-299zM342 113v125
q-50 -3 -95.5 -10.5t-79.5 -26.5q-16 -9 -25 -26t-9 -34q0 -22 12 -41.5t34.5 -28t45.5 -8.5q64 0 117 50zM255 578h-78l114 170h108z" />
    <glyph glyph-name="acircumflex" unicode="&#xe2;" horiz-adv-x="503" 
d="M432 0h-87v52q-60 -62 -146 -62q-34 0 -70 14.5t-60.5 51t-24.5 81.5q0 38 16 69t46 49q28 17 79.5 31t156.5 21v15q0 22 -5 43t-13 33q-23 33 -82 33q-47 0 -91 -15.5t-78 -45.5v83q34 29 82 44.5t96 15.5q120 0 161 -81q20 -40 20 -133v-299zM342 113v125
q-50 -3 -95.5 -10.5t-79.5 -26.5q-16 -9 -25 -26t-9 -34q0 -22 12 -41.5t34.5 -28t45.5 -8.5q64 0 117 50zM176 575h-76l122 166h59l122 -166h-77l-76 90z" />
    <glyph glyph-name="atilde" unicode="&#xe3;" horiz-adv-x="503" 
d="M432 0h-87v52q-60 -62 -146 -62q-34 0 -70 14.5t-60.5 51t-24.5 81.5q0 38 16 69t46 49q28 17 79.5 31t156.5 21v15q0 22 -5 43t-13 33q-23 33 -82 33q-47 0 -91 -15.5t-78 -45.5v83q34 29 82 44.5t96 15.5q120 0 161 -81q20 -40 20 -133v-299zM342 113v125
q-50 -3 -95.5 -10.5t-79.5 -26.5q-16 -9 -25 -26t-9 -34q0 -22 12 -41.5t34.5 -28t45.5 -8.5q64 0 117 50zM149 595h-58q5 60 32 95t61 35q7 0 21.5 -3.5t50.5 -27.5q35 -25 52 -25q31 0 38 56h55q-3 -61 -28 -95t-59 -34q-7 0 -24 3t-53 28q-21 15 -31 19.5t-19 4.5
q-28 0 -38 -56z" />
    <glyph glyph-name="adieresis" unicode="&#xe4;" horiz-adv-x="503" 
d="M432 0h-87v52q-60 -62 -146 -62q-34 0 -70 14.5t-60.5 51t-24.5 81.5q0 38 16 69t46 49q28 17 79.5 31t156.5 21v15q0 22 -5 43t-13 33q-23 33 -82 33q-47 0 -91 -15.5t-78 -45.5v83q34 29 82 44.5t96 15.5q120 0 161 -81q20 -40 20 -133v-299zM342 113v125
q-50 -3 -95.5 -10.5t-79.5 -26.5q-16 -9 -25 -26t-9 -34q0 -22 12 -41.5t34.5 -28t45.5 -8.5q64 0 117 50zM222 659q0 -23 -15 -38.5t-37 -15.5q-23 0 -37 15t-14 38t14.5 38.5t37.5 15.5t37 -15t14 -38zM386 659q0 -23 -15 -38.5t-37 -15.5q-23 0 -37 15t-14 38t14.5 38.5
t37.5 15.5t37 -15t14 -38z" />
    <glyph glyph-name="aring" unicode="&#xe5;" horiz-adv-x="503" 
d="M432 0h-87v52q-60 -62 -146 -62q-34 0 -70 14.5t-60.5 51t-24.5 81.5q0 38 16 69t46 49q28 17 79.5 31t156.5 21v15q0 22 -5 43t-13 33q-23 33 -82 33q-47 0 -91 -15.5t-78 -45.5v83q34 29 82 44.5t96 15.5q120 0 161 -81q20 -40 20 -133v-299zM342 113v125
q-50 -3 -95.5 -10.5t-79.5 -26.5q-16 -9 -25 -26t-9 -34q0 -22 12 -41.5t34.5 -28t45.5 -8.5q64 0 117 50zM346 670q0 -39 -28 -67t-68 -28q-29 0 -52 16t-32 38t-9 41q0 20 9 42.5t33 38t54 15.5q41 0 67 -27t26 -69zM306 671q0 27 -15.5 43.5t-40.5 16.5
q-23 0 -38.5 -17.5t-15.5 -43.5q0 -25 15.5 -42.5t41.5 -17.5q23 0 38 18t15 43z" />
    <glyph glyph-name="ae" unicode="&#xe6;" horiz-adv-x="815" 
d="M776 36q-89 -48 -181 -48q-128 0 -188 77q-85 -76 -195 -76q-40 0 -79.5 15t-64 52t-24.5 82q0 82 66 119q71 41 240 47v15q0 53 -21 81q-24 31 -86 31q-91 0 -170 -61v82q34 29 81.5 45t94.5 16q119 0 155 -81q66 81 172 81q53 0 92.5 -17.5t64.5 -50t37 -77.5t12 -99
v-36h-344q0 -17 5.5 -43t14.5 -43q10 -20 30 -39t53 -29t72 -10q40 0 84 15t79 41v-89zM372 121q-19 43 -23 113q-134 -2 -182 -30q-34 -20 -34 -62q0 -32 23.5 -55.5t72.5 -23.5q76 0 143 58zM438 304h250q-2 44 -11.5 72t-34 45t-69.5 17q-27 0 -58 -12t-53.5 -43.5
t-23.5 -78.5z" />
    <glyph glyph-name="ccedilla" unicode="&#xe7;" horiz-adv-x="467" 
d="M170 -240v55q10 -7 29 -12.5t42 -5.5q14 0 27.5 5t20.5 16.5t7 25.5q0 19 -16 31.5t-46 12.5q-23 0 -40 -6l30 112q-86 18 -135 85.5t-49 169.5q0 56 18.5 105t52.5 84.5t81 55t100 19.5q91 0 142 -40v-94q-31 25 -61.5 37t-69.5 12q-48 0 -88 -23t-59.5 -65t-19.5 -86
q0 -32 8.5 -64.5t32 -61t58 -41.5t69.5 -13q37 0 70.5 12.5t61.5 30.5v-90q-63 -39 -151 -39h-10l-14 -51l13 1q42 0 66 -25.5t24 -67.5q0 -50 -33.5 -76.5t-88.5 -26.5q-19 0 -40 5t-32 13z" />
    <glyph glyph-name="egrave" unicode="&#xe8;" horiz-adv-x="514" 
d="M472 34q-78 -46 -178 -46q-119 0 -186.5 70t-67.5 195q0 28 6 62.5t21.5 68t43.5 63t71 48t91 18.5q67 0 112 -27.5t70.5 -82t25.5 -137.5v-36h-345q1 -51 21.5 -85t59.5 -53t95 -19q39 0 84 13.5t76 37.5v-90zM137 301h248q0 70 -28 103.5t-85 33.5q-23 0 -46.5 -7.5
t-44.5 -27t-32 -48.5t-12 -54zM345 578h-78l-144 170h108z" />
    <glyph glyph-name="eacute" unicode="&#xe9;" horiz-adv-x="514" 
d="M472 34q-78 -46 -178 -46q-119 0 -186.5 70t-67.5 195q0 28 6 62.5t21.5 68t43.5 63t71 48t91 18.5q67 0 112 -27.5t70.5 -82t25.5 -137.5v-36h-345q1 -51 21.5 -85t59.5 -53t95 -19q39 0 84 13.5t76 37.5v-90zM137 301h248q0 70 -28 103.5t-85 33.5q-23 0 -46.5 -7.5
t-44.5 -27t-32 -48.5t-12 -54zM273 578h-78l114 170h108z" />
    <glyph glyph-name="ecircumflex" unicode="&#xea;" horiz-adv-x="514" 
d="M472 34q-78 -46 -178 -46q-119 0 -186.5 70t-67.5 195q0 28 6 62.5t21.5 68t43.5 63t71 48t91 18.5q67 0 112 -27.5t70.5 -82t25.5 -137.5v-36h-345q1 -51 21.5 -85t59.5 -53t95 -19q39 0 84 13.5t76 37.5v-90zM137 301h248q0 70 -28 103.5t-85 33.5q-23 0 -46.5 -7.5
t-44.5 -27t-32 -48.5t-12 -54zM196 575h-76l122 166h59l122 -166h-77l-76 90z" />
    <glyph glyph-name="edieresis" unicode="&#xeb;" horiz-adv-x="514" 
d="M472 34q-78 -46 -178 -46q-119 0 -186.5 70t-67.5 195q0 28 6 62.5t21.5 68t43.5 63t71 48t91 18.5q67 0 112 -27.5t70.5 -82t25.5 -137.5v-36h-345q1 -51 21.5 -85t59.5 -53t95 -19q39 0 84 13.5t76 37.5v-90zM137 301h248q0 70 -28 103.5t-85 33.5q-23 0 -46.5 -7.5
t-44.5 -27t-32 -48.5t-12 -54zM241 659q0 -23 -15 -38.5t-37 -15.5q-23 0 -37 15t-14 38t14.5 38.5t37.5 15.5t37 -15t14 -38zM405 659q0 -23 -15 -38.5t-37 -15.5q-23 0 -37 15t-14 38t14.5 38.5t37.5 15.5t37 -15t14 -38z" />
    <glyph glyph-name="igrave" unicode="&#xec;" horiz-adv-x="244" 
d="M198 578h-78l-144 170h108zM168 0h-92v500h92v-500z" />
    <glyph glyph-name="iacute" unicode="&#xed;" horiz-adv-x="244" 
d="M129 578h-78l114 170h108zM168 0h-92v500h92v-500z" />
    <glyph glyph-name="icircumflex" unicode="&#xee;" horiz-adv-x="244" 
d="M168 0h-92v500h92v-500zM46 575h-76l122 166h59l122 -166h-77l-76 90z" />
    <glyph glyph-name="idieresis" unicode="&#xef;" horiz-adv-x="244" 
d="M91 659q0 -23 -15 -38.5t-37 -15.5q-23 0 -37 15t-14 38t14.5 38.5t37.5 15.5t37 -15t14 -38zM255 659q0 -23 -15 -38.5t-37 -15.5q-23 0 -37 15t-14 38t14.5 38.5t37.5 15.5t37 -15t14 -38zM168 0h-92v500h92v-500z" />
    <glyph glyph-name="eth" unicode="&#xf0;" horiz-adv-x="566" 
d="M476 681l-78 -51q56 -69 86.5 -164t30.5 -202q0 -65 -17.5 -117.5t-49.5 -87.5t-76 -53t-95 -18q-49 0 -92.5 17.5t-76 51t-50.5 82.5t-18 109q0 43 11.5 87t39 80t71 59t100.5 23q46 0 84.5 -16.5t59.5 -48.5q-8 39 -27 81.5t-44 74.5l-87 -56l-26 44l78 51
q-24 23 -56 43t-63 31l28 58q84 -23 154 -90l86 56zM423 250q0 86 -38.5 132t-106.5 46q-63 0 -104 -47t-41 -130q0 -85 39.5 -133t105.5 -48q67 0 106 47.5t39 132.5z" />
    <glyph glyph-name="ntilde" unicode="&#xf1;" horiz-adv-x="555" 
d="M168 0h-92v500h90v-61q23 31 68 52t92 21q119 0 146 -106q10 -39 10 -131v-275h-93v273q0 81 -10 109q-18 48 -83 48q-36 0 -73.5 -19.5t-54.5 -48.5v-362zM177 595h-58q5 60 32 95t61 35q7 0 21.5 -3.5t50.5 -27.5q35 -25 52 -25q31 0 38 56h55q-3 -61 -28 -95t-59 -34
q-7 0 -24 3t-53 28q-21 15 -31 19.5t-19 4.5q-28 0 -38 -56z" />
    <glyph glyph-name="ograve" unicode="&#xf2;" horiz-adv-x="555" 
d="M515 253q0 -122 -64.5 -193.5t-172.5 -71.5q-54 0 -98.5 18.5t-75.5 53.5t-47.5 83t-16.5 105q0 56 17 105t49 85t76.5 55.5t97.5 19.5t97.5 -19t75 -53.5t46.5 -83t16 -104.5zM423 251q0 87 -37.5 134.5t-106.5 47.5q-65 0 -105.5 -49t-40.5 -135q0 -85 39 -133t106 -48
q69 0 107 47.5t38 135.5zM353 578h-78l-144 170h108z" />
    <glyph glyph-name="oacute" unicode="&#xf3;" horiz-adv-x="555" 
d="M515 253q0 -122 -64.5 -193.5t-172.5 -71.5q-54 0 -98.5 18.5t-75.5 53.5t-47.5 83t-16.5 105q0 56 17 105t49 85t76.5 55.5t97.5 19.5t97.5 -19t75 -53.5t46.5 -83t16 -104.5zM423 251q0 87 -37.5 134.5t-106.5 47.5q-65 0 -105.5 -49t-40.5 -135q0 -85 39 -133t106 -48
q69 0 107 47.5t38 135.5zM270 578h-78l114 170h108z" />
    <glyph glyph-name="ocircumflex" unicode="&#xf4;" horiz-adv-x="555" 
d="M515 253q0 -122 -64.5 -193.5t-172.5 -71.5q-54 0 -98.5 18.5t-75.5 53.5t-47.5 83t-16.5 105q0 56 17 105t49 85t76.5 55.5t97.5 19.5t97.5 -19t75 -53.5t46.5 -83t16 -104.5zM423 251q0 87 -37.5 134.5t-106.5 47.5q-65 0 -105.5 -49t-40.5 -135q0 -85 39 -133t106 -48
q69 0 107 47.5t38 135.5zM202 575h-76l122 166h59l122 -166h-77l-76 90z" />
    <glyph glyph-name="otilde" unicode="&#xf5;" horiz-adv-x="555" 
d="M515 253q0 -122 -64.5 -193.5t-172.5 -71.5q-54 0 -98.5 18.5t-75.5 53.5t-47.5 83t-16.5 105q0 56 17 105t49 85t76.5 55.5t97.5 19.5t97.5 -19t75 -53.5t46.5 -83t16 -104.5zM423 251q0 87 -37.5 134.5t-106.5 47.5q-65 0 -105.5 -49t-40.5 -135q0 -85 39 -133t106 -48
q69 0 107 47.5t38 135.5zM180 595h-58q5 60 32 95t61 35q7 0 21.5 -3.5t50.5 -27.5q35 -25 52 -25q31 0 38 56h55q-3 -61 -28 -95t-59 -34q-7 0 -24 3t-53 28q-21 15 -31 19.5t-19 4.5q-28 0 -38 -56z" />
    <glyph glyph-name="odieresis" unicode="&#xf6;" horiz-adv-x="555" 
d="M515 253q0 -122 -64.5 -193.5t-172.5 -71.5q-54 0 -98.5 18.5t-75.5 53.5t-47.5 83t-16.5 105q0 56 17 105t49 85t76.5 55.5t97.5 19.5t97.5 -19t75 -53.5t46.5 -83t16 -104.5zM423 251q0 87 -37.5 134.5t-106.5 47.5q-65 0 -105.5 -49t-40.5 -135q0 -85 39 -133t106 -48
q69 0 107 47.5t38 135.5zM246 659q0 -23 -15 -38.5t-37 -15.5q-23 0 -37 15t-14 38t14.5 38.5t37.5 15.5t37 -15t14 -38zM410 659q0 -23 -15 -38.5t-37 -15.5q-23 0 -37 15t-14 38t14.5 38.5t37.5 15.5t37 -15t14 -38z" />
    <glyph glyph-name="divide" unicode="&#xf7;" horiz-adv-x="701" 
d="M601 262h-501v66h501v-66zM398 456q0 -22 -14.5 -37t-35.5 -15q-20 0 -33.5 15t-13.5 36q0 22 14 37t35 15t34.5 -14.5t13.5 -36.5zM398 133q0 -22 -14.5 -37.5t-35.5 -15.5q-20 0 -33.5 15t-13.5 36q0 22 14 37t35 15t34.5 -14.5t13.5 -35.5z" />
    <glyph glyph-name="oslash" unicode="&#xf8;" horiz-adv-x="555" 
d="M105 -51l-46 32l50 73q-33 34 -51 84.5t-18 109.5q0 56 17 105t49 84.5t76.5 55t97.5 19.5q33 0 66.5 -9t57.5 -23l50 72l46 -32l-52 -75q32 -34 49.5 -84t17.5 -108q0 -122 -64.5 -193.5t-172.5 -71.5q-33 0 -66.5 8.5t-58.5 22.5zM133 249q0 -34 8 -66t21 -53l194 280
q-32 20 -77 20q-65 0 -105.5 -47.5t-40.5 -133.5zM423 251q0 34 -7.5 65.5t-20.5 52.5l-193 -279q32 -20 76 -20q69 0 107 46.5t38 134.5z" />
    <glyph glyph-name="ugrave" unicode="&#xf9;" horiz-adv-x="555" 
d="M479 0h-92v60q-26 -33 -65.5 -52.5t-89.5 -19.5q-113 0 -142 86q-7 21 -12 52.5t-5 98.5v275h92v-273q0 -78 10 -102q11 -28 31.5 -41.5t59.5 -13.5q36 0 67 18t53 48v364h93v-500zM357 578h-78l-144 170h108z" />
    <glyph glyph-name="uacute" unicode="&#xfa;" horiz-adv-x="555" 
d="M479 0h-92v60q-26 -33 -65.5 -52.5t-89.5 -19.5q-113 0 -142 86q-7 21 -12 52.5t-5 98.5v275h92v-273q0 -78 10 -102q11 -28 31.5 -41.5t59.5 -13.5q36 0 67 18t53 48v364h93v-500zM284 578h-78l114 170h108z" />
    <glyph glyph-name="ucircumflex" unicode="&#xfb;" horiz-adv-x="555" 
d="M479 0h-92v60q-26 -33 -65.5 -52.5t-89.5 -19.5q-113 0 -142 86q-7 21 -12 52.5t-5 98.5v275h92v-273q0 -78 10 -102q11 -28 31.5 -41.5t59.5 -13.5q36 0 67 18t53 48v364h93v-500zM205 575h-76l122 166h59l122 -166h-77l-76 90z" />
    <glyph glyph-name="udieresis" unicode="&#xfc;" horiz-adv-x="555" 
d="M479 0h-92v60q-26 -33 -65.5 -52.5t-89.5 -19.5q-113 0 -142 86q-7 21 -12 52.5t-5 98.5v275h92v-273q0 -78 10 -102q11 -28 31.5 -41.5t59.5 -13.5q36 0 67 18t53 48v364h93v-500zM254 659q0 -23 -15 -38.5t-37 -15.5q-23 0 -37 15t-14 38t14.5 38.5t37.5 15.5t37 -15
t14 -38zM418 659q0 -23 -15 -38.5t-37 -15.5q-23 0 -37 15t-14 38t14.5 38.5t37.5 15.5t37 -15t14 -38z" />
    <glyph glyph-name="yacute" unicode="&#xfd;" horiz-adv-x="504" 
d="M216 -237h-101l98 250l-209 487h103q136 -322 156 -378q29 90 139 378h98zM270 578h-78l114 170h108z" />
    <glyph glyph-name="thorn" unicode="&#xfe;" horiz-adv-x="563" 
d="M168 -237h-92v984h92v-299q22 27 62.5 45.5t82.5 18.5q37 0 74.5 -12t71 -45.5t49 -86t15.5 -108.5q0 -125 -62.5 -197.5t-171.5 -72.5q-33 0 -66 7t-55 23v-257zM168 103q15 -17 47.5 -27.5t60.5 -10.5q47 0 80 22t52 64t19 104q0 86 -36 133.5t-104 47.5
q-35 0 -70 -19.5t-49 -42.5v-271z" />
    <glyph glyph-name="ydieresis" unicode="&#xff;" horiz-adv-x="504" 
d="M216 -237h-101l98 250l-209 487h103q136 -322 156 -378q29 90 139 378h98zM222 659q0 -23 -15 -38.5t-37 -15.5q-23 0 -37 15t-14 38t14.5 38.5t37.5 15.5t37 -15t14 -38zM386 659q0 -23 -15 -38.5t-37 -15.5q-23 0 -37 15t-14 38t14.5 38.5t37.5 15.5t37 -15t14 -38z
" />
    <glyph glyph-name="Amacron" unicode="&#x100;" horiz-adv-x="651" 
d="M112 0h-109l273 706h95l273 -706h-106l-80 201h-268zM221 292h205q-78 205 -102 282q-17 -50 -103 -282zM457 789h-267v70h267v-70z" />
    <glyph glyph-name="amacron" unicode="&#x101;" horiz-adv-x="503" 
d="M432 0h-87v52q-60 -62 -146 -62q-34 0 -70 14.5t-60.5 51t-24.5 81.5q0 38 16 69t46 49q28 17 79.5 31t156.5 21v15q0 22 -5 43t-13 33q-23 33 -82 33q-47 0 -91 -15.5t-78 -45.5v83q34 29 82 44.5t96 15.5q120 0 161 -81q20 -40 20 -133v-299zM342 113v125
q-50 -3 -95.5 -10.5t-79.5 -26.5q-16 -9 -25 -26t-9 -34q0 -22 12 -41.5t34.5 -28t45.5 -8.5q64 0 117 50zM381 605h-256v69h256v-69z" />
    <glyph glyph-name="Abreve" unicode="&#x102;" horiz-adv-x="651" 
d="M112 0h-109l273 706h95l273 -706h-106l-80 201h-268zM221 292h205q-78 205 -102 282q-17 -50 -103 -282zM182 904h60q2 -22 11 -42.5t27.5 -30t42.5 -9.5q81 0 86 82h60q-1 -28 -10 -55.5t-27.5 -47.5t-46 -31t-63.5 -11q-68 0 -103.5 39t-36.5 106z" />
    <glyph glyph-name="abreve" unicode="&#x103;" horiz-adv-x="503" 
d="M432 0h-87v52q-60 -62 -146 -62q-34 0 -70 14.5t-60.5 51t-24.5 81.5q0 38 16 69t46 49q28 17 79.5 31t156.5 21v15q0 22 -5 43t-13 33q-23 33 -82 33q-47 0 -91 -15.5t-78 -45.5v83q34 29 82 44.5t96 15.5q120 0 161 -81q20 -40 20 -133v-299zM342 113v125
q-50 -3 -95.5 -10.5t-79.5 -26.5q-16 -9 -25 -26t-9 -34q0 -22 12 -41.5t34.5 -28t45.5 -8.5q64 0 117 50zM114 717h58q2 -40 22 -63.5t55 -23.5q36 0 57.5 22t24.5 65h57q-1 -29 -12.5 -65.5t-44.5 -61.5t-83 -25q-64 0 -98.5 42t-35.5 110z" />
    <glyph glyph-name="Aogonek" unicode="&#x104;" horiz-adv-x="651" 
d="M114 0h-109l273 706h95l273 -706h-45q-103 -72 -103 -139q0 -29 17 -47.5t47 -18.5q33 0 64 18v-53q-15 -10 -36.5 -16.5t-39.5 -6.5q-57 0 -88.5 28.5t-31.5 85.5q0 43 29 83.5t79 68.5l-78 198h-268zM223 292h205q-78 205 -102 282q-17 -50 -103 -282z" />
    <glyph glyph-name="aogonek" unicode="&#x105;" horiz-adv-x="503" 
d="M432 0h-23q-49 -34 -73 -65.5t-24 -65.5q0 -29 16.5 -46.5t46.5 -17.5q31 0 62 17v-51q-14 -10 -35 -16t-39 -6q-56 0 -87 27.5t-31 82.5q0 40 27 78t73 65v51q-61 -63 -146 -63q-34 0 -70 14.5t-60.5 51t-24.5 81.5q0 38 16 69t46 49q28 17 79.5 31t156.5 21v13
q0 21 -3 39.5t-15 36.5q-24 35 -82 35q-47 0 -91 -15.5t-78 -45.5v83q34 29 82 44.5t96 15.5q120 0 161 -81q20 -40 20 -133v-299zM342 112v126q-50 -3 -95.5 -10.5t-79.5 -26.5q-16 -9 -25 -26t-9 -34q0 -22 12 -41.5t34.5 -28t45.5 -8.5q65 0 117 49z" />
    <glyph glyph-name="Cacute" unicode="&#x106;" horiz-adv-x="655" 
d="M610 48q-88 -60 -223 -60q-72 0 -135 25t-110 72.5t-73 115t-26 148.5q0 80 26 149t73 118.5t111.5 76.5t137.5 27q141 0 220 -57v-108q-19 18 -49.5 36t-71.5 27.5t-81 9.5q-57 0 -105.5 -19t-83 -55.5t-53 -88t-18.5 -114.5q0 -64 20.5 -115.5t56.5 -86t84 -52
t101 -17.5q107 0 199 66v-98zM375 757h-95l133 137h126z" />
    <glyph glyph-name="cacute" unicode="&#x107;" horiz-adv-x="467" 
d="M436 27q-63 -39 -151 -39q-55 0 -100.5 18.5t-78 52.5t-49.5 83t-17 107q0 56 18.5 105t52.5 84.5t81 55t100 19.5q91 0 142 -40v-92q-30 25 -61 37t-70 12q-48 0 -88 -23.5t-59.5 -66t-19.5 -86.5q0 -54 19.5 -93t57 -62t91.5 -23q37 0 70.5 12.5t61.5 30.5v-92z
M274 578h-78l114 170h108z" />
    <glyph glyph-name="Ccircumflex" unicode="&#x108;" horiz-adv-x="655" 
d="M610 48q-88 -60 -223 -60q-72 0 -135 25t-110 72.5t-73 115t-26 148.5q0 80 26 149t73 118.5t111.5 76.5t137.5 27q141 0 220 -57v-108q-19 18 -49.5 36t-71.5 27.5t-81 9.5q-57 0 -105.5 -19t-83 -55.5t-53 -88t-18.5 -114.5q0 -64 20.5 -115.5t56.5 -86t84 -52
t101 -17.5q107 0 199 66v-98zM306 760h-83l127 137h73l128 -137h-84l-82 67z" />
    <glyph glyph-name="ccircumflex" unicode="&#x109;" horiz-adv-x="467" 
d="M436 27q-63 -39 -151 -39q-55 0 -100.5 18.5t-78 52.5t-49.5 83t-17 107q0 56 18.5 105t52.5 84.5t81 55t100 19.5q91 0 142 -40v-95q-30 25 -61 37t-70 12q-49 0 -85.5 -20.5t-59 -59.5t-22.5 -93t19.5 -93.5t56.5 -63t89 -23.5q37 0 72.5 12.5t62.5 30.5v-90zM205 575
h-76l122 166h59l122 -166h-77l-76 90z" />
    <glyph glyph-name="Cdotaccent" unicode="&#x10a;" horiz-adv-x="655" 
d="M610 48q-88 -60 -223 -60q-72 0 -135 25t-110 72.5t-73 115t-26 148.5q0 80 26 149t73 118.5t111.5 76.5t137.5 27q141 0 220 -57v-108q-19 18 -49.5 36t-71.5 27.5t-81 9.5q-57 0 -105.5 -19t-83 -55.5t-53 -88t-18.5 -114.5q0 -64 20.5 -115.5t56.5 -86t84 -52
t101 -17.5q107 0 199 66v-98zM415 829q0 -23 -15 -38.5t-37 -15.5q-23 0 -37 15t-14 38t14.5 38.5t37.5 15.5t37 -15t14 -38z" />
    <glyph glyph-name="cdotaccent" unicode="&#x10b;" horiz-adv-x="467" 
d="M436 27q-63 -39 -151 -39q-55 0 -100.5 18.5t-78 52.5t-49.5 83t-17 107q0 56 18.5 105t52.5 84.5t81 55t100 19.5q91 0 142 -40v-95q-30 25 -61 37t-70 12q-49 0 -85.5 -20.5t-59 -59.5t-22.5 -93t19.5 -93.5t56.5 -63t89 -23.5q37 0 72.5 12.5t62.5 30.5v-90zM337 659
q0 -23 -15 -38.5t-37 -15.5q-23 0 -37 15t-14 38t14.5 38.5t37.5 15.5t37 -15t14 -38z" />
    <glyph glyph-name="Ccaron" unicode="&#x10c;" horiz-adv-x="655" 
d="M610 48q-88 -60 -223 -60q-72 0 -135 25t-110 72.5t-73 115t-26 148.5q0 80 26 149t73 118.5t111.5 76.5t137.5 27q141 0 220 -57v-108q-19 18 -49.5 36t-71.5 27.5t-81 9.5q-57 0 -105.5 -19t-83 -55.5t-53 -88t-18.5 -114.5q0 -64 20.5 -115.5t56.5 -86t84 -52
t101 -17.5q107 0 199 66v-98zM443 897h83l-127 -137h-73l-128 137h84l82 -67z" />
    <glyph glyph-name="ccaron" unicode="&#x10d;" horiz-adv-x="467" 
d="M436 27q-63 -39 -151 -39q-55 0 -100.5 18.5t-78 52.5t-49.5 83t-17 107q0 56 18.5 105t52.5 84.5t81 55t100 19.5q91 0 142 -40v-95q-30 25 -61 37t-70 12q-49 0 -85.5 -20.5t-59 -59.5t-22.5 -93t19.5 -93.5t56.5 -63t89 -23.5q37 0 72.5 12.5t62.5 30.5v-90zM346 745
h76l-122 -166h-59l-122 166h77l76 -90z" />
    <glyph glyph-name="Dcaron" unicode="&#x10e;" horiz-adv-x="713" 
d="M87 0v706h170q155 0 227 -32q92 -39 138.5 -119t46.5 -195q0 -120 -51.5 -205t-153.5 -124q-82 -31 -229 -31h-148zM189 95h68q44 0 95.5 6t83.5 21q45 22 76 61.5t41.5 85t10.5 88.5q0 76 -29.5 135t-89.5 91q-20 11 -62 19.5t-106 8.5h-88v-516zM389 897h83l-127 -137
h-73l-128 137h84l82 -67z" />
    <glyph glyph-name="dcaron" unicode="&#x10f;" horiz-adv-x="567" 
d="M490 0h-91v50q-26 -29 -67 -45.5t-88 -16.5q-95 0 -151 68.5t-56 182.5q0 59 15.5 109t45.5 87t74.5 57t100.5 20q38 0 72 -11t52 -30v276h93v-747zM397 123v264q-14 22 -44 36t-66 14q-49 0 -83.5 -24.5t-53 -66.5t-18.5 -101q0 -60 17.5 -99.5t48 -60.5t72.5 -21
q38 0 73.5 17.5t53.5 41.5zM602 519h-67q68 99 68 229h80q0 -69 -21.5 -128t-59.5 -101z" />
    <glyph glyph-name="Dcroat" unicode="&#x110;" horiz-adv-x="713" 
d="M87 0v333h-76v64h76v309h170q155 0 227 -32q92 -39 138.5 -119t46.5 -195q0 -120 -51.5 -205t-153.5 -124q-82 -31 -229 -31h-148zM189 95h68q44 0 95.5 6t83.5 21q45 22 76 61.5t41.5 85t10.5 88.5q0 76 -29.5 135t-89.5 91q-20 11 -62 19.5t-106 8.5h-88v-214h180v-64
h-180v-238z" />
    <glyph glyph-name="dcroat" unicode="&#x111;" horiz-adv-x="567" 
d="M490 0h-91v50q-26 -29 -67 -45.5t-88 -16.5q-95 0 -151 68.5t-56 182.5q0 59 15.5 109t45.5 87t74.5 57t100.5 20q38 0 72 -11t52 -30v104h-129v62h129v110h93v-110h68v-62h-68v-575zM397 123v264q-14 22 -44 36t-66 14q-49 0 -83.5 -24.5t-53 -66.5t-18.5 -101
q0 -60 17.5 -99.5t48 -60.5t72.5 -21q38 0 73.5 17.5t53.5 41.5z" />
    <glyph glyph-name="Emacron" unicode="&#x112;" horiz-adv-x="543" 
d="M505 0h-418v706h401v-95h-299v-199h279v-95h-279v-222h316v-95zM426 789h-267v70h267v-70z" />
    <glyph glyph-name="emacron" unicode="&#x113;" horiz-adv-x="514" 
d="M472 34q-78 -46 -178 -46q-119 0 -186.5 70t-67.5 195q0 28 6 62.5t21.5 68t43.5 63t71 48t91 18.5q67 0 112 -27.5t70.5 -82t25.5 -137.5v-36h-345q1 -51 21.5 -85t59.5 -53t95 -19q39 0 84 13.5t76 37.5v-90zM137 301h248q0 70 -28 103.5t-85 33.5q-23 0 -46.5 -7.5
t-44.5 -27t-32 -48.5t-12 -54zM397 605h-256v69h256v-69z" />
    <glyph glyph-name="Ebreve" unicode="&#x114;" horiz-adv-x="543" 
d="M505 0h-418v706h401v-95h-299v-199h279v-95h-279v-222h316v-95zM151 904h60q2 -22 11 -42.5t27.5 -30t42.5 -9.5q81 0 86 82h60q-1 -28 -10 -55.5t-27.5 -47.5t-46 -31t-63.5 -11q-68 0 -103.5 39t-36.5 106z" />
    <glyph glyph-name="ebreve" unicode="&#x115;" horiz-adv-x="514" 
d="M472 34q-78 -46 -178 -46q-119 0 -186.5 70t-67.5 195q0 28 6 62.5t21.5 68t43.5 63t71 48t91 18.5q67 0 112 -27.5t70.5 -82t25.5 -137.5v-36h-345q1 -51 21.5 -85t59.5 -53t95 -19q39 0 84 13.5t76 37.5v-90zM137 301h248q0 70 -28 103.5t-85 33.5q-23 0 -46.5 -7.5
t-44.5 -27t-32 -48.5t-12 -54zM130 717h58q2 -40 22 -63.5t55 -23.5q36 0 57.5 22t24.5 65h57q-1 -29 -12.5 -65.5t-44.5 -61.5t-83 -25q-64 0 -98.5 42t-35.5 110z" />
    <glyph glyph-name="Edotaccent" unicode="&#x116;" horiz-adv-x="543" 
d="M505 0h-418v706h401v-95h-299v-199h279v-95h-279v-222h316v-95zM348 829q0 -23 -15 -38.5t-37 -15.5q-23 0 -37 15t-14 38t14.5 38.5t37.5 15.5t37 -15t14 -38z" />
    <glyph glyph-name="edotaccent" unicode="&#x117;" horiz-adv-x="514" 
d="M472 34q-78 -46 -178 -46q-119 0 -186.5 70t-67.5 195q0 28 6 62.5t21.5 68t43.5 63t71 48t91 18.5q67 0 112 -27.5t70.5 -82t25.5 -137.5v-36h-345q1 -51 21.5 -85t59.5 -53t95 -19q39 0 84 13.5t76 37.5v-90zM137 301h248q0 70 -28 103.5t-85 33.5q-23 0 -46.5 -7.5
t-44.5 -27t-32 -48.5t-12 -54zM319 659q0 -23 -15 -38.5t-37 -15.5q-23 0 -37 15t-14 38t14.5 38.5t37.5 15.5t37 -15t14 -38z" />
    <glyph glyph-name="Eogonek" unicode="&#x118;" horiz-adv-x="543" 
d="M505 0h-28q-103 -72 -103 -139q0 -29 17 -47.5t47 -18.5q33 0 64 18v-53q-15 -10 -36.5 -16.5t-39.5 -6.5q-57 0 -88.5 28.5t-31.5 85.5q0 42 27.5 81.5t75.5 67.5h-322v706h401v-95h-299v-199h279v-95h-279v-222h316v-95z" />
    <glyph glyph-name="eogonek" unicode="&#x119;" horiz-adv-x="514" 
d="M472 34q-40 -23 -80 -34q-96 -67 -96 -131q0 -29 16.5 -46.5t46.5 -17.5q31 0 62 17v-51q-14 -10 -35 -16t-39 -6q-56 0 -87 27.5t-31 82.5q0 35 20.5 69t56.5 60h-12q-119 0 -186.5 70t-67.5 195q0 28 6 62.5t21.5 68t43.5 63t71 48t91 18.5q67 0 112 -27.5t70.5 -82
t25.5 -137.5v-36h-345q1 -51 21.5 -85t59.5 -53t95 -19q39 0 84 13.5t76 37.5v-90zM137 301h248q0 70 -28 103.5t-85 33.5q-23 0 -46.5 -7.5t-44.5 -27t-32 -48.5t-12 -54z" />
    <glyph glyph-name="Ecaron" unicode="&#x11a;" horiz-adv-x="543" 
d="M505 0h-418v706h401v-95h-299v-199h279v-95h-279v-222h316v-95zM367 897h83l-127 -137h-73l-128 137h84l82 -67z" />
    <glyph glyph-name="ecaron" unicode="&#x11b;" horiz-adv-x="514" 
d="M472 34q-78 -46 -178 -46q-119 0 -186.5 70t-67.5 195q0 28 6 62.5t21.5 68t43.5 63t71 48t91 18.5q67 0 112 -27.5t70.5 -82t25.5 -137.5v-36h-345q1 -51 21.5 -85t59.5 -53t95 -19q39 0 84 13.5t76 37.5v-90zM137 301h248q0 70 -28 103.5t-85 33.5q-23 0 -46.5 -7.5
t-44.5 -27t-32 -48.5t-12 -54zM342 745h76l-122 -166h-59l-122 166h77l76 -90z" />
    <glyph glyph-name="Gcircumflex" unicode="&#x11c;" horiz-adv-x="713" 
d="M649 48q-47 -26 -116.5 -43t-141.5 -17q-76 0 -141 26t-111 74t-71 115.5t-25 146.5q0 80 26 149t73 118.5t111.5 76t137.5 26.5q153 0 232 -58v-108q-78 74 -214 74q-58 0 -106.5 -20t-82.5 -57t-52.5 -88.5t-18.5 -111.5q0 -62 19 -113t54 -86t82 -53.5t101 -18.5
q82 0 144 28v159h-147v95h247v-314zM302 760h-83l127 137h73l128 -137h-84l-82 67z" />
    <glyph glyph-name="gcircumflex" unicode="&#x11d;" horiz-adv-x="501" 
d="M162 169q-28 9 -56.5 30t-45.5 56t-17 76q0 80 56 130t145 50q49 0 83 -11h160v-77h-79q13 -16 21 -39.5t8 -49.5q0 -99 -81 -142q-39 -20 -113 -36q-28 -6 -46 -20.5t-18 -31.5q0 -10 7.5 -18.5t21.5 -11.5q17 -4 73.5 -8t78.5 -7q35 -5 65 -19.5t46 -44.5t16 -66
q0 -37 -18.5 -70t-52 -57t-81 -37t-102.5 -13q-72 0 -119 19t-70.5 49t-23.5 69q0 21 11 44.5t40.5 44.5t69.5 35q-28 9 -41.5 26t-13.5 39q0 53 76 91zM347 331q0 36 -15 61t-41 34.5t-51 9.5q-22 0 -47.5 -9.5t-42.5 -35t-17 -59.5q0 -32 16.5 -56t42 -33t47.5 -9
q48 0 78 26t30 71zM394 -86q0 17 -8 31.5t-40 25.5q-19 6 -54 10t-65 4q-25 0 -53.5 -8t-47 -28.5t-18.5 -44.5q0 -34 34 -55t98 -21q65 0 109.5 25.5t44.5 60.5zM169 575h-76l122 166h59l122 -166h-77l-76 90z" />
    <glyph glyph-name="Gbreve" unicode="&#x11e;" horiz-adv-x="713" 
d="M649 48q-47 -26 -116.5 -43t-141.5 -17q-76 0 -141 26t-111 74t-71 115.5t-25 146.5q0 80 26 149t73 118.5t111.5 76t137.5 26.5q153 0 232 -58v-108q-78 74 -214 74q-58 0 -106.5 -20t-82.5 -57t-52.5 -88.5t-18.5 -111.5q0 -62 19 -113t54 -86t82 -53.5t101 -18.5
q82 0 144 28v159h-147v95h247v-314zM225 904h60q2 -22 11 -42.5t27.5 -30t42.5 -9.5q81 0 86 82h60q-1 -28 -10 -55.5t-27.5 -47.5t-46 -31t-63.5 -11q-68 0 -103.5 39t-36.5 106z" />
    <glyph glyph-name="gbreve" unicode="&#x11f;" horiz-adv-x="501" 
d="M162 169q-28 9 -56.5 30t-45.5 56t-17 76q0 80 56 130t145 50q49 0 83 -11h160v-77h-79q13 -16 21 -39.5t8 -49.5q0 -99 -81 -142q-39 -20 -113 -36q-28 -6 -46 -20.5t-18 -31.5q0 -10 7.5 -18.5t21.5 -11.5q17 -4 73.5 -8t78.5 -7q35 -5 65 -19.5t46 -44.5t16 -66
q0 -37 -18.5 -70t-52 -57t-81 -37t-102.5 -13q-72 0 -119 19t-70.5 49t-23.5 69q0 21 11 44.5t40.5 44.5t69.5 35q-28 9 -41.5 26t-13.5 39q0 53 76 91zM347 331q0 36 -15 61t-41 34.5t-51 9.5q-22 0 -47.5 -9.5t-42.5 -35t-17 -59.5q0 -32 16.5 -56t42 -33t47.5 -9
q48 0 78 26t30 71zM394 -86q0 17 -8 31.5t-40 25.5q-19 6 -54 10t-65 4q-25 0 -53.5 -8t-47 -28.5t-18.5 -44.5q0 -34 34 -55t98 -21q65 0 109.5 25.5t44.5 60.5zM110 717h58q2 -40 22 -63.5t55 -23.5q36 0 57.5 22t24.5 65h57q-1 -29 -12.5 -65.5t-44.5 -61.5t-83 -25
q-64 0 -98.5 42t-35.5 110z" />
    <glyph glyph-name="Gdotaccent" unicode="&#x120;" horiz-adv-x="713" 
d="M649 48q-47 -26 -116.5 -43t-141.5 -17q-76 0 -141 26t-111 74t-71 115.5t-25 146.5q0 80 26 149t73 118.5t111.5 76t137.5 26.5q153 0 232 -58v-108q-78 74 -214 74q-58 0 -106.5 -20t-82.5 -57t-52.5 -88.5t-18.5 -111.5q0 -62 19 -113t54 -86t82 -53.5t101 -18.5
q82 0 144 28v159h-147v95h247v-314zM427 829q0 -23 -15 -38.5t-37 -15.5q-23 0 -37 15t-14 38t14.5 38.5t37.5 15.5t37 -15t14 -38z" />
    <glyph glyph-name="gdotaccent" unicode="&#x121;" horiz-adv-x="501" 
d="M162 169q-28 9 -56.5 30t-45.5 56t-17 76q0 80 56 130t145 50q49 0 83 -11h160v-77h-79q13 -16 21 -39.5t8 -49.5q0 -99 -81 -142q-39 -20 -113 -36q-28 -6 -46 -20.5t-18 -31.5q0 -10 7.5 -18.5t21.5 -11.5q17 -4 73.5 -8t78.5 -7q35 -5 65 -19.5t46 -44.5t16 -66
q0 -37 -18.5 -70t-52 -57t-81 -37t-102.5 -13q-72 0 -119 19t-70.5 49t-23.5 69q0 21 11 44.5t40.5 44.5t69.5 35q-28 9 -41.5 26t-13.5 39q0 53 76 91zM347 331q0 36 -15 61t-41 34.5t-51 9.5q-22 0 -47.5 -9.5t-42.5 -35t-17 -59.5q0 -32 16.5 -56t42 -33t47.5 -9
q48 0 78 26t30 71zM394 -86q0 17 -8 31.5t-40 25.5q-19 6 -54 10t-65 4q-25 0 -53.5 -8t-47 -28.5t-18.5 -44.5q0 -34 34 -55t98 -21q65 0 109.5 25.5t44.5 60.5zM298 659q0 -23 -15 -38.5t-37 -15.5q-23 0 -37 15t-14 38t14.5 38.5t37.5 15.5t37 -15t14 -38z" />
    <glyph glyph-name="Gcommaaccent" unicode="&#x122;" horiz-adv-x="713" 
d="M649 48q-47 -26 -116.5 -43t-141.5 -17q-76 0 -141 26t-111 74t-71 115.5t-25 146.5q0 80 26 149t73 118.5t111.5 76t137.5 26.5q153 0 232 -58v-108q-78 74 -214 74q-58 0 -106.5 -20t-82.5 -57t-52.5 -88.5t-18.5 -111.5q0 -62 19 -113t54 -86t82 -53.5t101 -18.5
q82 0 144 28v159h-147v95h247v-314zM348 -294h-67q68 99 68 229h80q0 -69 -21.5 -128t-59.5 -101z" />
    <glyph glyph-name="gcommaaccent" unicode="&#x123;" horiz-adv-x="501" 
d="M293 810h66q-67 -97 -67 -229h-81q0 69 22 128t60 101zM162 169q-28 9 -56.5 30t-45.5 56t-17 76q0 80 56 130t145 50q49 0 83 -11h160v-77h-79q13 -16 21 -39.5t8 -49.5q0 -99 -81 -142q-39 -20 -113 -36q-28 -6 -46 -20.5t-18 -31.5q0 -10 7.5 -18.5t21.5 -11.5
q17 -4 73.5 -8t78.5 -7q35 -5 65 -19.5t46 -44.5t16 -66q0 -37 -18.5 -70t-52 -57t-81 -37t-102.5 -13q-72 0 -119 19t-70.5 49t-23.5 69q0 21 11 44.5t40.5 44.5t69.5 35q-28 9 -41.5 26t-13.5 39q0 53 76 91zM347 331q0 36 -15 61t-41 34.5t-51 9.5q-22 0 -47.5 -9.5
t-42.5 -35t-17 -59.5q0 -32 16.5 -56t42 -33t47.5 -9q48 0 78 26t30 71zM394 -86q0 17 -8 31.5t-40 25.5q-19 6 -54 10t-65 4q-25 0 -53.5 -8t-47 -28.5t-18.5 -44.5q0 -34 34 -55t98 -21q65 0 109.5 25.5t44.5 60.5z" />
    <glyph glyph-name="Hcircumflex" unicode="&#x124;" horiz-adv-x="712" 
d="M625 0h-101v317h-335v-317h-102v706h102v-294h335v294h101v-706zM271 760h-83l127 137h73l128 -137h-84l-82 67z" />
    <glyph glyph-name="hcircumflex" unicode="&#x125;" horiz-adv-x="552" 
d="M168 0h-92v747h92v-307q23 31 65.5 51.5t89.5 20.5q111 0 142 -86q7 -21 12 -52t5 -99v-275h-93v273q0 40 -1.5 67t-8.5 43q-19 47 -86 47q-37 0 -70.5 -18.5t-54.5 -49.5v-362zM60 774h-83l127 137h73l128 -137h-84l-82 67z" />
    <glyph glyph-name="Hbar" unicode="&#x126;" horiz-adv-x="712" 
d="M625 0h-101v314h-335v-314h-102v501h-75v64h75v141h102v-141h335v141h101v-141h76v-64h-76v-501zM189 403h335v98h-335v-98z" />
    <glyph glyph-name="hbar" unicode="&#x127;" horiz-adv-x="552" 
d="M168 0h-92v575h-64v62h64v110h92v-110h133v-62h-133v-135q23 31 65.5 51.5t89.5 20.5q111 0 142 -86q7 -21 12 -52t5 -99v-275h-93v273q0 40 -1.5 67t-8.5 43q-19 47 -86 47q-37 0 -70.5 -18.5t-54.5 -49.5v-362z" />
    <glyph glyph-name="Itilde" unicode="&#x128;" horiz-adv-x="276" 
d="M189 0h-102v706h102v-706zM33 762h-58q3 29 14.5 60t33.5 50t48 19q31 0 76 -31q21 -14 32.5 -19.5t22.5 -5.5q30 0 39 55h59q-5 -61 -30.5 -94t-60.5 -33q-8 0 -26 3.5t-57 28.5q-21 14 -30.5 18t-18.5 4q-15 0 -27.5 -15t-16.5 -40z" />
    <glyph glyph-name="itilde" unicode="&#x129;" horiz-adv-x="244" 
d="M23 595h-58q5 60 32 95t61 35q7 0 21.5 -3.5t50.5 -27.5q35 -25 52 -25q31 0 38 56h55q-3 -61 -28 -95t-59 -34q-7 0 -24 3t-53 28q-21 15 -31 19.5t-19 4.5q-28 0 -38 -56zM168 0h-92v500h92v-500z" />
    <glyph glyph-name="Imacron" unicode="&#x12a;" horiz-adv-x="276" 
d="M189 0h-102v706h102v-706zM272 789h-267v70h267v-70z" />
    <glyph glyph-name="imacron" unicode="&#x12b;" horiz-adv-x="244" 
d="M249 605h-256v69h256v-69zM168 0h-92v500h92v-500z" />
    <glyph glyph-name="Ibreve" unicode="&#x12c;" horiz-adv-x="276" 
d="M189 0h-102v706h102v-706zM-4 904h60q2 -22 11 -42.5t27.5 -30t42.5 -9.5q81 0 86 82h60q-1 -28 -10 -55.5t-27.5 -47.5t-46 -31t-63.5 -11q-68 0 -103.5 39t-36.5 106z" />
    <glyph glyph-name="ibreve" unicode="&#x12d;" horiz-adv-x="244" 
d="M168 0h-92v500h92v-500zM-15 717h58q2 -40 22 -63.5t55 -23.5q36 0 57.5 22t24.5 65h57q-1 -29 -12.5 -65.5t-44.5 -61.5t-83 -25q-64 0 -98.5 42t-35.5 110z" />
    <glyph glyph-name="Iogonek" unicode="&#x12e;" horiz-adv-x="276" 
d="M189 0h-17q-103 -72 -103 -139q0 -29 17 -47.5t47 -18.5q33 0 64 18v-53q-15 -10 -36.5 -16.5t-39.5 -6.5q-57 0 -88.5 28.5t-31.5 85.5q0 42 27.5 81.5t75.5 67.5h-17v706h102v-706z" />
    <glyph glyph-name="iogonek" unicode="&#x12f;" horiz-adv-x="244" 
d="M168 0h-16q-95 -67 -95 -131q0 -29 16.5 -46.5t46.5 -17.5q31 0 62 17v-51q-14 -10 -35 -16t-39 -6q-56 0 -87 27.5t-31 82.5q0 39 25.5 76.5t69.5 64.5h-9v500h92v-500zM179 659q0 -25 -16.5 -41.5t-41.5 -16.5q-24 0 -40 16t-16 40q0 25 17 42t41 17t40 -16.5t16 -40.5
z" />
    <glyph glyph-name="Idotaccent" unicode="&#x130;" horiz-adv-x="276" 
d="M189 0h-102v706h102v-706zM191 829q0 -23 -15 -38.5t-37 -15.5q-23 0 -37 15t-14 38t14.5 38.5t37.5 15.5t37 -15t14 -38z" />
    <glyph glyph-name="dotlessi" unicode="&#x131;" horiz-adv-x="244" 
d="M168 0h-92v500h92v-500z" />
    <glyph glyph-name="IJ" unicode="&#x132;" horiz-adv-x="554" 
d="M189 0h-102v706h102v-706zM273 -191l-35 81q74 36 99 66q27 32 27 106v644h102v-637q0 -113 -46 -165q-49 -55 -147 -95z" />
    <glyph glyph-name="ij" unicode="&#x133;" horiz-adv-x="488" 
d="M168 0h-92v500h92v-500zM179 659q0 -25 -16.5 -41.5t-41.5 -16.5q-24 0 -40 16t-16 40q0 25 17 42t41 17t40 -16.5t16 -40.5zM250 -238l-33 75q19 9 41 23.5t31 24.5q12 14 21.5 37.5t9.5 73.5v504h92v-510q0 -98 -33 -138q-40 -49 -129 -90zM423 659q0 -25 -16.5 -41.5
t-41.5 -16.5q-24 0 -40 16t-16 40q0 25 17 42t41 17t40 -16.5t16 -40.5z" />
    <glyph glyph-name="Jcircumflex" unicode="&#x134;" horiz-adv-x="278" 
d="M-2 -191l-35 81q74 36 99 66q27 32 27 106v644h102v-637q0 -113 -46 -165q-49 -55 -147 -95zM58 760h-83l127 137h73l128 -137h-84l-82 67z" />
    <glyph glyph-name="jcircumflex" unicode="&#x135;" horiz-adv-x="244" 
d="M6 -238l-32 74q19 9 41.5 23.5t31.5 24.5q12 14 20.5 35.5t8.5 71.5v509h92v-515q0 -50 -7 -81.5t-24 -51.5q-39 -49 -131 -90zM48 575h-76l122 166h59l122 -166h-77l-76 90z" />
    <glyph glyph-name="Kcommaaccent" unicode="&#x136;" horiz-adv-x="617" 
d="M189 0h-102v706h102v-312q71 87 270 312h123l-298 -332l329 -374h-130q-209 238 -294 341v-341zM282 -294h-67q68 99 68 229h80q0 -69 -21.5 -128t-59.5 -101z" />
    <glyph glyph-name="kcommaaccent" unicode="&#x137;" horiz-adv-x="512" 
d="M168 0h-92v747h92v-452q98 103 198 205h118l-226 -217l251 -283h-116q-166 185 -225 256v-256zM226 -294h-67q68 99 68 229h80q0 -69 -21.5 -128t-59.5 -101z" />
    <glyph glyph-name="kgreenlandic" unicode="&#x138;" horiz-adv-x="512" 
d="M168 0h-92v500h92v-207l202 207h114l-231 -226l256 -274h-116l-225 242v-242z" />
    <glyph glyph-name="Lacute" unicode="&#x139;" horiz-adv-x="524" 
d="M500 0h-413v706h102v-611h311v-95zM151 760h-95l133 137h126z" />
    <glyph glyph-name="lacute" unicode="&#x13a;" horiz-adv-x="244" 
d="M168 0h-92v747h92v-747zM134 780h-95l133 137h126z" />
    <glyph glyph-name="Lcommaaccent" unicode="&#x13b;" horiz-adv-x="524" 
d="M500 0h-413v706h102v-611h311v-95zM250 -294h-67q68 99 68 229h80q0 -69 -21.5 -128t-59.5 -101z" />
    <glyph glyph-name="lcommaaccent" unicode="&#x13c;" horiz-adv-x="244" 
d="M168 0h-92v747h92v-747zM84 -294h-67q68 99 68 229h80q0 -69 -21.5 -128t-59.5 -101z" />
    <glyph glyph-name="Lcaron" unicode="&#x13d;" horiz-adv-x="524" 
d="M500 0h-413v706h102v-611h311v-95zM332 479h-67q68 99 68 229h80q0 -69 -21.5 -128t-59.5 -101z" />
    <glyph glyph-name="lcaron" unicode="&#x13e;" horiz-adv-x="244" 
d="M168 0h-92v747h92v-747zM275 519h-67q68 99 68 229h80q0 -69 -21.5 -128t-59.5 -101z" />
    <glyph glyph-name="Ldot" unicode="&#x13f;" horiz-adv-x="524" 
d="M461 340q0 -28 -19.5 -47.5t-47.5 -19.5q-27 0 -45 19t-18 46q0 28 19 47t47 19q27 0 45.5 -18.5t18.5 -45.5zM500 0h-413v706h102v-611h311v-95z" />
    <glyph glyph-name="ldot" unicode="&#x140;" horiz-adv-x="337" 
d="M351 325q0 -27 -18 -45.5t-44 -18.5q-25 0 -42 18t-17 44q0 27 18 45t44 18q25 0 42 -17.5t17 -43.5zM168 0h-92v747h92v-747z" />
    <glyph glyph-name="Lslash" unicode="&#x141;" horiz-adv-x="524" 
d="M500 0h-413v271l-79 -52v75l79 52v360h102v-292l136 90v-75l-136 -90v-244h311v-95z" />
    <glyph glyph-name="lslash" unicode="&#x142;" horiz-adv-x="244" 
d="M168 0h-92v283l-72 -46v70l72 46v394h92v-334l73 47v-70l-73 -47v-343z" />
    <glyph glyph-name="Nacute" unicode="&#x143;" horiz-adv-x="732" 
d="M185 0h-98v706h91q10 -14 33 -46t160.5 -221.5t178.5 -251.5q-2 83 -2 519h97v-706h-84q-10 14 -33 46.5t-166.5 235t-178.5 256.5q2 -67 2 -538zM369 760h-95l133 137h126z" />
    <glyph glyph-name="nacute" unicode="&#x144;" horiz-adv-x="555" 
d="M168 0h-92v500h90v-61q23 31 68 52t92 21q119 0 146 -106q10 -39 10 -131v-275h-93v273q0 81 -10 109q-18 48 -83 48q-36 0 -73.5 -19.5t-54.5 -48.5v-362zM290 578h-78l114 170h108z" />
    <glyph glyph-name="Ncommaaccent" unicode="&#x145;" horiz-adv-x="732" 
d="M185 0h-98v706h91q10 -14 33 -46t160.5 -221.5t178.5 -251.5q-2 83 -2 519h97v-706h-84q-10 14 -33 46.5t-166.5 235t-178.5 256.5q2 -67 2 -538zM332 -294h-67q68 99 68 229h80q0 -69 -21.5 -128t-59.5 -101z" />
    <glyph glyph-name="ncommaaccent" unicode="&#x146;" horiz-adv-x="555" 
d="M168 0h-92v500h90v-61q23 31 68 52t92 21q119 0 146 -106q10 -39 10 -131v-275h-93v273q0 81 -10 109q-18 48 -83 48q-36 0 -73.5 -19.5t-54.5 -48.5v-362zM251 -294h-67q68 99 68 229h80q0 -69 -21.5 -128t-59.5 -101z" />
    <glyph glyph-name="Ncaron" unicode="&#x147;" horiz-adv-x="732" 
d="M185 0h-98v706h91q10 -14 33 -46t160.5 -221.5t178.5 -251.5q-2 83 -2 519h97v-706h-84q-10 14 -33 46.5t-166.5 235t-178.5 256.5q2 -67 2 -538zM440 897h83l-127 -137h-73l-128 137h84l82 -67z" />
    <glyph glyph-name="ncaron" unicode="&#x148;" horiz-adv-x="555" 
d="M168 0h-92v500h90v-61q23 31 68 52t92 21q119 0 146 -106q10 -39 10 -131v-275h-93v273q0 81 -10 109q-18 48 -83 48q-36 0 -73.5 -19.5t-54.5 -48.5v-362zM352 745h76l-122 -166h-59l-122 166h77l76 -90z" />
    <glyph glyph-name="napostrophe" unicode="&#x149;" horiz-adv-x="555" 
d="M168 0h-92v500h90v-61q23 31 68 52t92 21q119 0 146 -106q10 -39 10 -131v-275h-93v273q0 81 -10 109q-18 48 -83 48q-36 0 -73.5 -19.5t-54.5 -48.5v-362zM92 563h-67q68 99 68 229h80q0 -69 -21.5 -128t-59.5 -101z" />
    <glyph glyph-name="Eng" unicode="&#x14a;" horiz-adv-x="732" 
d="M183 0h-98v706h91q251 -351 296.5 -415.5t74.5 -109.5l-1 525h97v-712q0 -91 -44 -140q-47 -53 -147 -95l-34 83q74 35 98 64q10 12 17 30t7 37v47q-125 171 -203.5 283.5t-155.5 238.5q2 -67 2 -542z" />
    <glyph glyph-name="eng" unicode="&#x14b;" horiz-adv-x="555" 
d="M168 0h-92v500h91v-61q25 31 68.5 52t91.5 21q120 0 147 -106q10 -39 10 -131v-290q0 -36 -5.5 -71.5t-26.5 -61.5q-37 -48 -130 -90l-32 74q19 9 41.5 23.5t31.5 24.5q12 14 20 35t8 72v282q0 80 -10 107q-10 26 -31 38t-57 12q-39 0 -72.5 -19t-52.5 -49v-362z" />
    <glyph glyph-name="Omacron" unicode="&#x14c;" horiz-adv-x="763" 
d="M720 356q0 -82 -25 -150.5t-70.5 -117t-109 -74.5t-137.5 -26q-72 0 -134 26t-107 74t-69.5 116.5t-24.5 148.5q0 79 25.5 147.5t71.5 117t110 75t137 26.5q76 0 138.5 -27t106 -76t66 -116t22.5 -144zM615 349q0 130 -62.5 204t-166.5 74q-51 0 -94.5 -18t-75.5 -53.5
t-49.5 -87t-17.5 -114.5q0 -126 65 -200t168 -74q51 0 94.5 18.5t74.5 53t47.5 85t16.5 112.5zM518 789h-267v70h267v-70z" />
    <glyph glyph-name="omacron" unicode="&#x14d;" horiz-adv-x="555" 
d="M515 253q0 -122 -64.5 -193.5t-172.5 -71.5q-54 0 -98.5 18.5t-75.5 53.5t-47.5 83t-16.5 105q0 56 17 105t49 85t76.5 55.5t97.5 19.5t97.5 -19t75 -53.5t46.5 -83t16 -104.5zM423 251q0 87 -37.5 134.5t-106.5 47.5q-65 0 -105.5 -49t-40.5 -135q0 -85 39 -133t106 -48
q69 0 107 47.5t38 135.5zM408 605h-256v69h256v-69z" />
    <glyph glyph-name="Obreve" unicode="&#x14e;" horiz-adv-x="763" 
d="M720 356q0 -82 -25 -150.5t-70.5 -117t-109 -74.5t-137.5 -26q-72 0 -134 26t-107 74t-69.5 116.5t-24.5 148.5q0 79 25.5 147.5t71.5 117t110 75t137 26.5q76 0 138.5 -27t106 -76t66 -116t22.5 -144zM615 349q0 130 -62.5 204t-166.5 74q-51 0 -94.5 -18t-75.5 -53.5
t-49.5 -87t-17.5 -114.5q0 -126 65 -200t168 -74q51 0 94.5 18.5t74.5 53t47.5 85t16.5 112.5zM241 904h60q2 -22 11 -42.5t27.5 -30t42.5 -9.5q81 0 86 82h60q-1 -28 -10 -55.5t-27.5 -47.5t-46 -31t-63.5 -11q-68 0 -103.5 39t-36.5 106z" />
    <glyph glyph-name="obreve" unicode="&#x14f;" horiz-adv-x="555" 
d="M515 253q0 -122 -64.5 -193.5t-172.5 -71.5q-54 0 -98.5 18.5t-75.5 53.5t-47.5 83t-16.5 105q0 56 17 105t49 85t76.5 55.5t97.5 19.5t97.5 -19t75 -53.5t46.5 -83t16 -104.5zM423 251q0 87 -37.5 134.5t-106.5 47.5q-65 0 -105.5 -49t-40.5 -135q0 -85 39 -133t106 -48
q69 0 107 47.5t38 135.5zM141 717h58q2 -40 22 -63.5t55 -23.5q36 0 57.5 22t24.5 65h57q-1 -29 -12.5 -65.5t-44.5 -61.5t-83 -25q-64 0 -98.5 42t-35.5 110z" />
    <glyph glyph-name="Ohungarumlaut" unicode="&#x150;" horiz-adv-x="763" 
d="M720 356q0 -82 -25 -150.5t-70.5 -117t-109 -74.5t-137.5 -26q-72 0 -134 26t-107 74t-69.5 116.5t-24.5 148.5q0 79 25.5 147.5t71.5 117t110 75t137 26.5q76 0 138.5 -27t106 -76t66 -116t22.5 -144zM615 349q0 130 -62.5 204t-166.5 74q-51 0 -94.5 -18t-75.5 -53.5
t-49.5 -87t-17.5 -114.5q0 -126 65 -200t168 -74q51 0 94.5 18.5t74.5 53t47.5 85t16.5 112.5zM319 760h-88l130 137h113zM490 760h-87l129 137h113z" />
    <glyph glyph-name="ohungarumlaut" unicode="&#x151;" horiz-adv-x="555" 
d="M515 253q0 -122 -64.5 -193.5t-172.5 -71.5q-54 0 -98.5 18.5t-75.5 53.5t-47.5 83t-16.5 105q0 56 17 105t49 85t76.5 55.5t97.5 19.5t97.5 -19t75 -53.5t46.5 -83t16 -104.5zM423 251q0 87 -37.5 134.5t-106.5 47.5q-65 0 -105.5 -49t-40.5 -135q0 -85 39 -133t106 -48
q69 0 107 47.5t38 135.5zM222 579h-75l114 169h97zM375 579h-75l114 169h96z" />
    <glyph glyph-name="OE" unicode="&#x152;" horiz-adv-x="982" 
d="M944 0h-417q-74 -8 -147 -8q-74 0 -136.5 23t-107 68t-69 113.5t-24.5 154.5q0 92 27.5 162.5t76 114.5t112 65.5t134.5 21.5t134 -9h400v-95h-298v-199h278v-95h-278v-222h315v-95zM527 93v519q-55 12 -123 12q-55 0 -102 -16.5t-81 -50t-53 -85t-19 -118.5
q0 -70 20 -122.5t55 -85.5t80 -48.5t95 -15.5q66 0 128 11z" />
    <glyph glyph-name="oe" unicode="&#x153;" horiz-adv-x="892" 
d="M467 91q-27 -49 -77 -76t-112 -27q-54 0 -98.5 18.5t-75.5 53.5t-47.5 83t-16.5 105q0 56 17 105t49 85t76.5 55.5t97.5 19.5q66 0 113 -26.5t74 -73.5q23 35 56 59t66.5 32.5t60.5 8.5q67 0 112.5 -27t71 -80.5t25.5 -136.5v-36h-345q1 -54 21 -89.5t58.5 -55
t96.5 -19.5q40 0 83.5 15t79.5 41v-88q-83 -49 -182 -49q-145 0 -204 103zM422 251q0 87 -37 134.5t-106 47.5q-65 0 -105.5 -49t-40.5 -135q0 -85 39 -133t106 -48q68 0 106 47.5t38 135.5zM514 304h250q-2 70 -28.5 102t-85.5 32q-20 0 -42 -6t-42 -21t-34.5 -41.5
t-17.5 -65.5z" />
    <glyph glyph-name="Racute" unicode="&#x154;" horiz-adv-x="619" 
d="M189 0h-102v706h148q108 0 157 -11q148 -30 148 -180q0 -135 -138 -184q29 -12 50.5 -36.5t48.5 -71t115 -223.5h-112q-42 84 -75 147t-55 93.5t-43 43.5q-21 12 -66 12h-76v-296zM189 382h92q47 0 74 10q80 32 80 114q0 44 -25.5 75t-81.5 37q-27 3 -94 3h-45v-239z
M309 760h-95l133 137h126z" />
    <glyph glyph-name="racute" unicode="&#x155;" horiz-adv-x="375" 
d="M168 0h-92v500h90v-73q18 41 52.5 63.5t79.5 22.5q36 0 60 -12v-87q-28 19 -68 19q-39 0 -71 -22t-51 -63v-348zM222 578h-78l114 170h108z" />
    <glyph glyph-name="Rcommaaccent" unicode="&#x156;" horiz-adv-x="619" 
d="M189 0h-102v706h148q108 0 157 -11q148 -30 148 -180q0 -135 -138 -184q29 -12 50.5 -36.5t48.5 -71t115 -223.5h-112q-42 84 -75 147t-55 93.5t-43 43.5q-21 12 -66 12h-76v-296zM189 382h92q47 0 74 10q80 32 80 114q0 44 -25.5 75t-81.5 37q-27 3 -94 3h-45v-239z
M286 -294h-67q68 99 68 229h80q0 -69 -21.5 -128t-59.5 -101z" />
    <glyph glyph-name="rcommaaccent" unicode="&#x157;" horiz-adv-x="375" 
d="M168 0h-92v500h90v-73q18 41 52.5 63.5t79.5 22.5q36 0 60 -12v-87q-28 19 -68 19q-39 0 -71 -22t-51 -63v-348zM87 -294h-67q68 99 68 229h80q0 -69 -21.5 -128t-59.5 -101z" />
    <glyph glyph-name="Rcaron" unicode="&#x158;" horiz-adv-x="619" 
d="M189 0h-102v706h148q108 0 157 -11q148 -30 148 -180q0 -135 -138 -184q29 -12 50.5 -36.5t48.5 -71t115 -223.5h-112q-42 84 -75 147t-55 93.5t-43 43.5q-21 12 -66 12h-76v-296zM189 382h92q47 0 74 10q80 32 80 114q0 44 -25.5 75t-81.5 37q-27 3 -94 3h-45v-239z
M361 897h83l-127 -137h-73l-128 137h84l82 -67z" />
    <glyph glyph-name="rcaron" unicode="&#x159;" horiz-adv-x="375" 
d="M168 0h-92v500h90v-73q18 41 52.5 63.5t79.5 22.5q36 0 60 -12v-87q-28 19 -68 19q-39 0 -71 -22t-51 -63v-348zM279 745h76l-122 -166h-59l-122 166h77l76 -90z" />
    <glyph glyph-name="Sacute" unicode="&#x15a;" horiz-adv-x="541" 
d="M45 56v109q44 -39 108 -63t117 -24q71 0 102.5 27.5t31.5 71.5q0 32 -26 59.5t-85 55.5l-88 41q-85 40 -121 84.5t-36 112.5q0 87 61 138t173 51q51 0 101 -13.5t86 -36.5v-106q-40 31 -93.5 49.5t-101.5 18.5q-59 0 -91 -27.5t-32 -68.5q0 -29 16 -53t80 -54l87 -41
q89 -42 131 -85.5t42 -118.5q0 -88 -62.5 -141.5t-179.5 -53.5q-63 0 -122.5 19.5t-97.5 48.5zM279 760h-95l133 137h126z" />
    <glyph glyph-name="sacute" unicode="&#x15b;" horiz-adv-x="416" 
d="M39 38v98q35 -31 84 -49.5t89 -18.5q46 0 65.5 13.5t19.5 41.5q0 21 -16 36.5t-67 40.5l-57 27q-56 26 -84.5 61.5t-28.5 84.5q0 38 20.5 71.5t61.5 51t90 17.5q39 0 80 -11.5t73 -33.5v-93q-35 27 -79 42.5t-80 15.5q-40 0 -56.5 -15.5t-16.5 -37.5q0 -26 20 -43.5
t56 -34.5l58 -27q62 -29 90 -60.5t28 -83.5q0 -66 -47.5 -104.5t-127.5 -38.5q-96 0 -175 50zM226 578h-78l114 170h108z" />
    <glyph glyph-name="Scircumflex" unicode="&#x15c;" horiz-adv-x="541" 
d="M45 56v109q44 -39 108 -63t117 -24q71 0 102.5 27.5t31.5 71.5q0 32 -26 59.5t-85 55.5l-88 41q-85 40 -121 84.5t-36 112.5q0 87 61 138t173 51q51 0 101 -13.5t86 -36.5v-106q-40 31 -93.5 49.5t-101.5 18.5q-59 0 -91 -27.5t-32 -68.5q0 -29 16 -53t80 -54l87 -41
q89 -42 131 -85.5t42 -118.5q0 -88 -62.5 -141.5t-179.5 -53.5q-63 0 -122.5 19.5t-97.5 48.5zM199 760h-83l127 137h73l128 -137h-84l-82 67z" />
    <glyph glyph-name="scircumflex" unicode="&#x15d;" horiz-adv-x="416" 
d="M39 38v98q35 -31 84 -49.5t89 -18.5q46 0 65.5 13.5t19.5 41.5q0 21 -16 36.5t-67 40.5l-57 27q-56 26 -84.5 61.5t-28.5 84.5q0 38 20.5 71.5t61.5 51t90 17.5q39 0 80 -11.5t73 -33.5v-93q-35 27 -79 42.5t-80 15.5q-40 0 -56.5 -15.5t-16.5 -37.5q0 -26 20 -43.5
t56 -34.5l58 -27q62 -29 90 -60.5t28 -83.5q0 -66 -47.5 -104.5t-127.5 -38.5q-96 0 -175 50zM148 575h-76l122 166h59l122 -166h-77l-76 90z" />
    <glyph glyph-name="Scedilla" unicode="&#x15e;" horiz-adv-x="541" 
d="M180 -247v57q14 -9 35 -14t38 -5q29 0 42.5 14t13.5 34t-16.5 33t-46.5 13q-25 0 -41 -7l29 112q-55 4 -105.5 22.5t-83.5 43.5v109q44 -39 108 -63t117 -24q71 0 102.5 27.5t31.5 71.5q0 32 -26 59.5t-85 55.5l-88 41q-85 40 -121 84.5t-36 112.5q0 87 61 138t173 51
q51 0 101 -13.5t86 -36.5v-106q-40 31 -93.5 49.5t-101.5 18.5q-59 0 -91 -27.5t-32 -68.5q0 -29 16 -53t80 -54l87 -41q89 -42 131 -85.5t42 -118.5q0 -84 -56.5 -136.5t-162.5 -57.5l-15 -54l13 1q43 0 67.5 -26t24.5 -70q0 -51 -34 -78.5t-90 -27.5q-19 0 -40.5 5.5
t-33.5 13.5z" />
    <glyph glyph-name="scedilla" unicode="&#x15f;" horiz-adv-x="416" 
d="M121 -240v55q10 -7 29 -12.5t42 -5.5q14 0 27.5 5t20.5 16.5t7 25.5q0 19 -16 31.5t-46 12.5q-23 0 -40 -6l29 109q-76 9 -135 47v98q35 -31 84 -49.5t89 -18.5q46 0 65.5 13.5t19.5 41.5q0 21 -16 36.5t-67 40.5l-57 27q-56 26 -84.5 61.5t-28.5 84.5q0 38 20.5 71.5
t61.5 51t90 17.5q39 0 80 -11.5t73 -33.5v-93q-35 27 -79 42.5t-80 15.5q-40 0 -56.5 -15.5t-16.5 -37.5q0 -26 20 -43.5t56 -34.5l58 -27q62 -29 90 -60.5t28 -83.5q0 -64 -44 -101.5t-119 -40.5l-14 -52l13 1q42 0 66 -25.5t24 -67.5q0 -50 -33.5 -76.5t-88.5 -26.5
q-19 0 -40 5t-32 13z" />
    <glyph glyph-name="Scaron" unicode="&#x160;" horiz-adv-x="541" 
d="M45 56v109q44 -39 108 -63t117 -24q71 0 102.5 27.5t31.5 71.5q0 32 -26 59.5t-85 55.5l-88 41q-85 40 -121 84.5t-36 112.5q0 87 61 138t173 51q51 0 101 -13.5t86 -36.5v-106q-40 31 -93.5 49.5t-101.5 18.5q-59 0 -91 -27.5t-32 -68.5q0 -29 16 -53t80 -54l87 -41
q89 -42 131 -85.5t42 -118.5q0 -88 -62.5 -141.5t-179.5 -53.5q-63 0 -122.5 19.5t-97.5 48.5zM355 897h83l-127 -137h-73l-128 137h84l82 -67z" />
    <glyph glyph-name="scaron" unicode="&#x161;" horiz-adv-x="416" 
d="M39 38v98q35 -31 84 -49.5t89 -18.5q46 0 65.5 13.5t19.5 41.5q0 21 -16 36.5t-67 40.5l-57 27q-56 26 -84.5 61.5t-28.5 84.5q0 38 20.5 71.5t61.5 51t90 17.5q39 0 80 -11.5t73 -33.5v-93q-35 27 -79 42.5t-80 15.5q-40 0 -56.5 -15.5t-16.5 -37.5q0 -26 20 -43.5
t56 -34.5l58 -27q62 -29 90 -60.5t28 -83.5q0 -66 -47.5 -104.5t-127.5 -38.5q-96 0 -175 50zM291 745h76l-122 -166h-59l-122 166h77l76 -90z" />
    <glyph glyph-name="Tcommaaccent" unicode="&#x162;" horiz-adv-x="577" 
d="M203 -247v57q14 -9 35 -14t38 -5q29 0 42.5 14t13.5 34t-16.5 33t-46.5 13q-25 0 -41 -7l32 122h-24v611h-209v95h522v-95h-211v-611h-23l-19 -65l13 1q43 0 67.5 -26t24.5 -70q0 -51 -34 -78.5t-90 -27.5q-19 0 -40.5 5.5t-33.5 13.5z" />
    <glyph glyph-name="tcommaaccent" unicode="&#x163;" horiz-adv-x="358" 
d="M107 -240v55q10 -7 29 -12.5t42 -5.5q14 0 27.5 5t20.5 16.5t7 25.5q0 19 -16 31.5t-46 12.5q-23 0 -40 -6l32 118q-19 9 -35 26t-24 42q-11 35 -11 117v237h-66v78h67v140h91v-140h133v-78h-133v-239q0 -47 8 -74q6 -19 23.5 -29.5t44.5 -10.5q44 0 81 23v-79
q-46 -25 -114 -25l-16 1l-14 -52l13 1q42 0 66 -25.5t24 -67.5q0 -50 -33.5 -76.5t-88.5 -26.5q-19 0 -40 5t-32 13z" />
    <glyph glyph-name="Tcaron" unicode="&#x164;" horiz-adv-x="577" 
d="M332 0h-102v611h-209v95h522v-95h-211v-611zM362 897h83l-127 -137h-73l-128 137h84l82 -67z" />
    <glyph glyph-name="tcaron" unicode="&#x165;" horiz-adv-x="358" 
d="M342 13q-46 -25 -114 -25q-32 0 -60 11t-43 30.5t-21 38.5q-11 35 -11 117v237h-66v78h67v140h91v-140h133v-78h-133v-239q0 -47 8 -74q6 -19 23.5 -29.5t44.5 -10.5q44 0 81 23v-79zM318 576h-67q68 99 68 229h80q0 -69 -21.5 -128t-59.5 -101z" />
    <glyph glyph-name="Tbar" unicode="&#x166;" horiz-adv-x="577" 
d="M338 0h-102v342h-133v64h133v205h-209v95h522v-95h-211v-205h138v-64h-138v-342z" />
    <glyph glyph-name="tbar" unicode="&#x167;" horiz-adv-x="358" 
d="M342 13q-46 -25 -114 -25q-32 0 -60 11t-43 30.5t-21 38.5q-11 35 -11 117v69h-61v61h61v107h-66v78h67v140h91v-140h133v-78h-133v-107h126v-61h-126v-71q0 -47 8 -74q6 -19 23.5 -29.5t44.5 -10.5q44 0 81 23v-79z" />
    <glyph glyph-name="Utilde" unicode="&#x168;" horiz-adv-x="723" 
d="M79 706h101v-409q0 -80 15 -123q16 -46 60.5 -70t104.5 -24q52 0 90 15t56.5 41t25.5 51q11 45 11 116v403h101v-406q0 -44 -6.5 -87.5t-16.5 -74.5q-25 -72 -93 -111t-170 -39q-96 0 -163 36t-93 109q-23 65 -23 161v412zM255 762h-58q3 29 14.5 60t33.5 50t48 19
q31 0 76 -31q21 -14 32.5 -19.5t22.5 -5.5q30 0 39 55h59q-5 -61 -30.5 -94t-60.5 -33q-8 0 -26 3.5t-57 28.5q-21 14 -30.5 18t-18.5 4q-15 0 -27.5 -15t-16.5 -40z" />
    <glyph glyph-name="utilde" unicode="&#x169;" horiz-adv-x="555" 
d="M479 0h-92v60q-26 -33 -65.5 -52.5t-89.5 -19.5q-113 0 -142 86q-7 21 -12 52.5t-5 98.5v275h92v-273q0 -78 10 -102q11 -28 31.5 -41.5t59.5 -13.5q36 0 67 18t53 48v364h93v-500zM185 595h-58q5 60 32 95t61 35q7 0 21.5 -3.5t50.5 -27.5q35 -25 52 -25q31 0 38 56h55
q-3 -61 -28 -95t-59 -34q-7 0 -24 3t-53 28q-21 15 -31 19.5t-19 4.5q-28 0 -38 -56z" />
    <glyph glyph-name="Umacron" unicode="&#x16a;" horiz-adv-x="723" 
d="M79 706h101v-409q0 -80 15 -123q16 -46 60.5 -70t104.5 -24q52 0 90 15t56.5 41t25.5 51q11 45 11 116v403h101v-406q0 -44 -6.5 -87.5t-16.5 -74.5q-25 -72 -93 -111t-170 -39q-96 0 -163 36t-93 109q-23 65 -23 161v412zM495 789h-267v70h267v-70z" />
    <glyph glyph-name="umacron" unicode="&#x16b;" horiz-adv-x="555" 
d="M479 0h-92v60q-26 -33 -65.5 -52.5t-89.5 -19.5q-113 0 -142 86q-7 21 -12 52.5t-5 98.5v275h92v-273q0 -78 10 -102q11 -28 31.5 -41.5t59.5 -13.5q36 0 67 18t53 48v364h93v-500zM407 605h-256v69h256v-69z" />
    <glyph glyph-name="Ubreve" unicode="&#x16c;" horiz-adv-x="723" 
d="M79 706h101v-409q0 -80 15 -123q16 -46 60.5 -70t104.5 -24q52 0 90 15t56.5 41t25.5 51q11 45 11 116v403h101v-406q0 -44 -6.5 -87.5t-16.5 -74.5q-25 -72 -93 -111t-170 -39q-96 0 -163 36t-93 109q-23 65 -23 161v412zM217 904h60q2 -22 11 -42.5t27.5 -30t42.5 -9.5
q81 0 86 82h60q-1 -28 -10 -55.5t-27.5 -47.5t-46 -31t-63.5 -11q-68 0 -103.5 39t-36.5 106z" />
    <glyph glyph-name="ubreve" unicode="&#x16d;" horiz-adv-x="555" 
d="M479 0h-92v60q-26 -33 -65.5 -52.5t-89.5 -19.5q-113 0 -142 86q-7 21 -12 52.5t-5 98.5v275h92v-273q0 -78 10 -102q11 -28 31.5 -41.5t59.5 -13.5q36 0 67 18t53 48v364h93v-500zM145 717h58q2 -40 22 -63.5t55 -23.5q36 0 57.5 22t24.5 65h57q-1 -29 -12.5 -65.5
t-44.5 -61.5t-83 -25q-64 0 -98.5 42t-35.5 110z" />
    <glyph glyph-name="Uring" unicode="&#x16e;" horiz-adv-x="723" 
d="M79 706h101v-409q0 -80 15 -123q16 -46 60.5 -70t104.5 -24q52 0 90 15t56.5 41t25.5 51q11 45 11 116v403h101v-406q0 -44 -6.5 -87.5t-16.5 -74.5q-25 -72 -93 -111t-170 -39q-96 0 -163 36t-93 109q-23 65 -23 161v412zM448 839q0 -38 -26.5 -64t-65.5 -26
q-37 0 -62.5 26t-25.5 64q0 40 26 65.5t66 25.5q39 0 63.5 -25t24.5 -66zM409 840q0 25 -15 40.5t-38 15.5q-21 0 -36 -16.5t-15 -40.5q0 -23 14 -39t39 -16q22 0 36.5 16.5t14.5 39.5z" />
    <glyph glyph-name="uring" unicode="&#x16f;" horiz-adv-x="555" 
d="M479 0h-92v60q-26 -33 -65.5 -52.5t-89.5 -19.5q-113 0 -142 86q-7 21 -12 52.5t-5 98.5v275h92v-273q0 -78 10 -102q11 -28 31.5 -41.5t59.5 -13.5q36 0 67 18t53 48v364h93v-500zM377 670q0 -39 -28 -67t-68 -28q-29 0 -52 16t-32 38t-9 41q0 20 9 42.5t33 38t54 15.5
q41 0 67 -27t26 -69zM337 671q0 27 -15.5 43.5t-40.5 16.5q-23 0 -38.5 -17.5t-15.5 -43.5q0 -25 15.5 -42.5t41.5 -17.5q23 0 38 18t15 43z" />
    <glyph glyph-name="Uhungarumlaut" unicode="&#x170;" horiz-adv-x="723" 
d="M79 706h101v-409q0 -80 15 -123q16 -46 60.5 -70t104.5 -24q52 0 90 15t56.5 41t25.5 51q11 45 11 116v403h101v-406q0 -44 -6.5 -87.5t-16.5 -74.5q-25 -72 -93 -111t-170 -39q-96 0 -163 36t-93 109q-23 65 -23 161v412zM285 760h-88l130 137h113zM456 760h-87l129 137
h113z" />
    <glyph glyph-name="uhungarumlaut" unicode="&#x171;" horiz-adv-x="555" 
d="M479 0h-92v60q-26 -33 -65.5 -52.5t-89.5 -19.5q-113 0 -142 86q-7 21 -12 52.5t-5 98.5v275h92v-273q0 -78 10 -102q11 -28 31.5 -41.5t59.5 -13.5q36 0 67 18t53 48v364h93v-500zM219 579h-75l114 169h97zM372 579h-75l114 169h96z" />
    <glyph glyph-name="Uogonek" unicode="&#x172;" horiz-adv-x="723" 
d="M79 706h101v-409q0 -80 15 -123q16 -46 60.5 -70t104.5 -24q52 0 90 15t56.5 41t25.5 51q11 45 11 116v403h101v-406q0 -44 -6.5 -87.5t-16.5 -74.5q-22 -65 -80.5 -103t-145.5 -45q-88 -66 -88 -129q0 -29 17 -47.5t47 -18.5q33 0 64 18v-53q-15 -10 -36.5 -16.5
t-39.5 -6.5q-57 0 -88.5 28.5t-31.5 85.5q0 38 23 74.5t63 63.5q-80 6 -139.5 41t-83.5 103q-23 65 -23 161v412z" />
    <glyph glyph-name="uogonek" unicode="&#x173;" horiz-adv-x="555" 
d="M479 0h-29q-95 -66 -95 -131q0 -29 16.5 -46.5t46.5 -17.5q31 0 62 17v-51q-14 -10 -35 -16t-39 -6q-56 0 -87 27.5t-31 82.5q0 40 26 78.5t73 64.5v58q-26 -33 -65.5 -52.5t-89.5 -19.5q-113 0 -142 86q-7 21 -12 52.5t-5 98.5v275h92v-273q0 -78 10 -102
q11 -28 31.5 -41.5t59.5 -13.5q36 0 67 18t53 48v364h93v-500z" />
    <glyph glyph-name="Wcircumflex" unicode="&#x174;" horiz-adv-x="977" 
d="M310 0h-89l-210 706h106q89 -308 114.5 -397.5t41.5 -153.5q12 41 27.5 91.5t74.5 232t74 227.5h83q5 -14 17.5 -53t73.5 -224t85 -274q2 10 7 30.5t21 79t127 441.5h104l-212 -706h-88q-5 15 -18 56t-74.5 232.5t-84.5 279.5q-3 -11 -8.5 -30t-23.5 -78t-148 -460z
M410 760h-83l127 137h73l128 -137h-84l-82 67z" />
    <glyph glyph-name="wcircumflex" unicode="&#x175;" horiz-adv-x="763" 
d="M247 0h-73l-161 500h103q55 -184 73.5 -249t29.5 -111l8.5 25.5t20 59t99.5 275.5h71q30 -84 74 -204t54 -156q4 20 11 45.5t40.5 138.5t51.5 176h101l-163 -500h-73q-4 10 -13 35.5t-59 160t-62 174.5q-5 -18 -14 -44.5t-52 -143.5t-67 -182zM305 575h-76l122 166h59
l122 -166h-77l-76 90z" />
    <glyph glyph-name="Ycircumflex" unicode="&#x176;" horiz-adv-x="632" 
d="M364 0h-102v293l-258 413h120q133 -217 192 -319q44 80 199 319h113l-264 -413v-293zM233 760h-83l127 137h73l128 -137h-84l-82 67z" />
    <glyph glyph-name="ycircumflex" unicode="&#x177;" horiz-adv-x="504" 
d="M216 -237h-101l98 250l-209 487h103q136 -322 156 -378q29 90 139 378h98zM185 575h-76l122 166h59l122 -166h-77l-76 90z" />
    <glyph glyph-name="Ydieresis" unicode="&#x178;" horiz-adv-x="632" 
d="M364 0h-102v293l-258 413h120q133 -217 192 -319q44 80 199 319h113l-264 -413v-293zM281 829q0 -23 -15 -38.5t-37 -15.5q-23 0 -37 15t-14 38t14.5 38.5t37.5 15.5t37 -15t14 -38zM453 829q0 -23 -15 -38.5t-37 -15.5q-23 0 -37 15t-14 38t14.5 38.5t37.5 15.5t37 -15
t14 -38z" />
    <glyph glyph-name="Zacute" unicode="&#x179;" horiz-adv-x="621" 
d="M591 0h-584l406 612l-358 -1v95h541l-404 -612q50 1 399 1v-95zM334 760h-95l133 137h126z" />
    <glyph glyph-name="zacute" unicode="&#x17a;" horiz-adv-x="473" 
d="M455 0h-448q225 336 286 424q-34 -1 -250 -1v77h407l-284 -424q45 1 289 1v-77zM265 578h-78l114 170h108z" />
    <glyph glyph-name="Zdotaccent" unicode="&#x17b;" horiz-adv-x="621" 
d="M591 0h-584l406 612l-358 -1v95h541l-404 -612q50 1 399 1v-95zM366 829q0 -23 -15 -38.5t-37 -15.5q-23 0 -37 15t-14 38t14.5 38.5t37.5 15.5t37 -15t14 -38z" />
    <glyph glyph-name="zdotaccent" unicode="&#x17c;" horiz-adv-x="473" 
d="M455 0h-448q225 336 286 424q-34 -1 -250 -1v77h407l-284 -424q45 1 289 1v-77zM302 659q0 -23 -15 -38.5t-37 -15.5q-23 0 -37 15t-14 38t14.5 38.5t37.5 15.5t37 -15t14 -38z" />
    <glyph glyph-name="Zcaron" unicode="&#x17d;" horiz-adv-x="621" 
d="M591 0h-584l406 612l-358 -1v95h541l-404 -612q50 1 399 1v-95zM399 897h83l-127 -137h-73l-128 137h84l82 -67z" />
    <glyph glyph-name="zcaron" unicode="&#x17e;" horiz-adv-x="473" 
d="M455 0h-448q225 336 286 424q-34 -1 -250 -1v77h407l-284 -424q45 1 289 1v-77zM313 745h76l-122 -166h-59l-122 166h77l76 -90z" />
    <glyph glyph-name="longs" unicode="&#x17f;" horiz-adv-x="271" 
d="M168 0h-92v563q0 80 17 120q17 38 55.5 57t90.5 19q49 0 83 -16v-82q-30 18 -67 18q-27 0 -47 -10t-29 -28q-11 -22 -11 -80v-561z" />
    <glyph glyph-name="florin" unicode="&#x192;" horiz-adv-x="487" 
d="M17 -115v88q11 -8 30.5 -15.5t41.5 -7.5q49 0 63 36q8 19 12 70l24 303h-93v64h96l8 90q7 82 33 124q19 29 54 46.5t76 17.5q27 0 54.5 -6.5t42.5 -18.5v-88q-15 12 -38 18.5t-40 6.5q-20 0 -38 -7.5t-27 -19.5q-9 -11 -15 -34t-8 -49l-6 -80h113v-64h-119l-22 -305
q-6 -71 -18 -103q-14 -45 -54.5 -66t-87.5 -21q-20 0 -44 6t-38 15z" />
    <glyph glyph-name="Aringacute" unicode="&#x1fa;" horiz-adv-x="651" 
d="M410 765q0 -20 -9.5 -39t-23.5 -31l269 -695h-106l-80 201h-268l-78 -201h-109l267 694q-15 11 -24 30t-9 41q0 38 24.5 62.5t61.5 24.5q38 0 61.5 -24.5t23.5 -62.5zM223 292h205q-78 205 -102 282q-17 -50 -103 -282zM353 880h-76l100 119h106zM375 766q0 25 -14 40
t-38 15q-23 0 -37 -15.5t-14 -40.5q0 -24 14 -40t39 -16q23 0 36.5 16.5t13.5 40.5z" />
    <glyph glyph-name="aringacute" unicode="&#x1fb;" horiz-adv-x="503" 
d="M432 0h-87v52q-60 -62 -146 -62q-34 0 -70 14.5t-60.5 51t-24.5 81.5q0 38 16 69t46 49q28 17 79.5 31t156.5 21v15q0 22 -5 43t-13 33q-23 33 -82 33q-47 0 -91 -15.5t-78 -45.5v83q34 29 82 44.5t96 15.5q120 0 161 -81q20 -40 20 -133v-299zM342 113v125
q-50 -3 -95.5 -10.5t-79.5 -26.5q-16 -9 -25 -26t-9 -34q0 -22 12 -41.5t34.5 -28t45.5 -8.5q64 0 117 50zM275 801h-77l107 155h105zM352 670q0 -39 -28 -67t-68 -28q-29 0 -52 16t-32 38t-9 41q0 20 9 42.5t33 38t54 15.5q41 0 67 -27t26 -69zM312 671q0 27 -15.5 43.5
t-40.5 16.5q-23 0 -38.5 -17.5t-15.5 -43.5q0 -25 15.5 -42.5t41.5 -17.5q23 0 38 18t15 43z" />
    <glyph glyph-name="AEacute" unicode="&#x1fc;" horiz-adv-x="996" 
d="M123 0h-123l491 706h450v-95h-299v-199h279v-95h-279v-222h316v-95h-418v210h-273zM329 304h211v312q-49 -76 -211 -312zM669 757h-95l133 137h126z" />
    <glyph glyph-name="aeacute" unicode="&#x1fd;" horiz-adv-x="815" 
d="M776 36q-89 -48 -181 -48q-128 0 -188 77q-85 -76 -195 -76q-40 0 -79.5 15t-64 52t-24.5 82q0 82 66 119q71 41 240 47v15q0 53 -21 81q-24 31 -86 31q-91 0 -170 -61v82q34 29 81.5 45t94.5 16q119 0 155 -81q66 81 172 81q53 0 92.5 -17.5t64.5 -50t37 -77.5t12 -99
v-36h-344q0 -17 5.5 -43t14.5 -43q10 -20 30 -39t53 -29t72 -10q40 0 84 15t79 41v-89zM372 121q-19 43 -23 113q-134 -2 -182 -30q-34 -20 -34 -62q0 -32 23.5 -55.5t72.5 -23.5q76 0 143 58zM438 304h250q-2 44 -11.5 72t-34 45t-69.5 17q-27 0 -58 -12t-53.5 -43.5
t-23.5 -78.5zM437 578h-78l114 170h108z" />
    <glyph glyph-name="Oslashacute" unicode="&#x1fe;" horiz-adv-x="763" 
d="M136 -48l-50 32l63 91q-50 48 -78 120t-28 158q0 79 25.5 147.5t71.5 117t110 75t137 26.5q100 0 177 -47l58 83l49 -32l-60 -86q52 -49 80.5 -122t28.5 -159q0 -81 -25 -150t-71 -117.5t-109 -74.5t-137 -26q-102 0 -182 50zM615 349q0 63 -16.5 115.5t-45.5 88.5
l-301 -434q54 -39 130 -39q106 0 169.5 72t63.5 197zM149 354q0 -120 59 -195l301 433q-25 16 -58 25.5t-65 9.5q-51 0 -94.5 -18t-75.5 -53.5t-49.5 -87t-17.5 -114.5zM383 760h-95l133 137h126z" />
    <glyph glyph-name="oslashacute" unicode="&#x1ff;" horiz-adv-x="555" 
d="M105 -51l-46 32l50 73q-33 34 -51 84.5t-18 109.5q0 56 17 105t49 84.5t76.5 55t97.5 19.5q33 0 66.5 -9t57.5 -23l50 72l46 -32l-52 -75q32 -34 49.5 -84t17.5 -108q0 -122 -64.5 -193.5t-172.5 -71.5q-33 0 -66.5 8.5t-58.5 22.5zM133 249q0 -34 8 -66t21 -53l194 280
q-32 20 -77 20q-65 0 -105.5 -47.5t-40.5 -133.5zM423 251q0 34 -7.5 65.5t-20.5 52.5l-193 -279q32 -20 76 -20q69 0 107 46.5t38 134.5zM291 578h-78l114 170h108z" />
    <glyph glyph-name="Scommaaccent" unicode="&#x218;" horiz-adv-x="541" 
d="M45 56v109q44 -39 108 -63t117 -24q71 0 102.5 27.5t31.5 71.5q0 32 -26 59.5t-85 55.5l-88 41q-85 40 -121 84.5t-36 112.5q0 87 61 138t173 51q51 0 101 -13.5t86 -36.5v-106q-40 31 -93.5 49.5t-101.5 18.5q-59 0 -91 -27.5t-32 -68.5q0 -29 16 -53t80 -54l87 -41
q89 -42 131 -85.5t42 -118.5q0 -88 -62.5 -141.5t-179.5 -53.5q-63 0 -122.5 19.5t-97.5 48.5zM226 -294h-67q68 99 68 229h80q0 -69 -21.5 -128t-59.5 -101z" />
    <glyph glyph-name="scommaaccent" unicode="&#x219;" horiz-adv-x="416" 
d="M39 38v98q35 -31 84 -49.5t89 -18.5q46 0 65.5 13.5t19.5 41.5q0 21 -16 36.5t-67 40.5l-57 27q-56 26 -84.5 61.5t-28.5 84.5q0 38 20.5 71.5t61.5 51t90 17.5q39 0 80 -11.5t73 -33.5v-93q-35 27 -79 42.5t-80 15.5q-40 0 -56.5 -15.5t-16.5 -37.5q0 -26 20 -43.5
t56 -34.5l58 -27q62 -29 90 -60.5t28 -83.5q0 -66 -47.5 -104.5t-127.5 -38.5q-96 0 -175 50zM174 -294h-67q68 99 68 229h80q0 -69 -21.5 -128t-59.5 -101z" />
    <glyph glyph-name="uni021A" unicode="&#x21a;" horiz-adv-x="577" 
d="M332 0h-102v611h-209v95h522v-95h-211v-611zM244 -294h-67q68 99 68 229h80q0 -69 -21.5 -128t-59.5 -101z" />
    <glyph glyph-name="uni021B" unicode="&#x21b;" horiz-adv-x="358" 
d="M342 13q-46 -25 -114 -25q-32 0 -60 11t-43 30.5t-21 38.5q-11 35 -11 117v237h-66v78h67v140h91v-140h133v-78h-133v-239q0 -47 8 -74q6 -19 23.5 -29.5t44.5 -10.5q44 0 81 23v-79zM160 -294h-67q68 99 68 229h80q0 -69 -21.5 -128t-59.5 -101z" />
    <glyph glyph-name="circumflex" unicode="&#x2c6;" horiz-adv-x="169" 
d="M9 575h-76l122 166h59l122 -166h-77l-76 90z" />
    <glyph glyph-name="caron" unicode="&#x2c7;" horiz-adv-x="169" 
d="M160 745h76l-122 -166h-59l-122 166h77l76 -90z" />
    <glyph glyph-name="breve" unicode="&#x2d8;" horiz-adv-x="169" 
d="M-52 717h58q2 -40 22 -63.5t55 -23.5q36 0 57.5 22t24.5 65h57q-1 -29 -12.5 -65.5t-44.5 -61.5t-83 -25q-64 0 -98.5 42t-35.5 110z" />
    <glyph glyph-name="dotaccent" unicode="&#x2d9;" horiz-adv-x="169" 
d="M136 659q0 -23 -15 -38.5t-37 -15.5q-23 0 -37 15t-14 38t14.5 38.5t37.5 15.5t37 -15t14 -38z" />
    <glyph glyph-name="ring" unicode="&#x2da;" horiz-adv-x="169" 
d="M179 670q0 -39 -28 -67t-68 -28q-29 0 -52 16t-32 38t-9 41q0 20 9 42.5t33 38t54 15.5q41 0 67 -27t26 -69zM139 671q0 27 -15.5 43.5t-40.5 16.5q-23 0 -38.5 -17.5t-15.5 -43.5q0 -25 15.5 -42.5t41.5 -17.5q23 0 38 18t15 43z" />
    <glyph glyph-name="ogonek" unicode="&#x2db;" horiz-adv-x="169" 
d="M172 16q-120 -76 -120 -147q0 -29 16.5 -46.5t46.5 -17.5q31 0 62 17v-51q-14 -10 -35 -16t-39 -6q-56 0 -87 27.5t-31 82.5q0 46 34.5 88.5t92.5 69.5z" />
    <glyph glyph-name="tilde" unicode="&#x2dc;" horiz-adv-x="179" 
d="M-8 595h-58q5 60 32 95t61 35q7 0 21.5 -3.5t50.5 -27.5q35 -25 52 -25q31 0 38 56h55q-3 -61 -28 -95t-59 -34q-7 0 -24 3t-53 28q-21 15 -31 19.5t-19 4.5q-28 0 -38 -56z" />
    <glyph glyph-name="hungarumlaut" unicode="&#x2dd;" horiz-adv-x="169" 
d="M-22 579h-75l114 169h97zM131 579h-75l114 169h96z" />
    <glyph glyph-name="Delta" unicode="&#x394;" horiz-adv-x="721" 
d="M711 0h-702l299 707h108zM361 603q-35 -93 -216 -511h430q-174 409 -214 511z" />
    <glyph glyph-name="Omega" unicode="&#x3a9;" horiz-adv-x="720" 
d="M320 0h-264v89h196q-90 37 -140 116t-50 187q0 73 22.5 134t63.5 104.5t96.5 66.5t119.5 23t118.5 -23t93 -66t59.5 -103t21 -130q0 -107 -49 -186.5t-140 -122.5h196v-89h-263v122q75 30 119.5 100t44.5 158q0 55 -15 101.5t-42.5 79t-64.5 50t-80 17.5t-81 -17t-66 -49
t-44 -79.5t-16 -105.5q0 -87 44 -157.5t121 -98.5v-121z" />
    <glyph glyph-name="mu" unicode="&#x3bc;" horiz-adv-x="578" 
d="M174 -237h-92v737h92v-273q0 -74 10 -102q11 -28 33.5 -41.5t60.5 -13.5q37 0 70.5 19t55.5 49v362h92v-500h-92v61q-16 -29 -52.5 -49.5t-77.5 -20.5q-75 0 -100 54v-282z" />
    <glyph glyph-name="pi" unicode="&#x3c0;" horiz-adv-x="600" 
d="M561 424h-65v-239q0 -115 22 -185h-94q-18 68 -18 183v241h-201v-424h-90v424h-62v76h508v-76z" />
    <glyph glyph-name="Wgrave" unicode="&#x1e80;" horiz-adv-x="977" 
d="M310 0h-89l-210 706h106q89 -308 114.5 -397.5t41.5 -153.5q12 41 27.5 91.5t74.5 232t74 227.5h83q5 -14 17.5 -53t73.5 -224t85 -274q2 10 7 30.5t21 79t127 441.5h104l-212 -706h-88q-5 15 -18 56t-74.5 232.5t-84.5 279.5q-3 -11 -8.5 -30t-23.5 -78t-148 -460z
M573 760h-95l-164 137h126z" />
    <glyph glyph-name="wgrave" unicode="&#x1e81;" horiz-adv-x="763" 
d="M247 0h-73l-161 500h103q55 -184 73.5 -249t29.5 -111l8.5 25.5t20 59t99.5 275.5h71q30 -84 74 -204t54 -156q4 20 11 45.5t40.5 138.5t51.5 176h101l-163 -500h-73q-4 10 -13 35.5t-59 160t-62 174.5q-5 -18 -14 -44.5t-52 -143.5t-67 -182zM452 578h-78l-144 170h108z
" />
    <glyph glyph-name="Wacute" unicode="&#x1e82;" horiz-adv-x="977" 
d="M310 0h-89l-210 706h106q89 -308 114.5 -397.5t41.5 -153.5q12 41 27.5 91.5t74.5 232t74 227.5h83q5 -14 17.5 -53t73.5 -224t85 -274q2 10 7 30.5t21 79t127 441.5h104l-212 -706h-88q-5 15 -18 56t-74.5 232.5t-84.5 279.5q-3 -11 -8.5 -30t-23.5 -78t-148 -460z
M502 760h-95l133 137h126z" />
    <glyph glyph-name="wacute" unicode="&#x1e83;" horiz-adv-x="763" 
d="M247 0h-73l-161 500h103q55 -184 73.5 -249t29.5 -111l8.5 25.5t20 59t99.5 275.5h71q30 -84 74 -204t54 -156q4 20 11 45.5t40.5 138.5t51.5 176h101l-163 -500h-73q-4 10 -13 35.5t-59 160t-62 174.5q-5 -18 -14 -44.5t-52 -143.5t-67 -182zM396 578h-78l114 170h108z
" />
    <glyph glyph-name="Wdieresis" unicode="&#x1e84;" horiz-adv-x="977" 
d="M310 0h-89l-210 706h106q89 -308 114.5 -397.5t41.5 -153.5q12 41 27.5 91.5t74.5 232t74 227.5h83q5 -14 17.5 -53t73.5 -224t85 -274q2 10 7 30.5t21 79t127 441.5h104l-212 -706h-88q-5 15 -18 56t-74.5 232.5t-84.5 279.5q-3 -11 -8.5 -30t-23.5 -78t-148 -460z
M455 829q0 -23 -15 -38.5t-37 -15.5q-23 0 -37 15t-14 38t14.5 38.5t37.5 15.5t37 -15t14 -38zM627 829q0 -23 -15 -38.5t-37 -15.5q-23 0 -37 15t-14 38t14.5 38.5t37.5 15.5t37 -15t14 -38z" />
    <glyph glyph-name="wdieresis" unicode="&#x1e85;" horiz-adv-x="763" 
d="M247 0h-73l-161 500h103q55 -184 73.5 -249t29.5 -111l8.5 25.5t20 59t99.5 275.5h71q30 -84 74 -204t54 -156q4 20 11 45.5t40.5 138.5t51.5 176h101l-163 -500h-73q-4 10 -13 35.5t-59 160t-62 174.5q-5 -18 -14 -44.5t-52 -143.5t-67 -182zM351 659q0 -23 -15 -38.5
t-37 -15.5q-23 0 -37 15t-14 38t14.5 38.5t37.5 15.5t37 -15t14 -38zM515 659q0 -23 -15 -38.5t-37 -15.5q-23 0 -37 15t-14 38t14.5 38.5t37.5 15.5t37 -15t14 -38z" />
    <glyph glyph-name="Ygrave" unicode="&#x1ef2;" horiz-adv-x="632" 
d="M364 0h-102v293l-258 413h120q133 -217 192 -319q44 80 199 319h113l-264 -413v-293zM392 760h-95l-164 137h126z" />
    <glyph glyph-name="ygrave" unicode="&#x1ef3;" horiz-adv-x="504" 
d="M216 -237h-101l98 250l-209 487h103q136 -322 156 -378q29 90 139 378h98zM322 578h-78l-144 170h108z" />
    <glyph glyph-name="endash" unicode="&#x2013;" horiz-adv-x="543" 
d="M497 223h-451v72h451v-72z" />
    <glyph glyph-name="emdash" unicode="&#x2014;" horiz-adv-x="860" 
d="M814 223h-768v72h768v-72z" />
    <glyph glyph-name="quoteleft" unicode="&#x2018;" horiz-adv-x="164" 
d="M109 747h69q-75 -114 -76 -267h-83q0 79 24 148.5t66 118.5z" />
    <glyph glyph-name="quoteright" unicode="&#x2019;" horiz-adv-x="164" 
d="M54 480h-68q75 117 75 267h84q0 -80 -24.5 -149.5t-66.5 -117.5z" />
    <glyph glyph-name="quotesinglbase" unicode="&#x201a;" horiz-adv-x="164" 
d="M54 -135h-68q75 117 75 267h84q0 -80 -24.5 -149.5t-66.5 -117.5z" />
    <glyph glyph-name="quotedblleft" unicode="&#x201c;" horiz-adv-x="321" 
d="M266 747h69q-75 -114 -76 -267h-83q0 79 24 148.5t66 118.5zM109 747h69q-75 -114 -76 -267h-83q0 79 24 148.5t66 118.5z" />
    <glyph glyph-name="quotedblright" unicode="&#x201d;" horiz-adv-x="321" 
d="M54 480h-68q75 117 75 267h84q0 -80 -24.5 -149.5t-66.5 -117.5zM211 480h-68q75 117 75 267h84q0 -80 -24.5 -149.5t-66.5 -117.5z" />
    <glyph glyph-name="quotedblbase" unicode="&#x201e;" horiz-adv-x="321" 
d="M54 -135h-68q75 117 75 267h84q0 -80 -24.5 -149.5t-66.5 -117.5zM211 -135h-68q75 117 75 267h84q0 -80 -24.5 -149.5t-66.5 -117.5z" />
    <glyph glyph-name="dagger" unicode="&#x2020;" horiz-adv-x="488" 
d="M280 -84h-72v520h-179v73h179v214h72v-214h179v-73h-179v-520z" />
    <glyph glyph-name="daggerdbl" unicode="&#x2021;" horiz-adv-x="488" 
d="M280 -84h-72v227h-179v72h179v228h-179v73h179v207h72v-207h179v-73h-179v-228h179v-72h-179v-227z" />
    <glyph glyph-name="bullet" unicode="&#x2022;" horiz-adv-x="339" 
d="M294 260q0 -26 -12 -56t-43.5 -51.5t-70.5 -21.5q-24 0 -52.5 12t-49.5 43.5t-21 71.5q0 60 37.5 95.5t88.5 35.5q23 0 51.5 -11t50 -41.5t21.5 -76.5z" />
    <glyph glyph-name="ellipsis" unicode="&#x2026;" horiz-adv-x="873" 
d="M223 59q0 -28 -19.5 -47.5t-47.5 -19.5q-27 0 -45 19t-18 46q0 28 19 47t47 19q27 0 45.5 -18.5t18.5 -45.5zM502 59q0 -28 -19.5 -47.5t-47.5 -19.5q-27 0 -45 19t-18 46q0 28 19 47t47 19q27 0 45.5 -18.5t18.5 -45.5zM780 59q0 -28 -19.5 -47.5t-47.5 -19.5
q-27 0 -45 19t-18 46q0 28 19 47t47 19q27 0 45.5 -18.5t18.5 -45.5z" />
    <glyph glyph-name="perthousand" unicode="&#x2030;" horiz-adv-x="1185" 
d="M336 482q0 -64 -19 -110.5t-53 -71.5t-83 -25q-50 0 -84 25t-52.5 71t-18.5 111q0 56 17 107t54.5 79t86.5 28q73 0 112.5 -52t39.5 -162zM263 483q0 74 -19 111t-62 37q-24 0 -42.5 -15.5t-29 -49t-10.5 -85.5q0 -72 21.5 -107.5t60.5 -35.5q81 0 81 145zM263 -12h-55
l347 713h54zM787 200q0 -64 -19 -110.5t-53 -71.5t-83 -25q-50 0 -84 25t-52.5 71t-18.5 111q0 56 17 107t54.5 79t86.5 28q73 0 112.5 -52t39.5 -162zM714 201q0 74 -19 111t-62 37q-24 0 -42.5 -15.5t-29 -49t-10.5 -85.5q0 -72 21.5 -107.5t60.5 -35.5q81 0 81 145z
M1159 200q0 -64 -19 -110.5t-53 -71.5t-83 -25q-50 0 -84 25t-52.5 71t-18.5 111q0 56 17 107t54.5 79t86.5 28q73 0 112.5 -52t39.5 -162zM1086 201q0 74 -19 111t-62 37q-24 0 -42.5 -15.5t-29 -49t-10.5 -85.5q0 -72 21.5 -107.5t60.5 -35.5q81 0 81 145z" />
    <glyph glyph-name="guilsinglleft" unicode="&#x2039;" horiz-adv-x="257" 
d="M233 74h-86l-126 184l125 184h86l-122 -184z" />
    <glyph glyph-name="guilsinglright" unicode="&#x203a;" horiz-adv-x="257" 
d="M25 442h87l126 -184l-125 -184h-87l122 184z" />
    <glyph glyph-name="fraction" unicode="&#x2044;" horiz-adv-x="89" 
d="M-101 -12h-55l347 713h54z" />
    <glyph glyph-name="uni2070" unicode="&#x2070;" 
d="M336 620q0 -64 -19 -110.5t-53 -71.5t-83 -25q-50 0 -84 25t-52.5 71t-18.5 111q0 56 17 107t54.5 79t86.5 28q73 0 112.5 -52t39.5 -162zM263 621q0 74 -19 111t-62 37q-24 0 -42.5 -15.5t-29 -49t-10.5 -85.5q0 -72 21.5 -107.5t60.5 -35.5q81 0 81 145z" />
    <glyph glyph-name="uni2074" unicode="&#x2074;" 
d="M281 420h-72v109h-187v45l195 253h64v-244h58v-54h-58v-109zM209 583q0 129 1 156l-118 -156h117z" />
    <glyph glyph-name="uni2075" unicode="&#x2075;" 
d="M42 438v66q50 -29 111 -29q42 0 66.5 21t24.5 55q0 33 -24 50.5t-65 17.5q-25 0 -53 -5t-46 -13l22 226h216v-63h-163l-11 -100q23 10 62 10q26 0 57.5 -10t53.5 -38.5t22 -73.5q0 -66 -42 -102.5t-116 -36.5q-70 0 -115 25z" />
    <glyph glyph-name="uni2076" unicode="&#x2076;" 
d="M103 626q12 25 40 41.5t63 16.5q39 0 67.5 -17.5t40 -39.5t14.5 -40t3 -33q0 -66 -39.5 -103.5t-103.5 -37.5q-52 0 -86.5 24.5t-52.5 68.5t-18 107q0 69 21.5 117.5t62 76t97.5 27.5q60 0 94 -22v-68q-36 25 -88 25q-59 0 -86 -35.5t-29 -107.5zM107 572q2 -34 13 -58
q20 -41 67 -41q31 0 52.5 21.5t21.5 60.5q0 37 -20 54.5t-53 17.5q-29 0 -51 -15.5t-30 -39.5z" />
    <glyph glyph-name="uni2077" unicode="&#x2077;" 
d="M164 420h-74l147 344h-207v63h303z" />
    <glyph glyph-name="uni2078" unicode="&#x2078;" 
d="M105 631q-31 12 -47.5 36.5t-16.5 54.5q0 31 16.5 55.5t49 40.5t73.5 16q60 0 98.5 -29t38.5 -81q0 -30 -17.5 -55.5t-50.5 -36.5q39 -10 58.5 -36.5t19.5 -60.5q0 -54 -41.5 -88t-109.5 -34q-44 0 -81 17t-51.5 44t-14.5 56q0 35 20 62t56 39zM253 717q0 28 -20 43.5
t-54 15.5q-31 0 -52.5 -16t-21.5 -43q0 -26 19.5 -43.5t54.5 -17.5t54.5 16t19.5 45zM260 540q0 15 -7.5 30.5t-27.5 24t-47 8.5q-37 0 -59 -17.5t-22 -46.5q0 -17 8.5 -33t28 -24.5t43.5 -8.5q35 0 59 17.5t24 49.5z" />
    <glyph glyph-name="uni2079" unicode="&#x2079;" 
d="M254 618q-11 -23 -41 -38.5t-65 -15.5q-53 0 -88 32t-35 96q0 66 40.5 104t105.5 38q70 0 112 -50t42 -150q0 -70 -21.5 -118t-61.5 -75.5t-98 -27.5q-64 0 -96 21v69q36 -26 91 -26q37 0 61.5 13.5t38.5 43.5t15 84zM249 675q0 33 -12 57q-8 19 -25.5 30t-40.5 11
q-32 0 -54 -21t-22 -60q0 -37 20 -54.5t53 -17.5q30 0 53 16t28 39z" />
    <glyph glyph-name="uni207D" unicode="&#x207d;" horiz-adv-x="217" 
d="M165 326q-39 29 -69 68.5t-47 88.5t-17 109q0 49 13 100t45.5 96t73.5 74h47q-125 -102 -125 -269q0 -39 11.5 -86.5t41.5 -95t72 -85.5h-46z" />
    <glyph glyph-name="uni207E" unicode="&#x207e;" horiz-adv-x="217" 
d="M6 862h46q24 -17 55.5 -50.5t54.5 -89.5t23 -128q0 -48 -13.5 -99t-46 -95.5t-73.5 -73.5h-46q125 108 125 268q0 63 -19.5 117t-49 91t-56.5 60z" />
    <glyph glyph-name="uni207F" unicode="&#x207f;" horiz-adv-x="352" 
d="M114 282h-68v297h67v-35q37 42 94 42q77 0 94 -64q6 -20 6 -78v-162h-69v160q0 45 -5 58q-4 11 -13.5 19.5t-35.5 8.5q-23 0 -41.5 -11t-28.5 -26v-209z" />
    <glyph glyph-name="uni2080" unicode="&#x2080;" 
d="M336 74q0 -64 -19 -110.5t-53 -71.5t-83 -25q-50 0 -84 25t-52.5 71t-18.5 111q0 56 17 107t54.5 79t86.5 28q73 0 112.5 -52t39.5 -162zM263 75q0 74 -19 111t-62 37q-24 0 -42.5 -15.5t-29 -49t-10.5 -85.5q0 -72 21.5 -107.5t60.5 -35.5q81 0 81 145z" />
    <glyph glyph-name="uni2081" unicode="&#x2081;" 
d="M230 -126h-76v322l-80 -33v66l156 62v-417z" />
    <glyph glyph-name="uni2082" unicode="&#x2082;" 
d="M324 -126h-305q116 123 165 185q42 53 42 94q0 35 -20 52.5t-56 17.5q-26 0 -56 -11t-54 -29v62q26 20 59 31.5t68 11.5q66 0 99 -33t33 -86q0 -68 -53 -130q-33 -39 -94 -103q34 1 172 1v-63z" />
    <glyph glyph-name="uni2083" unicode="&#x2083;" 
d="M38 -108v66q23 -15 55 -22.5t60 -7.5q42 0 62 18.5t20 48.5q0 21 -14.5 36t-42.5 19q-30 4 -58 4h-14v58h14q41 0 56 5q44 14 44 52q0 25 -17.5 40.5t-54.5 15.5q-24 0 -52 -8.5t-49 -22.5v60q22 15 54.5 24.5t61.5 9.5q61 0 94.5 -28.5t33.5 -77.5q0 -22 -11 -43
t-31.5 -33.5t-40.5 -17.5q24 -3 47.5 -14t37.5 -33.5t14 -51.5q0 -55 -41 -88.5t-116 -33.5q-28 0 -60.5 6.5t-51.5 18.5z" />
    <glyph glyph-name="uni2084" unicode="&#x2084;" 
d="M281 -126h-72v109h-187v45l195 253h64v-244h58v-54h-58v-109zM209 37q0 129 1 156l-118 -156h117z" />
    <glyph glyph-name="uni2085" unicode="&#x2085;" 
d="M42 -108v66q50 -29 111 -29q42 0 66.5 21t24.5 55q0 33 -24 50.5t-65 17.5q-25 0 -53 -5t-46 -13l22 226h216v-63h-163l-11 -100q23 10 62 10q26 0 57.5 -10t53.5 -38.5t22 -73.5q0 -66 -42 -102.5t-116 -36.5q-70 0 -115 25z" />
    <glyph glyph-name="uni2086" unicode="&#x2086;" 
d="M103 80q12 25 40 41.5t63 16.5q39 0 67.5 -17.5t40 -39.5t14.5 -40t3 -33q0 -66 -39.5 -103.5t-103.5 -37.5q-52 0 -86.5 24.5t-52.5 68.5t-18 107q0 69 21.5 117.5t62 76t97.5 27.5q60 0 94 -22v-68q-36 25 -88 25q-59 0 -86 -35.5t-29 -107.5zM107 26q2 -34 13 -58
q20 -41 67 -41q31 0 52.5 21.5t21.5 60.5q0 37 -20 54.5t-53 17.5q-29 0 -51 -15.5t-30 -39.5z" />
    <glyph glyph-name="uni2087" unicode="&#x2087;" 
d="M164 -126h-74l147 344h-207v63h303z" />
    <glyph glyph-name="uni2088" unicode="&#x2088;" 
d="M105 85q-31 12 -47.5 36.5t-16.5 54.5q0 31 16.5 55.5t49 40.5t73.5 16q60 0 98.5 -29t38.5 -81q0 -30 -17.5 -55.5t-50.5 -36.5q39 -10 58.5 -36.5t19.5 -60.5q0 -54 -41.5 -88t-109.5 -34q-44 0 -81 17t-51.5 44t-14.5 56q0 35 20 62t56 39zM253 171q0 28 -20 43.5
t-54 15.5q-31 0 -52.5 -16t-21.5 -43q0 -26 19.5 -43.5t54.5 -17.5t54.5 16t19.5 45zM260 -6q0 15 -7.5 30.5t-27.5 24t-47 8.5q-37 0 -59 -17.5t-22 -46.5q0 -17 8.5 -33t28 -24.5t43.5 -8.5q35 0 59 17.5t24 49.5z" />
    <glyph glyph-name="uni2089" unicode="&#x2089;" 
d="M254 72q-11 -23 -41 -38.5t-65 -15.5q-53 0 -88 32t-35 96q0 66 40.5 104t105.5 38q70 0 112 -50t42 -150q0 -70 -21.5 -118t-61.5 -75.5t-98 -27.5q-64 0 -96 21v69q36 -26 91 -26q37 0 61.5 13.5t38.5 43.5t15 84zM249 129q0 33 -12 57q-8 19 -25.5 30t-40.5 11
q-32 0 -54 -21t-22 -60q0 -37 20 -54.5t53 -17.5q30 0 53 16t28 39z" />
    <glyph glyph-name="uni208D" unicode="&#x208d;" horiz-adv-x="217" 
d="M165 -220q-39 29 -69 68.5t-47 88.5t-17 109q0 49 13 100t45.5 96t73.5 74h47q-125 -102 -125 -269q0 -39 11.5 -86.5t41.5 -95t72 -85.5h-46z" />
    <glyph glyph-name="uni208E" unicode="&#x208e;" horiz-adv-x="217" 
d="M6 316h46q24 -17 55.5 -50.5t54.5 -89.5t23 -128q0 -48 -13.5 -99t-46 -95.5t-73.5 -73.5h-46q125 108 125 268q0 63 -19.5 117t-49 91t-56.5 60z" />
    <glyph glyph-name="Euro" unicode="&#x20ac;" horiz-adv-x="676" 
d="M481 252h-228q18 -87 69 -131.5t126 -44.5q99 0 174 54v-92q-37 -25 -82 -37t-105 -12q-113 0 -186.5 69.5t-93.5 193.5h-75v54h69l-1 39l2 45h-70v54h76q11 60 35.5 110t61 85.5t84.5 54.5t104 19q121 0 183 -48v-101q-63 60 -174 60q-78 0 -129 -47t-68 -133h228v-54
h-236l-1 -43l1 -41h236v-54z" />
    <glyph glyph-name="afii61289" unicode="&#x2113;" horiz-adv-x="465" 
d="M421 33q-60 -45 -140 -45q-69 0 -113 45.5t-60 134.5q-26 -20 -72 -50v83q38 26 58 43q-8 94 -8 139q0 160 48 239t137 79q24 0 51 -8t47 -30t28.5 -49t8.5 -55q0 -87 -50 -165.5t-168 -175.5q12 -150 108 -150q62 0 125 48v-83zM176 303q150 138 150 252q0 35 -16.5 54
t-42.5 19q-46 0 -71 -52t-25 -159q0 -59 5 -114z" />
    <glyph glyph-name="trademark" unicode="&#x2122;" horiz-adv-x="872" 
d="M235 328h-62v320h-112v58h286v-58h-112v-320zM473 328h-60v378h64q105 -155 115 -171q38 58 116 171h62v-378h-60l1 282q-81 -119 -121 -176q-95 140 -118 176q1 -44 1 -282z" />
    <glyph glyph-name="uni2126" unicode="&#x2126;" horiz-adv-x="720" 
d="M320 0h-264v89h196q-90 37 -140 116t-50 187q0 73 22.5 134t63.5 104.5t96.5 66.5t119.5 23t118.5 -23t93 -66t59.5 -103t21 -130q0 -107 -49 -186.5t-140 -122.5h196v-89h-263v122q75 30 119.5 100t44.5 158q0 55 -15 101.5t-42.5 79t-64.5 50t-80 17.5t-81 -17t-66 -49
t-44 -79.5t-16 -105.5q0 -87 44 -157.5t121 -98.5v-121z" />
    <glyph glyph-name="estimated" unicode="&#x212e;" horiz-adv-x="872" 
d="M833 336h-640q-6 0 -6 -5v-195q0 -10 10 -22q45 -48 108.5 -75.5t133.5 -27.5q74 0 141 31t113 84h59q-40 -46 -97.5 -79.5t-115 -46t-101.5 -12.5q-79 0 -152 27.5t-127.5 77t-85.5 115t-31 137.5q0 71 31 136.5t85.5 115t127.5 77t152 27.5t152 -27.5t127.5 -77
t85 -115t30.5 -136.5v-9zM689 361v195q0 13 -11 24q-46 46 -108 71.5t-131 25.5q-70 0 -132.5 -26.5t-108.5 -74.5q-11 -11 -11 -24v-191q0 -2 2 -3.5t4 -1.5h491q2 0 3.5 1.5t1.5 3.5z" />
    <glyph glyph-name="onethird" unicode="&#x2153;" horiz-adv-x="800" 
d="M228 -12h-55l347 713h54zM230 282h-76v322l-80 -33v66l156 62v-417zM471 18v66q23 -15 55 -22.5t60 -7.5q42 0 62 18.5t20 48.5q0 21 -14.5 36t-42.5 19q-30 4 -58 4h-14v58h14q41 0 56 5q44 14 44 52q0 25 -17.5 40.5t-54.5 15.5q-24 0 -52 -8.5t-49 -22.5v60
q22 15 54.5 24.5t61.5 9.5q61 0 94.5 -28.5t33.5 -77.5q0 -22 -11 -43t-31.5 -33.5t-40.5 -17.5q24 -3 47.5 -14t37.5 -33.5t14 -51.5q0 -55 -41 -88.5t-116 -33.5q-28 0 -60.5 6.5t-51.5 18.5z" />
    <glyph glyph-name="twothirds" unicode="&#x2154;" horiz-adv-x="800" 
d="M293 -12h-55l347 713h54zM342 282h-305q116 123 165 185q42 53 42 94q0 35 -20 52.5t-56 17.5q-26 0 -56 -11t-54 -29v62q26 20 59 31.5t68 11.5q66 0 99 -33t33 -86q0 -68 -53 -130q-33 -39 -94 -103q34 1 172 1v-63zM518 18v66q23 -15 55 -22.5t60 -7.5q42 0 62 18.5
t20 48.5q0 21 -14.5 36t-42.5 19q-30 4 -58 4h-14v58h14q41 0 56 5q44 14 44 52q0 25 -17.5 40.5t-54.5 15.5q-24 0 -52 -8.5t-49 -22.5v60q22 15 54.5 24.5t61.5 9.5q61 0 94.5 -28.5t33.5 -77.5q0 -22 -11 -43t-31.5 -33.5t-40.5 -17.5q24 -3 47.5 -14t37.5 -33.5
t14 -51.5q0 -55 -41 -88.5t-116 -33.5q-28 0 -60.5 6.5t-51.5 18.5z" />
    <glyph glyph-name="oneeighth" unicode="&#x215b;" horiz-adv-x="800" 
d="M228 -12h-55l347 713h54zM217 282h-76v322l-80 -33v66l156 62v-417zM540 211q-31 12 -47.5 36.5t-16.5 54.5q0 31 16.5 55.5t49 40.5t73.5 16q60 0 98.5 -29t38.5 -81q0 -30 -17.5 -55.5t-50.5 -36.5q39 -10 58.5 -36.5t19.5 -60.5q0 -54 -41.5 -88t-109.5 -34
q-44 0 -81 17t-51.5 44t-14.5 56q0 35 20 62t56 39zM688 297q0 28 -20 43.5t-54 15.5q-31 0 -52.5 -16t-21.5 -43q0 -26 19.5 -43.5t54.5 -17.5t54.5 16t19.5 45zM695 120q0 15 -7.5 30.5t-27.5 24t-47 8.5q-37 0 -59 -17.5t-22 -46.5q0 -17 8.5 -33t28 -24.5t43.5 -8.5
q35 0 59 17.5t24 49.5z" />
    <glyph glyph-name="threeeighths" unicode="&#x215c;" horiz-adv-x="800" 
d="M263 -12h-55l347 713h54zM58 300v66q23 -15 55 -22.5t60 -7.5q42 0 62 18.5t20 48.5q0 21 -14.5 36t-42.5 19q-30 4 -58 4h-14v58h14q41 0 56 5q44 14 44 52q0 25 -17.5 40.5t-54.5 15.5q-24 0 -52 -8.5t-49 -22.5v60q22 15 54.5 24.5t61.5 9.5q61 0 94.5 -28.5
t33.5 -77.5q0 -22 -11 -43t-31.5 -33.5t-40.5 -17.5q24 -3 47.5 -14t37.5 -33.5t14 -51.5q0 -55 -41 -88.5t-116 -33.5q-28 0 -60.5 6.5t-51.5 18.5zM554 211q-31 12 -47.5 36.5t-16.5 54.5q0 31 16.5 55.5t49 40.5t73.5 16q60 0 98.5 -29t38.5 -81q0 -30 -17.5 -55.5
t-50.5 -36.5q39 -10 58.5 -36.5t19.5 -60.5q0 -54 -41.5 -88t-109.5 -34q-44 0 -81 17t-51.5 44t-14.5 56q0 35 20 62t56 39zM702 297q0 28 -20 43.5t-54 15.5q-31 0 -52.5 -16t-21.5 -43q0 -26 19.5 -43.5t54.5 -17.5t54.5 16t19.5 45zM709 120q0 15 -7.5 30.5t-27.5 24
t-47 8.5q-37 0 -59 -17.5t-22 -46.5q0 -17 8.5 -33t28 -24.5t43.5 -8.5q35 0 59 17.5t24 49.5z" />
    <glyph glyph-name="fiveeighths" unicode="&#x215d;" horiz-adv-x="800" 
d="M254 -12h-55l347 713h54zM49 300v66q50 -29 111 -29q42 0 66.5 21t24.5 55q0 33 -24 50.5t-65 17.5q-25 0 -53 -5t-46 -13l22 226h216v-63h-163l-11 -100q23 10 62 10q26 0 57.5 -10t53.5 -38.5t22 -73.5q0 -66 -42 -102.5t-116 -36.5q-70 0 -115 25zM544 211
q-31 12 -47.5 36.5t-16.5 54.5q0 31 16.5 55.5t49 40.5t73.5 16q60 0 98.5 -29t38.5 -81q0 -30 -17.5 -55.5t-50.5 -36.5q39 -10 58.5 -36.5t19.5 -60.5q0 -54 -41.5 -88t-109.5 -34q-44 0 -81 17t-51.5 44t-14.5 56q0 35 20 62t56 39zM692 297q0 28 -20 43.5t-54 15.5
q-31 0 -52.5 -16t-21.5 -43q0 -26 19.5 -43.5t54.5 -17.5t54.5 16t19.5 45zM699 120q0 15 -7.5 30.5t-27.5 24t-47 8.5q-37 0 -59 -17.5t-22 -46.5q0 -17 8.5 -33t28 -24.5t43.5 -8.5q35 0 59 17.5t24 49.5z" />
    <glyph glyph-name="seveneighths" unicode="&#x215e;" horiz-adv-x="800" 
d="M227 -12h-55l347 713h54zM186 282h-74l147 344h-207v63h303zM525 211q-31 12 -47.5 36.5t-16.5 54.5q0 31 16.5 55.5t49 40.5t73.5 16q60 0 98.5 -29t38.5 -81q0 -30 -17.5 -55.5t-50.5 -36.5q39 -10 58.5 -36.5t19.5 -60.5q0 -54 -41.5 -88t-109.5 -34q-44 0 -81 17
t-51.5 44t-14.5 56q0 35 20 62t56 39zM673 297q0 28 -20 43.5t-54 15.5q-31 0 -52.5 -16t-21.5 -43q0 -26 19.5 -43.5t54.5 -17.5t54.5 16t19.5 45zM680 120q0 15 -7.5 30.5t-27.5 24t-47 8.5q-37 0 -59 -17.5t-22 -46.5q0 -17 8.5 -33t28 -24.5t43.5 -8.5q35 0 59 17.5
t24 49.5z" />
    <glyph glyph-name="arrowleft" unicode="&#x2190;" horiz-adv-x="783" 
d="M749 397v-88q-485 0 -569 1q38 -32 256 -252l-56 -58l-353 353l353 352l56 -59q-240 -236 -256 -250q89 1 569 1z" />
    <glyph glyph-name="arrowup" unicode="&#x2191;" horiz-adv-x="783" 
d="M436 0h-88q0 485 1 569q-32 -38 -252 -256l-58 56l353 353l352 -353l-59 -56q-227 231 -250 256q1 -89 1 -569z" />
    <glyph glyph-name="arrowright" unicode="&#x2192;" horiz-adv-x="783" 
d="M34 309v88q480 0 569 -1q-16 14 -256 250l56 59l353 -352l-353 -353l-56 58q218 220 256 252q-84 -1 -569 -1z" />
    <glyph glyph-name="arrowdown" unicode="&#x2193;" horiz-adv-x="783" 
d="M348 706h88q0 -480 -1 -569q6 7 250 256l59 -56l-352 -353l-353 353l58 56q220 -218 252 -256q-1 84 -1 569z" />
    <glyph glyph-name="uni2196" unicode="&#x2196;" horiz-adv-x="783" 
d="M679 120l-62 -62l-35 35t-174.5 175t-188.5 191l1 -358h-82v499h499v-79q-332 0 -362 1q123 -119 404 -402z" />
    <glyph glyph-name="uni2197" unicode="&#x2197;" horiz-adv-x="783" 
d="M166 58l-62 62q281 283 404 402q-30 -1 -362 -1v79h499v-499h-82l1 358q-42 -44 -183.5 -185.5t-214.5 -215.5z" />
    <glyph glyph-name="uni2198" unicode="&#x2198;" horiz-adv-x="783" 
d="M104 586l62 62l35.5 -35.5t179.5 -180t184 -185.5q-2 64 -2 358h82v-499h-499v79q333 0 363 -1q-107 102 -405 402z" />
    <glyph glyph-name="uni2199" unicode="&#x2199;" horiz-adv-x="783" 
d="M617 654l62 -62q-338 -340 -404 -402q30 1 362 1v-79h-499v499h82l-1 -357q39 41 398 400z" />
    <glyph glyph-name="partialdiff" unicode="&#x2202;" horiz-adv-x="561" 
d="M410 311q-21 26 -57 40t-72 14q-25 0 -50.5 -9.5t-45 -29.5t-30.5 -49.5t-11 -65.5q0 -45 15.5 -77.5t44.5 -50.5t66 -18q31 0 59.5 15t45.5 41.5t23 53.5q12 51 12 136zM129 600l-19 67q35 18 78 25.5t82 7.5q119 0 173 -96t54 -303q0 -69 -13.5 -126.5t-41.5 -99
t-72.5 -64.5t-102.5 -23q-44 0 -82.5 14.5t-66 42.5t-43 69.5t-15.5 91.5q0 41 11 82.5t37 73.5t67.5 52t98.5 20q79 0 130 -45q-3 86 -21 138t-49.5 77t-77.5 25q-29 0 -65.5 -7.5t-61.5 -21.5z" />
    <glyph glyph-name="uni2206" unicode="&#x2206;" horiz-adv-x="721" 
d="M711 0h-702l299 707h108zM361 603q-35 -93 -216 -511h430q-174 409 -214 511z" />
    <glyph glyph-name="product" unicode="&#x220f;" horiz-adv-x="702" 
d="M618 -99h-99v710h-336v-710h-99v805h534v-805z" />
    <glyph glyph-name="summation" unicode="&#x2211;" horiz-adv-x="583" 
d="M559 -100h-541l277 422l-259 384h507v-95h-326l197 -289l-219 -327h364v-95z" />
    <glyph glyph-name="minus" unicode="&#x2212;" horiz-adv-x="701" 
d="M601 262h-501v66h501v-66z" />
    <glyph glyph-name="uni2215" unicode="&#x2215;" horiz-adv-x="89" 
d="M-101 -12h-55l347 713h54z" />
    <glyph glyph-name="uni2219" unicode="&#x2219;" horiz-adv-x="217" 
d="M181 260q0 -28 -19.5 -47.5t-47.5 -19.5q-27 0 -45 19t-18 46q0 28 19 47t47 19q27 0 45.5 -18.5t18.5 -45.5z" />
    <glyph glyph-name="radical" unicode="&#x221a;" horiz-adv-x="645" 
d="M373 -178h-57l-161 284l-65 -35l-22 46l127 71l147 -269l176 787h61z" />
    <glyph glyph-name="infinity" unicode="&#x221e;" horiz-adv-x="730" 
d="M366 337q31 39 61.5 63.5t58.5 33t51 8.5q62 0 100.5 -42t38.5 -107q0 -67 -39.5 -109.5t-103.5 -42.5q-34 0 -71.5 18t-94.5 85q-47 -54 -86 -78.5t-86 -24.5q-63 0 -102.5 39.5t-39.5 106.5q0 69 41 112t106 43q46 0 83 -24.5t83 -80.5zM329 290q-40 48 -58 64
t-35.5 23t-36.5 7q-38 0 -63 -26.5t-25 -66.5q0 -39 24.5 -65t61.5 -26t66.5 22t65.5 68zM403 291q38 -49 68.5 -70t61.5 -21q26 0 47.5 14.5t29.5 35.5t8 39q0 42 -23 68.5t-62 26.5q-31 0 -62.5 -23t-67.5 -70z" />
    <glyph glyph-name="integral" unicode="&#x222b;" horiz-adv-x="336" 
d="M145 -26l-2 85l-18 436l-3 83q0 62 31.5 96t93.5 34q41 0 62 -8v-67q-32 10 -53 10q-35 0 -47.5 -22t-12.5 -54l2 -69l17 -436l4 -96q0 -67 -32 -96.5t-94 -29.5q-27 0 -56 9v69q27 -11 52 -11q27 0 41.5 14t14.5 53z" />
    <glyph glyph-name="approxequal" unicode="&#x2248;" horiz-adv-x="701" 
d="M132 322l-47 34q77 116 159 116q16 0 40 -7t79 -40q59 -36 97 -36q23 0 47.5 14t59.5 71l50 -31q-27 -45 -53 -73t-54 -38.5t-52 -10.5q-49 0 -117 41q-68 40 -100 40q-28 0 -54.5 -19t-54.5 -61zM132 120l-47 34q77 116 159 116q16 0 40 -7t79 -40q59 -36 97 -36
q23 0 47.5 14t59.5 71l50 -31q-27 -45 -53 -73t-54 -38.5t-52 -10.5q-49 0 -117 41q-68 40 -100 40q-28 0 -54.5 -19t-54.5 -61z" />
    <glyph glyph-name="notequal" unicode="&#x2260;" horiz-adv-x="701" 
d="M236 3h-57l77 155h-156v66h187l71 142h-258v66h289l70 141h57l-70 -141h155v-66h-186l-71 -142h257v-66h-288z" />
    <glyph glyph-name="lessequal" unicode="&#x2264;" horiz-adv-x="701" 
d="M570 135l-453 205v63l453 210v-75l-379 -166l379 -160v-77zM570 0h-453v66h453v-66z" />
    <glyph glyph-name="greaterequal" unicode="&#x2265;" horiz-adv-x="701" 
d="M130 613l453 -205v-63l-453 -210v75l380 166l-380 160v77zM584 0h-453v66h453v-66z" />
    <glyph glyph-name="lozenge" unicode="&#x25ca;" horiz-adv-x="711" 
d="M323 706h68l179 -351l-179 -355h-68l-184 354zM214 354l145 -278l138 279l-140 277z" />
    <glyph glyph-name="uniF6C3" unicode="&#xf6c3;" horiz-adv-x="168" 
d="M81 -294h-67q68 99 68 229h80q0 -69 -21.5 -128t-59.5 -101z" />
    <glyph glyph-name="dotlessi.case" horiz-adv-x="276" 
d="M189 0h-102v706h102v-706z" />
    <glyph glyph-name="Euro.dnom" horiz-adv-x="436" 
d="M313 146h-137q12 -45 42.5 -68t74.5 -23q29 0 57 8t50 22v-62q-43 -29 -118 -29q-35 0 -72.5 13t-67 49.5t-39.5 89.5h-47v35h42v23l1 24h-43v36h48q14 72 62.5 114t119.5 42q76 0 114 -26v-70q-21 17 -51 25t-56 8q-45 0 -75 -24.5t-41 -68.5h136v-36h-142l-1 -24l1 -23
h142v-35z" />
    <glyph glyph-name="Euro.sinf" horiz-adv-x="436" 
d="M313 20h-137q12 -44 42.5 -67.5t74.5 -23.5q29 0 57 8t50 22v-62q-43 -29 -118 -29q-35 0 -72.5 13t-67 49.5t-39.5 89.5h-47v35h42v23l1 24h-43v36h48q14 72 62.5 114t119.5 42q76 0 114 -26v-70q-21 17 -51 25t-56 8q-45 0 -75 -24.5t-41 -68.5h136v-36h-142l-1 -24
l1 -23h142v-35z" />
    <glyph glyph-name="Euro.numr" horiz-adv-x="436" 
d="M313 428h-137q12 -45 42.5 -68t74.5 -23q29 0 57 8t50 22v-62q-43 -29 -118 -29q-35 0 -72.5 13t-67 49.5t-39.5 89.5h-47v35h42v23l1 24h-43v36h48q14 72 62.5 114t119.5 42q76 0 114 -26v-70q-21 17 -51 25t-56 8q-45 0 -75 -24.5t-41 -68.5h136v-36h-142l-1 -24l1 -23
h142v-35z" />
    <glyph glyph-name="Euro.oldstyle" horiz-adv-x="661" 
d="M466 212h-210q19 -71 66.5 -105t112.5 -34q92 0 163 47v-90q-69 -41 -175 -41q-105 0 -173.5 59t-89.5 164h-71v51h64l-1 37l2 42h-65v53h72q23 104 93 165.5t174 61.5q112 0 172 -40v-97q-59 50 -164 50q-72 0 -117 -37.5t-62 -102.5h209v-53h-218l-2 -40l1 -39h219v-51
z" />
    <glyph glyph-name="Euro.superior" horiz-adv-x="436" 
d="M313 566h-137q12 -45 42.5 -68t74.5 -23q29 0 57 8t50 22v-62q-43 -29 -118 -29q-35 0 -72.5 13t-67 49.5t-39.5 89.5h-47v35h42v23l1 24h-43v36h48q14 72 62.5 114t119.5 42q76 0 114 -26v-70q-21 17 -51 25t-56 8q-45 0 -75 -24.5t-41 -68.5h136v-36h-142l-1 -24l1 -23
h142v-35z" />
    <glyph glyph-name="kgreenlandic.case" horiz-adv-x="690" 
d="M680 747h69q-75 -114 -76 -267h-83q0 79 24 148.5t66 118.5zM189 0h-102v706h102v-312q71 87 270 312h123l-298 -332l329 -374h-130q-209 238 -294 341v-341z" />
    <glyph glyph-name="germandbls.case" horiz-adv-x="1082" 
d="M45 56v109q44 -39 108 -63t117 -24q71 0 102.5 27.5t31.5 71.5q0 32 -26 59.5t-85 55.5l-88 41q-85 40 -121 84.5t-36 112.5q0 87 61 138t173 51q51 0 101 -13.5t86 -36.5v-106q-40 31 -93.5 49.5t-101.5 18.5q-59 0 -91 -27.5t-32 -68.5q0 -29 16 -53t80 -54l87 -41
q89 -42 131 -85.5t42 -118.5q0 -88 -62.5 -141.5t-179.5 -53.5q-63 0 -122.5 19.5t-97.5 48.5zM586 56v109q44 -39 108 -63t117 -24q71 0 102.5 27.5t31.5 71.5q0 32 -26 59.5t-85 55.5l-88 41q-85 40 -121 84.5t-36 112.5q0 87 61 138t173 51q51 0 101 -13.5t86 -36.5v-106
q-40 31 -93.5 49.5t-101.5 18.5q-59 0 -91 -27.5t-32 -68.5q0 -29 16 -53t80 -54l87 -41q89 -42 131 -85.5t42 -118.5q0 -88 -62.5 -141.5t-179.5 -53.5q-63 0 -122.5 19.5t-97.5 48.5z" />
    <glyph glyph-name="glyph138" horiz-adv-x="319" 
d="M275 282h-64v31q-34 -37 -89 -37q-43 0 -68 24t-25 61q0 46 38 68q43 24 142 32v9q0 27 -10 39q-7 9 -19.5 14t-28.5 5q-27 0 -56 -9.5t-49 -26.5v56q21 19 53 28.5t60 9.5q79 0 104 -51q12 -22 12 -79v-174zM209 351v68q-73 -7 -96 -20q-9 -5 -15 -15t-6 -20
q0 -16 13 -27.5t39 -11.5q36 0 65 26z" />
    <glyph glyph-name="glyph143" horiz-adv-x="179" 
d="M55 760h-95l133 137h126z" />
    <glyph glyph-name="b.ordn" horiz-adv-x="355" 
d="M46 297v426h66v-173q16 16 42 26t50 10q62 0 93.5 -39.5t31.5 -108.5q0 -82 -44 -122.5t-115 -40.5q-65 0 -124 22zM114 339q24 -12 64 -12q26 0 45.5 14.5t27 40t7.5 50.5q0 24 -7 48t-25 37.5t-42 13.5q-15 0 -35.5 -7.5t-34.5 -24.5v-160z" />
    <glyph glyph-name="braceleft.case" horiz-adv-x="312" 
d="M303 -75h-33q-74 0 -111 30q-40 34 -40 126v86q0 80 -23 112q-21 29 -75 34v57q63 8 80 39q18 30 18 105v91q0 77 34 116q35 38 119 38h31v-53h-26q-45 0 -65 -28q-19 -25 -19 -79v-87q0 -98 -31 -136q-18 -20 -59 -34q35 -7 54 -27q36 -38 36 -144v-88q0 -60 22 -83
q20 -24 64 -24h24v-51z" />
    <glyph glyph-name="braceright.case" horiz-adv-x="312" 
d="M8 759h34q72 0 110 -31q41 -35 41 -126v-86q0 -82 23 -112q18 -27 74 -34v-56q-60 -8 -80 -39q-17 -31 -17 -105v-92q0 -80 -34 -116q-14 -16 -40 -26.5t-79 -10.5h-32v52l24 -2q19 0 36.5 7t28.5 21q20 25 20 79v88q0 99 31 136q4 5 15.5 13.5t42.5 20.5q-35 7 -54 26
q-35 38 -35 144v89q0 58 -22 83q-10 12 -28 17.5t-37 5.5l-22 2v52z" />
    <glyph glyph-name="bracketleft.case" horiz-adv-x="260" 
d="M248 -65h-175v823h175v-53h-98v-717h98v-53z" />
    <glyph glyph-name="bracketright.case" horiz-adv-x="260" 
d="M12 754h175v-823h-175v53h98v716h-98v54z" />
    <glyph glyph-name="glyph177" horiz-adv-x="179" 
d="M-52 904h60q2 -22 11 -42.5t27.5 -30t42.5 -9.5q81 0 86 82h60q-1 -28 -10 -55.5t-27.5 -47.5t-46 -31t-63.5 -11q-68 0 -103.5 39t-36.5 106z" />
    <glyph glyph-name="bullet.case" horiz-adv-x="339" 
d="M294 330q0 -26 -12 -56t-43.5 -51.5t-70.5 -21.5q-24 0 -52.5 12t-49.5 43.5t-21 71.5q0 60 37.5 95.5t88.5 35.5q23 0 51.5 -11t50 -41.5t21.5 -76.5z" />
    <glyph glyph-name="glyph184" horiz-adv-x="171" 
d="M81 544h-67q68 99 68 229h80q0 -69 -21.5 -128t-59.5 -101z" />
    <glyph glyph-name="glyph185" horiz-adv-x="179" 
d="M171 897h83l-127 -137h-73l-128 137h84l82 -67z" />
    <glyph glyph-name="glyph191" horiz-adv-x="179" 
d="M-10 -247v57q14 -9 35 -14t38 -5q29 0 42.5 14t13.5 34t-16.5 33t-46.5 13q-25 0 -41 -7l34 129h55l-21 -72l13 1q43 0 67.5 -26t24.5 -70q0 -51 -34 -78.5t-90 -27.5q-19 0 -40.5 5.5t-33.5 13.5z" />
    <glyph glyph-name="cent.dnom" horiz-adv-x="326" 
d="M212 -51h-38v49q-27 3 -57 18t-49 49t-19 80q0 59 34 99t91 48v52h38v-49q46 -2 79 -21v-66q-16 12 -38 20t-41 9v-183q8 0 30.5 4t50.5 22v-59q-34 -22 -81 -25v-47zM119 147q0 -35 14.5 -57.5t40.5 -30.5v173q-28 -9 -41.5 -31.5t-13.5 -53.5z" />
    <glyph glyph-name="cent.sinf" horiz-adv-x="326" 
d="M212 -177h-38v49q-42 5 -72.5 28.5t-41.5 56.5t-11 62q0 59 34 99t91 48v52h38v-49q46 -2 79 -21v-66q-16 12 -38 20t-41 9v-183q8 0 30.5 4t50.5 22v-59q-34 -22 -81 -25v-47zM119 21q0 -69 55 -87v172q-28 -9 -41.5 -31.5t-13.5 -53.5z" />
    <glyph glyph-name="cent.numr" horiz-adv-x="326" 
d="M212 231h-38v48q-59 8 -92 47t-33 101q0 59 34 99t91 48v52h38v-49q46 -2 79 -21v-66q-16 12 -38 20t-41 9v-183q8 0 30.5 4t50.5 22v-59q-37 -24 -81 -25v-47zM119 429q0 -35 14.5 -57.5t40.5 -30.5v173q-28 -9 -41.5 -31.5t-13.5 -53.5z" />
    <glyph glyph-name="cent.oldstyle" horiz-adv-x="490" 
d="M325 -86h-55v80q-94 8 -145.5 70t-51.5 163q0 96 52 159.5t145 74.5v87h55v-86q30 -1 60.5 -10t53.5 -22v-90q-23 19 -53.5 31t-60.5 13v-312q30 1 60.5 12t55.5 30v-83q-51 -32 -116 -37v-80zM168 231q0 -66 27 -104.5t75 -49.5v302q-25 -6 -49.5 -23t-38.5 -50.5
t-14 -74.5z" />
    <glyph glyph-name="cent.superior" horiz-adv-x="326" 
d="M212 369h-38v48q-59 8 -92 47t-33 101q0 59 34 99t91 48v52h38v-49q46 -2 79 -21v-66q-16 12 -38 20t-41 9v-183q8 0 30.5 4t50.5 22v-59q-37 -24 -81 -25v-47zM119 567q0 -35 14.5 -57.5t40.5 -30.5v173q-28 -9 -41.5 -31.5t-13.5 -53.5z" />
    <glyph glyph-name="glyph199" horiz-adv-x="179" 
d="M9 760h-83l127 137h73l128 -137h-84l-82 67z" />
    <glyph glyph-name="comma.dnom" horiz-adv-x="155" 
d="M59 -91h-56q52 79 52 179h68q0 -54 -17.5 -100.5t-46.5 -78.5z" />
    <glyph glyph-name="comma.sinf" horiz-adv-x="155" 
d="M59 -217h-56q52 79 52 179h68q0 -54 -17.5 -100.5t-46.5 -78.5z" />
    <glyph glyph-name="comma.numr" horiz-adv-x="155" 
d="M55 191h-53q52 82 52 184h66q0 -55 -18 -103t-47 -81z" />
    <glyph glyph-name="comma.superior" horiz-adv-x="155" 
d="M59 329h-56q52 79 52 179h68q0 -54 -17.5 -100.5t-46.5 -78.5z" />
    <glyph glyph-name="d.ordn" horiz-adv-x="357" 
d="M308 282h-66v28q-17 -18 -41.5 -26.5t-50.5 -8.5q-59 0 -92.5 40.5t-33.5 108.5q0 72 37.5 116.5t106.5 44.5q22 0 42.5 -6t30.5 -17v161h67v-441zM240 360v146q-8 11 -24.5 18.5t-36.5 7.5q-37 0 -61 -27t-24 -78q0 -25 7.5 -49t26.5 -37t42 -13q19 0 39.5 10t30.5 22z
" />
    <glyph glyph-name="glyph217" horiz-adv-x="179" 
d="M55 829q0 -23 -15 -38.5t-37 -15.5q-23 0 -37 15t-14 38t14.5 38.5t37.5 15.5t37 -15t14 -38zM227 829q0 -23 -15 -38.5t-37 -15.5q-23 0 -37 15t-14 38t14.5 38.5t37.5 15.5t37 -15t14 -38z" />
    <glyph glyph-name="dollar.dnom" horiz-adv-x="363" 
d="M207 -51h-39v47q-26 1 -59.5 10t-60.5 29v71q24 -21 58 -33.5t62 -14.5v119l-22 9q-51 20 -73.5 47t-22.5 67q0 46 30.5 75t87.5 35v46h39v-46q27 -1 54.5 -9t44.5 -19v-69q-14 11 -39.5 21.5t-59.5 14.5v-115l18 -7q33 -13 57.5 -29t36 -37.5t11.5 -49.5
q0 -33 -17 -59.5t-45.5 -39t-60.5 -15.5v-48zM256 110q0 17 -11.5 28.5t-37.5 22.5v-103q25 4 37 18t12 34zM123 301q0 -14 8 -27t37 -25v99q-16 -3 -30.5 -14.5t-14.5 -32.5z" />
    <glyph glyph-name="dollar.sinf" horiz-adv-x="363" 
d="M207 -177h-39v47q-26 1 -59.5 10t-60.5 29v71q24 -21 57.5 -33t62.5 -15v119l-22 9q-51 20 -73.5 47t-22.5 67q0 46 30.5 75t87.5 35v46h39v-46q27 -1 54.5 -9t44.5 -19v-69q-14 11 -39.5 21.5t-59.5 14.5v-115l18 -7q33 -13 57.5 -29t36 -37.5t11.5 -49.5
q0 -46 -31.5 -77t-91.5 -37v-48zM256 -16q0 17 -11.5 28.5t-37.5 22.5v-102q25 4 37 18t12 33zM123 175q0 -14 8 -27t37 -25v99q-16 -3 -30.5 -14.5t-14.5 -32.5z" />
    <glyph glyph-name="dollar.numr" horiz-adv-x="363" 
d="M207 231h-39v46q-32 2 -65 13t-55 27v71q24 -21 58 -33.5t62 -14.5v119l-22 9q-51 20 -73.5 47t-22.5 67q0 46 30.5 75t87.5 35v46h39v-46q27 -1 54.5 -9t44.5 -19v-69q-14 11 -39.5 21.5t-59.5 14.5v-115l18 -7q33 -13 57.5 -29t36 -37.5t11.5 -49.5q0 -46 -31.5 -77.5
t-91.5 -37.5v-47zM256 392q0 17 -11.5 28.5t-37.5 22.5v-103q25 4 37 18t12 34zM123 583q0 -14 8 -27t37 -25v99q-16 -3 -30.5 -14.5t-14.5 -32.5z" />
    <glyph glyph-name="dollar.oldstyle" horiz-adv-x="527" 
d="M291 -86h-56v79q-38 2 -86.5 15t-87.5 40v99q16 -14 43 -30t62.5 -26.5t68.5 -13.5v192l-33 14q-74 31 -106.5 73t-32.5 99q0 51 23 85.5t60.5 53t88.5 23.5v84h56v-83q36 -2 75.5 -13t67.5 -30v-94q-22 16 -58.5 32t-84.5 21v-188l23 -10q78 -32 115.5 -71.5
t37.5 -102.5q0 -69 -45.5 -114.5t-130.5 -53.5v-80zM375 157q0 28 -19 48.5t-65 40.5v-168q43 6 63.5 26.5t20.5 52.5zM155 457q0 -25 13.5 -45.5t66.5 -42.5v165q-40 -6 -60 -27t-20 -50z" />
    <glyph glyph-name="dollar.superior" horiz-adv-x="363" 
d="M207 369h-39v46q-32 2 -65 13t-55 27v71q24 -21 58 -33.5t62 -14.5v119l-22 9q-51 20 -73.5 47t-22.5 67q0 46 30.5 75t87.5 35v46h39v-46q27 -1 54.5 -9t44.5 -19v-69q-14 11 -39.5 21.5t-59.5 14.5v-115l18 -7q33 -13 57.5 -29t36 -37.5t11.5 -49.5q0 -46 -31.5 -77.5
t-91.5 -37.5v-47zM256 530q0 17 -11.5 28.5t-37.5 22.5v-103q25 4 37 18t12 34zM123 721q0 -14 8 -27t37 -25v99q-16 -3 -30.5 -14.5t-14.5 -32.5z" />
    <glyph glyph-name="glyph226" horiz-adv-x="179" 
d="M142 829q0 -23 -15 -38.5t-37 -15.5q-23 0 -37 15t-14 38t14.5 38.5t37.5 15.5t37 -15t14 -38z" />
    <glyph glyph-name="e.ordn" horiz-adv-x="321" 
d="M297 305q-53 -30 -114 -30q-74 0 -115.5 41.5t-41.5 114.5q0 70 39 112.5t105 42.5t98 -39t32 -106v-22h-204q1 -21 10.5 -42t34 -33.5t56.5 -12.5q25 0 52 8t48 22v-56zM97 464h141q-4 71 -68 71q-31 0 -51.5 -19.5t-21.5 -51.5z" />
    <glyph glyph-name="egrave.ordn" horiz-adv-x="326" 
d="M297 305q-53 -30 -114 -30q-74 0 -115.5 41.5t-41.5 114.5q0 70 39 112.5t105 42.5t98 -39t32 -106v-22h-204q1 -21 10.5 -42t34 -33.5t56.5 -12.5q25 0 52 8t48 22v-56zM97 464h141q-4 69 -68 69q-31 0 -51.5 -19t-21.5 -50zM221 623h-58l-90 100h77z" />
    <glyph glyph-name="eight.dnom" 
d="M105 211q-31 12 -47.5 36.5t-16.5 54.5q0 31 16.5 55.5t49 40.5t73.5 16q60 0 98.5 -29t38.5 -81q0 -30 -17.5 -55.5t-50.5 -36.5q39 -10 58.5 -36.5t19.5 -60.5q0 -54 -41.5 -88t-109.5 -34q-44 0 -81 17t-51.5 44t-14.5 56q0 35 20 62t56 39zM253 297q0 28 -20 43.5
t-54 15.5q-31 0 -52.5 -16t-21.5 -43q0 -26 19.5 -43.5t54.5 -17.5t54.5 16t19.5 45zM260 120q0 15 -7.5 30.5t-27.5 24t-47 8.5q-37 0 -59 -17.5t-22 -46.5q0 -17 8.5 -33t28 -24.5t43.5 -8.5q35 0 59 17.5t24 49.5z" />
    <glyph glyph-name="eight.pnum" horiz-adv-x="546" 
d="M169 357q-25 10 -50.5 30.5t-41 54t-15.5 72.5q0 31 11 63t37.5 59.5t68.5 46t96 18.5q58 0 108.5 -21t77 -65t26.5 -99q0 -37 -16 -71.5t-42.5 -55t-52.5 -29.5q62 -16 94.5 -64t32.5 -107q0 -90 -63.5 -145.5t-170.5 -55.5q-71 0 -121.5 26t-77.5 69t-27 103
q0 43 19 81t49 59.5t58 30.5zM401 510q0 52 -34 81.5t-93 29.5q-52 0 -89 -30.5t-37 -81.5q0 -48 33 -81.5t93 -33.5q28 0 58.5 10.5t49.5 38.5t19 67zM413 196q0 61 -37.5 91t-100.5 30q-32 0 -64.5 -11t-54.5 -41.5t-22 -69.5q0 -23 8 -46t28 -42t49 -28t53 -9
q43 0 75 16.5t45.5 37.5t17 39t3.5 33z" />
    <glyph glyph-name="eight.frac" 
d="M105 493q-31 12 -47.5 36.5t-16.5 54.5q0 31 16.5 55.5t49 40.5t73.5 16q60 0 98.5 -29t38.5 -81q0 -30 -17.5 -55.5t-50.5 -36.5q39 -10 58.5 -36.5t19.5 -60.5q0 -54 -41.5 -88t-109.5 -34q-44 0 -81 17t-51.5 44t-14.5 56q0 35 20 62t56 39zM253 579q0 28 -20 43.5
t-54 15.5q-31 0 -52.5 -16t-21.5 -43q0 -26 19.5 -43.5t54.5 -17.5t54.5 16t19.5 45zM260 402q0 15 -7.5 30.5t-27.5 24t-47 8.5q-37 0 -59 -17.5t-22 -46.5q0 -17 8.5 -33t28 -24.5t43.5 -8.5q35 0 59 17.5t24 49.5z" />
    <glyph glyph-name="eight.pnum.oldstyle" horiz-adv-x="524" 
d="M160 347q-24 10 -48.5 29.5t-39.5 52.5t-15 71q0 40 16 73.5t44.5 57.5t66 37t79.5 13q92 0 148.5 -47t56.5 -132q0 -51 -27.5 -92.5t-79.5 -59.5q60 -16 91.5 -62.5t31.5 -104.5q0 -87 -61.5 -141t-164.5 -54q-68 0 -117.5 25.5t-75.5 67.5t-26 100q0 41 18 78t47 58
t56 30zM384 494q0 23 -10.5 48.5t-40 42t-70.5 16.5q-51 0 -86.5 -29t-35.5 -78q0 -46 31.5 -77t89.5 -31q42 0 71.5 17t40 42.5t10.5 48.5zM396 190q0 58 -37.5 86t-95.5 28q-62 0 -98.5 -30.5t-36.5 -82.5q0 -38 16.5 -64.5t47.5 -41.5t69 -15q41 0 72 15.5t47 41.5t16 63
z" />
    <glyph glyph-name="eight.oldstyle" horiz-adv-x="524" 
d="M160 347q-24 10 -48.5 29.5t-39.5 52.5t-15 71q0 40 16 73.5t44.5 57.5t66 37t79.5 13q92 0 148.5 -47t56.5 -132q0 -51 -27.5 -92.5t-79.5 -59.5q60 -16 91.5 -62.5t31.5 -104.5q0 -87 -61.5 -141t-164.5 -54q-68 0 -117.5 25.5t-75.5 67.5t-26 100q0 41 18 78t47 58
t56 30zM384 494q0 23 -10.5 48.5t-40 42t-70.5 16.5q-51 0 -86.5 -29t-35.5 -78q0 -46 31.5 -77t89.5 -31q42 0 71.5 17t40 42.5t10.5 48.5zM396 190q0 58 -37.5 86t-95.5 28q-62 0 -98.5 -30.5t-36.5 -82.5q0 -38 16.5 -64.5t47.5 -41.5t69 -15q41 0 72 15.5t47 41.5t16 63
z" />
    <glyph glyph-name="emdash.case" horiz-adv-x="860" 
d="M814 293h-768v72h768v-72z" />
    <glyph glyph-name="endash.case" horiz-adv-x="543" 
d="M497 293h-451v72h451v-72z" />
    <glyph glyph-name="estimated.salt" horiz-adv-x="840" 
d="M767 56q-133 -68 -291 -68q-93 0 -169 24t-129 70t-81 114.5t-28 154.5q0 78 26.5 143.5t76 111.5t118 70.5t148.5 24.5q86 0 151 -25t106 -70t61 -106t20 -132v-43h-609q11 -254 324 -254q68 0 144.5 20t131.5 55v-90zM168 403h513q-3 102 -65.5 161.5t-178.5 59.5
q-43 0 -88.5 -11.5t-84 -38.5t-65 -70t-31.5 -101z" />
    <glyph glyph-name="exclamdown.case" horiz-adv-x="272" 
d="M81 480h77q14 -339 14 -480h-104q0 140 13 480zM55 647q0 28 19.5 47.5t47.5 19.5q27 0 45 -19t18 -46q0 -28 -19 -47t-47 -19q-27 0 -45.5 18.5t-18.5 45.5z" />
    <glyph glyph-name="five.dnom" 
d="M42 18v66q50 -29 111 -29q42 0 66.5 21t24.5 55q0 33 -24 50.5t-65 17.5q-25 0 -53 -5t-46 -13l22 226h216v-63h-163l-11 -100q23 10 62 10q26 0 57.5 -10t53.5 -38.5t22 -73.5q0 -66 -42 -102.5t-116 -36.5q-70 0 -115 25z" />
    <glyph glyph-name="five.pnum" horiz-adv-x="525" 
d="M52 29v100q81 -52 174 -52q71 0 112 38.5t41 103.5q0 63 -40 94.5t-110 31.5q-36 0 -79 -8t-74 -23l35 375h330v-89h-257l-19 -190q17 8 45.5 12.5t53.5 4.5q68 0 115 -25t71.5 -70t24.5 -111q0 -109 -65 -171t-179 -62q-110 0 -179 41z" />
    <glyph glyph-name="five.frac" 
d="M42 300v66q50 -29 111 -29q42 0 66.5 21t24.5 55q0 33 -24 50.5t-65 17.5q-25 0 -53 -5t-46 -13l22 226h216v-63h-163l-11 -100q23 10 62 10q26 0 57.5 -10t53.5 -38.5t22 -73.5q0 -66 -42 -102.5t-116 -36.5q-70 0 -115 25z" />
    <glyph glyph-name="five.pnum.oldstyle" horiz-adv-x="493" 
d="M41 -95v96q77 -53 171 -53q71 0 112 37.5t41 101.5q0 62 -40 94.5t-110 32.5q-35 0 -77.5 -8.5t-73.5 -23.5l35 360h326v-88h-255l-17 -180q43 18 96 18q67 0 113 -24.5t71 -69t25 -110.5q0 -107 -64 -167.5t-177 -60.5q-105 0 -176 45z" />
    <glyph glyph-name="five.oldstyle" horiz-adv-x="524" 
d="M65 -95v96q77 -53 171 -53q71 0 112 37.5t41 101.5q0 62 -40 94.5t-110 32.5q-35 0 -77.5 -8.5t-73.5 -23.5l35 360h326v-88h-255l-17 -180q43 18 96 18q67 0 113 -24.5t71 -69t25 -110.5q0 -107 -64 -167.5t-177 -60.5q-105 0 -176 45z" />
    <glyph glyph-name="florin.dnom" horiz-adv-x="316" 
d="M13 -68v61q4 -2 17 -7.5t29 -5.5q32 0 40 23q5 12 7 41l14 160h-58v48h60l5 47q2 21 8 41.5t13 31.5q13 19 36.5 30.5t53.5 11.5q18 0 36.5 -4.5t27.5 -11.5v-61q-10 7 -24.5 11t-25.5 4q-28 0 -41 -16q-10 -14 -13 -45l-3 -39h71v-48h-75l-13 -164q-2 -37 -12 -64
q-8 -23 -32.5 -39.5t-66.5 -16.5q-33 0 -54 12z" />
    <glyph glyph-name="florin.sinf" horiz-adv-x="316" 
d="M13 -194v61q4 -2 17 -7.5t29 -5.5q32 0 40 23q5 12 7 41l14 160h-58v48h60l5 47q2 21 8 41.5t13 31.5q13 19 36.5 30.5t53.5 11.5q18 0 36.5 -4.5t27.5 -11.5v-61q-10 7 -24.5 11t-25.5 4q-28 0 -41 -16q-10 -14 -13 -45l-3 -39h71v-48h-75l-13 -164q-2 -37 -12 -64
q-8 -23 -32.5 -39.5t-66.5 -16.5q-33 0 -54 12z" />
    <glyph glyph-name="florin.numr" horiz-adv-x="316" 
d="M13 214v61q4 -2 17 -7.5t29 -5.5q32 0 40 23q5 12 7 41l14 160h-58v48h60l5 47q2 21 8 41.5t13 31.5q13 19 36.5 30.5t53.5 11.5q18 0 36.5 -4.5t27.5 -11.5v-61q-10 7 -24.5 11t-25.5 4q-28 0 -41 -16q-10 -14 -13 -45l-3 -39h71v-48h-75l-13 -164q-2 -37 -12 -64
q-8 -23 -32.5 -39.5t-66.5 -16.5q-33 0 -54 12z" />
    <glyph glyph-name="florin.oldstyle" horiz-adv-x="479" 
d="M23 -99v86q14 -10 34.5 -15.5t35.5 -5.5q46 0 60 33q8 20 12 65l19 251h-88v66h92l6 64q7 77 33 115q19 27 52 44t72 17q28 0 53.5 -5t39.5 -15v-85q-14 11 -36.5 17t-38.5 6q-19 0 -36 -6.5t-26 -18.5q-15 -18 -20 -77l-5 -56h107v-66h-112l-19 -256q-4 -51 -19 -96
q-7 -21 -25.5 -40.5t-49 -30t-61.5 -10.5q-20 0 -43 5.5t-37 13.5z" />
    <glyph glyph-name="florin.superior" horiz-adv-x="316" 
d="M13 352v61q4 -2 17 -7.5t29 -5.5q32 0 40 23q5 12 7 41l14 160h-58v48h60l5 47q2 21 8 41.5t13 31.5q13 19 36.5 30.5t53.5 11.5q18 0 36.5 -4.5t27.5 -11.5v-61q-10 7 -24.5 11t-25.5 4q-28 0 -41 -16q-10 -14 -13 -45l-3 -39h71v-48h-75l-13 -164q-2 -37 -12 -64
q-8 -23 -32.5 -39.5t-66.5 -16.5q-33 0 -54 12z" />
    <glyph glyph-name="four.dnom" 
d="M281 0h-72v109h-187v45l195 253h64v-244h58v-54h-58v-109zM209 163q0 129 1 156l-118 -156h117z" />
    <glyph glyph-name="four.pnum" horiz-adv-x="563" 
d="M444 0h-95v193h-311v64l323 432h83v-419h94v-77h-94v-193zM349 270q0 247 2 295q-55 -81 -214 -295h212z" />
    <glyph glyph-name="four.frac" 
d="M281 282h-72v109h-187v45l195 253h64v-244h58v-54h-58v-109zM209 445q0 129 1 156l-118 -156h117z" />
    <glyph glyph-name="four.pnum.oldstyle" horiz-adv-x="538" 
d="M430 -138h-94v192h-310v63l322 432h82v-418h94v-77h-94v-192zM336 131q0 253 2 301q-21 -30 -218 -301h216z" />
    <glyph glyph-name="four.oldstyle" horiz-adv-x="524" 
d="M418 -138h-94v192h-298v63l310 432h82v-418h94v-77h-94v-192zM324 131q0 244 2 292q-42 -64 -206 -292h204z" />
    <glyph glyph-name="four_fraction_five.frac" horiz-adv-x="800" 
d="M281 -12h-55l347 713h54zM285 282h-72v109h-187v45l195 253h64v-244h58v-54h-58v-109zM213 445q0 129 1 156l-118 -156h117zM505 18v66q50 -29 111 -29q42 0 66.5 21t24.5 55q0 33 -24 50.5t-65 17.5q-25 0 -53 -5t-46 -13l22 226h216v-63h-163l-11 -100q23 10 62 10
q26 0 57.5 -10t53.5 -38.5t22 -73.5q0 -66 -42 -102.5t-116 -36.5q-70 0 -115 25z" />
    <glyph glyph-name="glyph307" horiz-adv-x="179" 
d="M219 760h-95l-164 137h126z" />
    <glyph glyph-name="guillemotleft.case" horiz-adv-x="434" 
d="M233 144h-86l-126 184l125 184h86l-122 -184zM409 144h-87l-126 184l125 184h87l-122 -184z" />
    <glyph glyph-name="guillemotright.case" horiz-adv-x="434" 
d="M201 512h86l126 -184l-125 -184h-86l122 184zM25 512h87l126 -184l-125 -184h-87l122 184z" />
    <glyph glyph-name="guilsinglleft.case" horiz-adv-x="257" 
d="M233 144h-86l-126 184l125 184h86l-122 -184z" />
    <glyph glyph-name="guilsinglright.case" horiz-adv-x="259" 
d="M25 512h87l126 -184l-125 -184h-87l122 184z" />
    <glyph glyph-name="h.ordn" horiz-adv-x="352" 
d="M114 282h-68v441h67v-179q16 19 42 30.5t54 11.5q67 0 87 -49q11 -28 11 -93v-162h-69v160q0 45 -5 58q-6 13 -17 20.5t-33 7.5q-19 0 -38 -10.5t-31 -26.5v-209z" />
    <glyph glyph-name="glyph323" horiz-adv-x="179" 
d="M-29 760h-88l130 137h113zM142 760h-87l129 137h113z" />
    <glyph glyph-name="hyphen.case" horiz-adv-x="346" 
d="M301 291h-255v77h255v-77z" />
    <glyph glyph-name="hyphen.dnom" horiz-adv-x="224" 
d="M193 164h-161v57h161v-57z" />
    <glyph glyph-name="hyphen.sinf" horiz-adv-x="224" 
d="M193 38h-161v57h161v-57z" />
    <glyph glyph-name="hyphen.numr" horiz-adv-x="224" 
d="M193 446h-161v57h161v-57z" />
    <glyph glyph-name="hyphen.superior" horiz-adv-x="224" 
d="M193 584h-161v57h161v-57z" />
    <glyph glyph-name="i.ordn" horiz-adv-x="161" 
d="M115 282h-69v297h69v-297zM119 672q0 -16 -11.5 -27t-27.5 -11t-26.5 11t-10.5 26q0 17 11 28t27 11t27 -11t11 -27z" />
    <glyph glyph-name="i.locl" horiz-adv-x="244" 
d="M168 0h-92v500h92v-500zM179 659q0 -25 -16.5 -41.5t-41.5 -16.5q-24 0 -40 16t-16 40q0 25 17 42t41 17t40 -16.5t16 -40.5z" />
    <glyph glyph-name="l.ordn" horiz-adv-x="161" 
d="M115 282h-69v441h69v-441z" />
    <glyph glyph-name="m.ordn" horiz-adv-x="534" 
d="M114 282h-68v297h67v-35q16 19 40.5 30.5t52.5 11.5q62 0 84 -50q18 22 45 36t58 14q65 0 85 -50q3 -6 7 -23.5t4 -68.5v-162h-68v160q0 42 -5 55q-11 31 -48 31q-41 0 -68 -37q2 -15 2 -47v-162h-68v160q0 43 -5 56q-5 14 -18 22t-31 8q-39 0 -66 -37v-209z" />
    <glyph glyph-name="glyph364" horiz-adv-x="179" 
d="M223 789h-267v70h267v-70z" />
    <glyph glyph-name="nine.dnom" 
d="M254 198q-11 -23 -41 -38.5t-65 -15.5q-53 0 -88 32t-35 96q0 66 40.5 104t105.5 38q70 0 112 -50t42 -150q0 -70 -21.5 -118t-61.5 -75.5t-98 -27.5q-64 0 -96 21v69q36 -26 91 -26q37 0 61.5 13.5t38.5 43.5t15 84zM249 255q0 33 -12 57q-8 19 -25.5 30t-40.5 11
q-32 0 -54 -21t-22 -60q0 -37 20 -54.5t53 -17.5q30 0 53 16t28 39z" />
    <glyph glyph-name="nine.pnum" horiz-adv-x="557" 
d="M409 343q-14 -27 -46 -51.5t-67 -34.5t-62 -10q-63 0 -106.5 27.5t-66 74.5t-22.5 113q0 55 16.5 100t46.5 76t72 47t91 16q51 0 94.5 -19t75.5 -60t50 -107t18 -154q0 -73 -12.5 -133t-35 -103t-53.5 -72t-75 -47t-104 -18q-98 0 -149 36v100q55 -45 142 -45
q63 0 104.5 25.5t64.5 81.5t24 157zM402 435q-2 61 -22 104q-15 35 -45 55.5t-71 20.5q-33 0 -65 -16.5t-49.5 -53t-17.5 -82.5q0 -36 11.5 -69t42 -52t72.5 -19q54 0 94 32.5t50 79.5z" />
    <glyph glyph-name="nine.frac" 
d="M254 480q-11 -23 -41 -38.5t-65 -15.5q-53 0 -88 32t-35 96q0 66 40.5 104t105.5 38q70 0 112 -50t42 -150q0 -70 -21.5 -118t-61.5 -75.5t-98 -27.5q-64 0 -96 21v69q36 -26 91 -26q37 0 61.5 13.5t38.5 43.5t15 84zM249 537q0 33 -12 57q-8 19 -25.5 30t-40.5 11
q-32 0 -54 -21t-22 -60q0 -37 20 -54.5t53 -17.5q30 0 53 16t28 39z" />
    <glyph glyph-name="nine.pnum.oldstyle" horiz-adv-x="534" 
d="M396 203q-24 -39 -68.5 -63.5t-99.5 -24.5q-61 0 -102.5 26t-62.5 71.5t-21 109.5q0 40 9 75.5t26 63t40.5 47.5t59 33.5t82.5 13.5q78 0 128 -39t75.5 -111t25.5 -180q0 -93 -20.5 -163.5t-57 -115t-85.5 -65.5t-106 -21q-91 0 -144 35v98q56 -43 139 -43q59 0 98 26
t61 80.5t23 146.5zM389 300q-2 61 -18 97q-16 34 -44.5 54.5t-68.5 20.5q-24 0 -47.5 -9.5t-40.5 -28t-27 -47t-10 -64.5q0 -69 31.5 -101.5t87.5 -32.5q40 0 71.5 19t46 45t19.5 47z" />
    <glyph glyph-name="nine.oldstyle" horiz-adv-x="524" 
d="M389 203q-24 -39 -68.5 -63.5t-99.5 -24.5q-61 0 -102.5 26t-62.5 71.5t-21 109.5q0 40 9 75.5t26 63t40.5 47.5t59 33.5t82.5 13.5q78 0 128 -39t75.5 -111t25.5 -180q0 -93 -20.5 -163.5t-57 -115t-85.5 -65.5t-106 -21q-91 0 -144 35v98q56 -43 139 -43q59 0 98 26
t61 80.5t23 146.5zM382 300q-2 61 -18 97q-16 34 -44.5 54.5t-68.5 20.5q-24 0 -47.5 -9.5t-40.5 -28t-27 -47t-10 -64.5q0 -69 31.5 -101.5t87.5 -32.5q40 0 71.5 19t46 45t19.5 47z" />
    <glyph glyph-name="glyph385" horiz-adv-x="528" 
d="M154 -25h-43l24 174h-93v82h104l14 100h-96v82h107l22 158h42l-22 -158h130l22 158h42l-22 -158h101v-82h-112l-14 -100h104v-82h-115l-24 -174h-42l24 174h-130zM202 331l-14 -100h130l14 100h-130z" />
    <glyph glyph-name="glyph387" horiz-adv-x="348" 
d="M322 433q0 -73 -40 -115.5t-109 -42.5q-68 0 -107.5 42t-39.5 112q0 69 41 113t108 44q68 0 107.5 -42t39.5 -111zM253 431q0 47 -20.5 72t-58.5 25q-36 0 -58 -26t-22 -73q0 -45 21 -70.5t58 -25.5q39 0 59.5 25t20.5 73z" />
    <glyph glyph-name="glyph394" horiz-adv-x="179" 
d="M178 13q-123 -79 -123 -152q0 -29 17 -47.5t47 -18.5q33 0 64 18v-53q-15 -10 -36.5 -16.5t-39.5 -6.5q-57 0 -88.5 28.5t-31.5 85.5q0 23 11.5 52.5t43 60t75.5 50.5z" />
    <glyph glyph-name="one.dnom" 
d="M230 0h-76v322l-80 -33v66l156 62v-417z" />
    <glyph glyph-name="one.pnum" horiz-adv-x="405" 
d="M270 0h-100v569l-132 -62v98l232 102v-707z" />
    <glyph glyph-name="one.frac" 
d="M230 282h-76v322l-80 -33v66l156 62v-417z" />
    <glyph glyph-name="one.pnum.oldstyle" horiz-adv-x="379" 
d="M270 0h-98v424l-134 -61v94l232 103v-560z" />
    <glyph glyph-name="one.oldstyle" horiz-adv-x="524" 
d="M330 0h-98v421l-144 -65v96l242 108v-560z" />
    <glyph glyph-name="one_fraction_five.frac" horiz-adv-x="800" 
d="M229 -12h-55l347 713h54zM233 282h-76v322l-80 -33v66l156 62v-417zM469 18v66q50 -29 111 -29q42 0 66.5 21t24.5 55q0 33 -24 50.5t-65 17.5q-25 0 -53 -5t-46 -13l22 226h216v-63h-163l-11 -100q23 10 62 10q26 0 57.5 -10t53.5 -38.5t22 -73.5q0 -66 -42 -102.5
t-116 -36.5q-70 0 -115 25z" />
    <glyph glyph-name="parenleft.case" horiz-adv-x="316" 
d="M250 -73q-121 98 -165.5 198.5t-44.5 212.5q0 130 50 232.5t159 185.5h72q-75 -65 -117 -127.5t-62.5 -133t-20.5 -156.5q0 -112 45 -210t155 -202h-71z" />
    <glyph glyph-name="parenleft.dnom" horiz-adv-x="217" 
d="M165 -94q-39 29 -69 68.5t-47 88.5t-17 109q0 49 13 100t45.5 96t73.5 74h47q-125 -102 -125 -269q0 -39 11.5 -86.5t41.5 -95t72 -85.5h-46z" />
    <glyph glyph-name="parenleft.numr" horiz-adv-x="217" 
d="M165 188q-39 29 -69 68.5t-47 88.5t-17 109q0 49 13 100t45.5 96t73.5 74h47q-125 -102 -125 -269q0 -39 11.5 -86.5t41.5 -95t72 -85.5h-46z" />
    <glyph glyph-name="parenright.case" horiz-adv-x="316" 
d="M-4 756h71q120 -98 164.5 -198.5t44.5 -212.5q0 -130 -50 -232.5t-159 -185.5h-71q62 54 108.5 116t69 138.5t22.5 162.5q0 112 -45 210t-155 202z" />
    <glyph glyph-name="parenright.dnom" horiz-adv-x="217" 
d="M6 442h46q24 -17 55.5 -50.5t54.5 -89.5t23 -128q0 -48 -13.5 -99t-46 -95.5t-73.5 -73.5h-46q125 108 125 268q0 63 -19.5 117t-49 91t-56.5 60z" />
    <glyph glyph-name="parenright.numr" horiz-adv-x="217" 
d="M6 724h46q24 -17 55.5 -50.5t54.5 -89.5t23 -128q0 -48 -13.5 -99t-46 -95.5t-73.5 -73.5h-46q125 108 125 268q0 63 -19.5 117t-49 91t-56.5 60z" />
    <glyph glyph-name="glyph432" horiz-adv-x="800" 
d="M329 416q0 -40 -9 -76t-28 -63t-48 -42.5t-67 -15.5q-47 0 -81 23.5t-53.5 67.5t-19.5 106q0 65 21 110.5t55.5 69.5t80.5 24q70 0 109.5 -49.5t39.5 -154.5zM257 417q0 137 -78 137q-14 0 -33.5 -9t-34.5 -41t-15 -89q0 -66 22.5 -99.5t60.5 -33.5q37 0 57.5 33.5
t20.5 101.5zM271 -16h-52l314 646h51zM777 190q0 -40 -9 -76t-28 -63t-48 -42.5t-67 -15.5q-47 0 -81 23.5t-53.5 67.5t-19.5 106q0 65 21 110.5t55.5 69.5t80.5 24q70 0 109.5 -49.5t39.5 -154.5zM705 191q0 137 -78 137q-14 0 -33.5 -9t-34.5 -41t-15 -89
q0 -66 22.5 -99.5t60.5 -33.5q37 0 57.5 33.5t20.5 101.5z" />
    <glyph glyph-name="period.dnom" horiz-adv-x="145" 
d="M124 41q0 -21 -12.5 -34t-33.5 -13q-20 0 -32 13t-12 32q0 20 13.5 33.5t32.5 13.5q18 0 31 -13t13 -32z" />
    <glyph glyph-name="period.sinf" horiz-adv-x="145" 
d="M124 -85q0 -21 -12.5 -34t-33.5 -13q-20 0 -32 13t-12 32q0 20 13.5 33.5t32.5 13.5q18 0 31 -13t13 -32z" />
    <glyph glyph-name="period.numr" horiz-adv-x="145" 
d="M122 323q0 -19 -12 -32.5t-32 -13.5q-19 0 -30.5 13t-11.5 31q0 20 12.5 33t31.5 13q18 0 30 -12.5t12 -31.5z" />
    <glyph glyph-name="period.superior" horiz-adv-x="145" 
d="M124 461q0 -21 -12.5 -34t-33.5 -13q-20 0 -32 13t-12 32q0 20 13.5 33.5t32.5 13.5q18 0 31 -13t13 -32z" />
    <glyph glyph-name="periodcentered.case" horiz-adv-x="217" 
d="M174 331q0 -28 -19.5 -47.5t-47.5 -19.5q-27 0 -45 19t-18 46q0 28 19 47t47 19q27 0 45.5 -18.5t18.5 -45.5z" />
    <glyph glyph-name="glyph441" horiz-adv-x="1156" 
d="M329 416q0 -40 -9 -76t-28 -63t-48 -42.5t-67 -15.5q-47 0 -81 23.5t-53.5 67.5t-19.5 106q0 65 21 110.5t55.5 69.5t80.5 24q70 0 109.5 -49.5t39.5 -154.5zM257 417q0 137 -78 137q-14 0 -33.5 -9t-34.5 -41t-15 -89q0 -66 22.5 -99.5t60.5 -33.5q37 0 57.5 33.5
t20.5 101.5zM271 -16h-52l314 646h51zM777 190q0 -40 -9 -76t-28 -63t-48 -42.5t-67 -15.5q-47 0 -81 23.5t-53.5 67.5t-19.5 106q0 65 21 110.5t55.5 69.5t80.5 24q70 0 109.5 -49.5t39.5 -154.5zM705 191q0 137 -78 137q-14 0 -33.5 -9t-34.5 -41t-15 -89
q0 -66 22.5 -99.5t60.5 -33.5q37 0 57.5 33.5t20.5 101.5zM1133 190q0 -40 -9 -76t-28 -63t-48 -42.5t-67 -15.5q-47 0 -81 23.5t-53.5 67.5t-19.5 106q0 65 21 110.5t55.5 69.5t80.5 24q70 0 109.5 -49.5t39.5 -154.5zM1061 191q0 137 -78 137q-14 0 -33.5 -9t-34.5 -41
t-15 -89q0 -66 22.5 -99.5t60.5 -33.5q37 0 57.5 33.5t20.5 101.5z" />
    <glyph glyph-name="questiondown.case" horiz-adv-x="413" 
d="M199 480h78q0 -66 -13 -97t-36 -52q-40 -38 -68 -73.5t-28 -77.5q0 -40 24.5 -70.5t77.5 -30.5q37 0 73.5 13t63.5 37v-92q-30 -25 -72 -37.5t-89 -12.5q-49 0 -92 18t-65.5 57.5t-22.5 90.5q0 52 27.5 101.5t90.5 102.5q21 18 34.5 42.5t16.5 80.5zM172 647
q0 28 19.5 47.5t47.5 19.5q27 0 45 -19t18 -46q0 -28 -19 -47t-47 -19q-27 0 -45.5 18.5t-18.5 45.5z" />
    <glyph glyph-name="r.ordn" horiz-adv-x="247" 
d="M114 282h-68v297h68v-44q13 25 35.5 38.5t49.5 13.5q21 0 37 -8v-68q-21 12 -45 12q-48 0 -77 -49v-192z" />
    <glyph glyph-name="glyph466" horiz-adv-x="179" 
d="M180 839q0 -38 -26.5 -64t-65.5 -26q-37 0 -62.5 26t-25.5 64q0 40 26 65.5t66 25.5q39 0 63.5 -25t24.5 -66zM141 840q0 25 -15 40.5t-38 15.5q-21 0 -36 -16.5t-15 -40.5q0 -23 14 -39t39 -16q22 0 36.5 16.5t14.5 39.5z" />
    <glyph glyph-name="s.ordn" horiz-adv-x="276" 
d="M27 303v63q23 -19 54.5 -28t57.5 -9q49 0 49 30q0 11 -9 20t-41 21l-36 13q-35 13 -54 36t-19 54q0 38 30.5 60.5t82.5 22.5q24 0 51 -7.5t48 -19.5v-59q-22 15 -49.5 24t-49.5 9q-46 0 -46 -29q0 -11 10 -20t39 -20l34 -13q40 -15 58.5 -34t18.5 -53q0 -19 -10.5 -40
t-39 -35t-66.5 -14q-31 0 -61 7.5t-52 20.5z" />
    <glyph glyph-name="seven.dnom" 
d="M164 0h-74l147 344h-207v63h303z" />
    <glyph glyph-name="seven.pnum" horiz-adv-x="503" 
d="M207 0h-99l244 600h-335v89h463z" />
    <glyph glyph-name="seven.frac" 
d="M164 282h-74l147 344h-207v63h303z" />
    <glyph glyph-name="seven.pnum.oldstyle" horiz-adv-x="475" 
d="M201 -136h-101l228 590h-308v88h431z" />
    <glyph glyph-name="seven.oldstyle" horiz-adv-x="524" 
d="M229 -136h-99l232 590h-321v88h444z" />
    <glyph glyph-name="six.dnom" 
d="M103 206q12 25 40 41.5t63 16.5q39 0 67.5 -17.5t40 -39.5t14.5 -40t3 -33q0 -66 -39.5 -103.5t-103.5 -37.5q-52 0 -86.5 24.5t-52.5 68.5t-18 107q0 69 21.5 117.5t62 76t97.5 27.5q60 0 94 -22v-68q-36 25 -88 25q-59 0 -86 -35.5t-29 -107.5zM107 152q2 -34 13 -58
q20 -41 67 -41q31 0 52.5 21.5t21.5 60.5q0 37 -20 54.5t-53 17.5q-29 0 -51 -15.5t-30 -39.5z" />
    <glyph glyph-name="six.pnum" horiz-adv-x="557" 
d="M148 344q23 44 68.5 71t105.5 27q41 0 77 -13t62.5 -40t41.5 -68t15 -94q0 -55 -16 -100t-45.5 -76t-70.5 -47t-90 -16q-51 0 -95.5 19t-77 60t-51 107t-18.5 154q0 95 22 167t60.5 117t89.5 67t108 22q46 0 81 -8t64 -28v-100q-56 45 -138 45q-190 0 -193 -266zM155 254
q2 -57 24 -105q15 -34 45.5 -54.5t70.5 -20.5q10 0 34 4.5t46 22.5t36 48.5t14 76.5q0 70 -34.5 103.5t-92.5 33.5q-54 0 -93.5 -31.5t-49.5 -77.5z" />
    <glyph glyph-name="six.frac" 
d="M103 488q12 25 40 41.5t63 16.5q39 0 67.5 -17.5t40 -39.5t14.5 -40t3 -33q0 -66 -39.5 -103.5t-103.5 -37.5q-52 0 -86.5 24.5t-52.5 68.5t-18 107q0 69 21.5 117.5t62 76t97.5 27.5q60 0 94 -22v-68q-36 25 -88 25q-59 0 -86 -35.5t-29 -107.5zM107 434q2 -34 13 -58
q20 -41 67 -41q31 0 52.5 21.5t21.5 60.5q0 37 -20 54.5t-53 17.5q-29 0 -51 -15.5t-30 -39.5z" />
    <glyph glyph-name="six.pnum.oldstyle" horiz-adv-x="534" 
d="M140 333q12 29 40.5 53t62.5 33.5t62 9.5q61 0 103.5 -26.5t64.5 -72.5t22 -110q0 -108 -59 -170t-155 -62q-49 0 -91.5 18.5t-74 58.5t-49 103.5t-17.5 149.5q0 92 21 162t58 114.5t85.5 65.5t102.5 21q45 0 79 -7.5t62 -27.5v-98q-55 44 -134 44q-94 0 -137 -64.5
t-46 -194.5zM146 243q3 -54 23 -98q14 -33 43.5 -53t68.5 -20q24 0 53 12t49 46.5t20 88.5q0 69 -32 102t-87 33q-24 0 -53.5 -11.5t-53.5 -39.5t-31 -60z" />
    <glyph glyph-name="six.oldstyle" horiz-adv-x="524" 
d="M134 333q12 29 40.5 53t62.5 33.5t62 9.5q61 0 103.5 -26.5t64.5 -72.5t22 -110q0 -108 -59 -170t-155 -62q-49 0 -91.5 18.5t-74 58.5t-49 103.5t-17.5 149.5q0 92 21 162t58 114.5t85.5 65.5t102.5 21q45 0 79 -7.5t62 -27.5v-98q-55 44 -134 44q-94 0 -137 -64.5
t-46 -194.5zM140 243q3 -54 23 -98q14 -33 43.5 -53t68.5 -20q24 0 53 12t49 46.5t20 88.5q0 69 -32 102t-87 33q-24 0 -53.5 -11.5t-53.5 -39.5t-31 -60z" />
    <glyph glyph-name="sterling.dnom" horiz-adv-x="411" 
d="M289 168h-98l-20 -105h195v-63h-318v63h47l20 105h-41v50h51l11 55q9 51 28 83q37 58 120 58q25 0 48 -5t37 -14l-8 -64q-28 19 -71 19q-19 0 -35 -8.5t-25 -22.5q-12 -18 -21 -61l-8 -40h88v-50z" />
    <glyph glyph-name="sterling.sinf" horiz-adv-x="411" 
d="M289 42h-98l-20 -105h195v-63h-318v63h47l20 105h-41v50h51l11 55q9 51 28 83q37 58 120 58q25 0 48 -5t37 -14l-8 -64q-28 19 -71 19q-19 0 -35 -8.5t-25 -22.5q-12 -18 -21 -61l-8 -40h88v-50z" />
    <glyph glyph-name="sterling.numr" horiz-adv-x="411" 
d="M289 450h-98l-20 -105h195v-63h-318v63h47l20 105h-41v50h51l11 55q9 51 28 83q37 58 120 58q25 0 48 -5t37 -14l-8 -64q-28 19 -71 19q-19 0 -35 -8.5t-25 -22.5q-12 -18 -21 -61l-8 -40h88v-50z" />
    <glyph glyph-name="sterling.oldstyle" horiz-adv-x="591" 
d="M430 254h-160l-32 -166h307v-88h-478v88h73l32 166h-62v68h76l18 92q15 82 44 126q16 25 44 45.5t62 28.5t65 8q34 0 66.5 -7t54.5 -20v-88q-24 15 -53.5 24t-57.5 9q-70 0 -98 -43q-18 -29 -33 -101l-15 -74h147v-68z" />
    <glyph glyph-name="sterling.superior" horiz-adv-x="411" 
d="M289 588h-98l-20 -105h195v-63h-318v63h47l20 105h-41v50h51l11 55q9 51 28 83q37 58 120 58q25 0 48 -5t37 -14l-8 -64q-28 19 -71 19q-19 0 -35 -8.5t-25 -22.5q-12 -18 -21 -61l-8 -40h88v-50z" />
    <glyph glyph-name="t.ordn" horiz-adv-x="232" 
d="M221 290q-31 -15 -75 -15q-29 0 -51.5 12.5t-30.5 37.5q-7 23 -7 74v124h-40v56h41v83h67v-83h82v-56h-82v-127q0 -25 5 -42q3 -10 14.5 -16t26.5 -6q24 0 50 13v-55z" />
    <glyph glyph-name="three.dnom" 
d="M38 18v66q23 -15 55 -22.5t60 -7.5q42 0 62 18.5t20 48.5q0 21 -14.5 36t-42.5 19q-30 4 -58 4h-14v58h14q41 0 56 5q44 14 44 52q0 25 -17.5 40.5t-54.5 15.5q-24 0 -52 -8.5t-49 -22.5v60q22 15 54.5 24.5t61.5 9.5q61 0 94.5 -28.5t33.5 -77.5q0 -22 -11 -43
t-31.5 -33.5t-40.5 -17.5q24 -3 47.5 -14t37.5 -33.5t14 -51.5q0 -55 -41 -88.5t-116 -33.5q-28 0 -60.5 6.5t-51.5 18.5z" />
    <glyph glyph-name="three.pnum" horiz-adv-x="524" 
d="M44 31v94q28 -19 74 -34t104 -15q74 0 108 35t34 92q0 39 -25 68t-75 37q-29 5 -92 5h-20v86h21q65 0 91 10q37 14 56.5 39t19.5 58q0 21 -9 46.5t-37 42.5t-76 17q-41 0 -83 -14t-77 -39v86q31 24 80.5 40t98.5 16q95 0 146 -47t51 -131q0 -38 -14.5 -69.5t-42 -54
t-70.5 -35.5q78 -13 115.5 -56.5t37.5 -111.5q0 -45 -16 -83.5t-46.5 -66.5t-76.5 -43t-104 -15q-47 0 -96 12t-77 31z" />
    <glyph glyph-name="three.frac" 
d="M38 300v66q23 -15 55 -22.5t60 -7.5q42 0 62 18.5t20 48.5q0 21 -14.5 36t-42.5 19q-30 4 -58 4h-14v58h14q41 0 56 5q44 14 44 52q0 25 -17.5 40.5t-54.5 15.5q-24 0 -52 -8.5t-49 -22.5v60q22 15 54.5 24.5t61.5 9.5q61 0 94.5 -28.5t33.5 -77.5q0 -22 -11 -43
t-31.5 -33.5t-40.5 -17.5q24 -3 47.5 -14t37.5 -33.5t14 -51.5q0 -55 -41 -88.5t-116 -33.5q-28 0 -60.5 6.5t-51.5 18.5z" />
    <glyph glyph-name="three.pnum.oldstyle" horiz-adv-x="485" 
d="M35 -97v95q28 -19 73 -34.5t101 -15.5q35 0 68.5 12t51.5 41.5t18 64.5q0 40 -25 67t-72 35q-29 5 -90 5h-19v86h20q59 0 88 10q36 12 55.5 38t19.5 59q0 46 -29 73.5t-91 27.5q-40 0 -81 -14.5t-75 -39.5v87q32 23 80 39t96 16q93 0 143 -45t50 -127q0 -52 -32 -96.5
t-97 -61.5q77 -11 115.5 -53t38.5 -108q0 -91 -62.5 -147.5t-175.5 -56.5q-46 0 -94 12t-75 31z" />
    <glyph glyph-name="three.oldstyle" horiz-adv-x="524" 
d="M60 -97v95q28 -19 73 -34.5t101 -15.5q35 0 68.5 12t51.5 41.5t18 64.5q0 40 -25 67t-72 35q-29 5 -90 5h-19v86h20q59 0 88 10q36 12 55.5 38t19.5 59q0 46 -29 73.5t-91 27.5q-40 0 -81 -14.5t-75 -39.5v87q32 23 80 39t96 16q93 0 143 -45t50 -127q0 -52 -32 -96.5
t-97 -61.5q77 -11 115.5 -53t38.5 -108q0 -91 -62.5 -147.5t-175.5 -56.5q-46 0 -94 12t-75 31z" />
    <glyph glyph-name="three_fraction_five.frac" horiz-adv-x="800" 
d="M268 -12h-55l347 713h54zM61 300v66q23 -15 55 -22.5t60 -7.5q42 0 62 18.5t20 48.5q0 21 -14.5 36t-42.5 19q-30 4 -58 4h-14v58h14q41 0 56 5q44 14 44 52q0 25 -17.5 40.5t-54.5 15.5q-24 0 -52 -8.5t-49 -22.5v60q22 15 54.5 24.5t61.5 9.5q61 0 94.5 -28.5
t33.5 -77.5q0 -22 -11 -43t-31.5 -33.5t-40.5 -17.5q24 -3 47.5 -14t37.5 -33.5t14 -51.5q0 -55 -41 -88.5t-116 -33.5q-28 0 -60.5 6.5t-51.5 18.5zM495 18v66q50 -29 111 -29q42 0 66.5 21t24.5 55q0 33 -24 50.5t-65 17.5q-25 0 -53 -5t-46 -13l22 226h216v-63h-163
l-11 -100q23 10 62 10q26 0 57.5 -10t53.5 -38.5t22 -73.5q0 -66 -42 -102.5t-116 -36.5q-70 0 -115 25z" />
    <glyph glyph-name="glyph518" horiz-adv-x="179" 
d="M-14 762h-58q3 29 14.5 60t33.5 50t48 19q31 0 76 -31q21 -14 32.5 -19.5t22.5 -5.5q30 0 39 55h59q-5 -61 -30.5 -94t-60.5 -33q-8 0 -26 3.5t-57 28.5q-21 14 -30.5 18t-18.5 4q-15 0 -27.5 -15t-16.5 -40z" />
    <glyph glyph-name="two.dnom" 
d="M324 0h-305q116 123 165 185q42 53 42 94q0 35 -20 52.5t-56 17.5q-26 0 -56 -11t-54 -29v62q26 20 59 31.5t68 11.5q66 0 99 -33t33 -86q0 -68 -53 -130q-33 -39 -94 -103q34 1 172 1v-63z" />
    <glyph glyph-name="two.pnum" horiz-adv-x="522" 
d="M485 0h-471q114 131 170 197t92 116q72 99 72 173q0 63 -34 94t-96 31q-43 0 -88 -19t-86 -53v92q89 70 196 70q100 0 152 -52.5t52 -144.5q0 -40 -10 -78.5t-30 -74.5t-42 -65q-62 -83 -167 -198q16 1 290 1v-89z" />
    <glyph glyph-name="two.frac" 
d="M324 282h-305q116 123 165 185q42 53 42 94q0 35 -20 52.5t-56 17.5q-26 0 -56 -11t-54 -29v62q26 20 59 31.5t68 11.5q66 0 99 -33t33 -86q0 -68 -53 -130q-33 -39 -94 -103q34 1 172 1v-63z" />
    <glyph glyph-name="two.pnum.oldstyle" horiz-adv-x="496" 
d="M460 0h-444q103 98 151 145t84 87q67 76 67 135q0 48 -28.5 74t-83.5 26q-40 0 -85.5 -17t-83.5 -47v87q39 30 88 47.5t101 17.5q94 0 142 -45.5t48 -120.5q0 -95 -73 -177q-36 -40 -127 -125q27 1 244 1v-88z" />
    <glyph glyph-name="two.oldstyle" horiz-adv-x="524" 
d="M481 0h-444q103 98 151 145t84 87q67 76 67 135q0 48 -28.5 74t-83.5 26q-40 0 -85.5 -17t-83.5 -47v87q39 30 88 47.5t101 17.5q94 0 142 -45.5t48 -120.5q0 -95 -73 -177q-36 -40 -127 -125q27 1 244 1v-88z" />
    <glyph glyph-name="two_fraction_five.frac" horiz-adv-x="800" 
d="M285 -12h-55l347 713h54zM335 282h-305q116 123 165 185q42 53 42 94q0 35 -20 52.5t-56 17.5q-26 0 -56 -11t-54 -29v62q26 20 59 31.5t68 11.5q66 0 99 -33t33 -86q0 -68 -53 -130q-33 -39 -94 -103q34 1 172 1v-63zM507 18v66q50 -29 111 -29q42 0 66.5 21t24.5 55
q0 33 -24 50.5t-65 17.5q-25 0 -53 -5t-46 -13l22 226h216v-63h-163l-11 -100q23 10 62 10q26 0 57.5 -10t53.5 -38.5t22 -73.5q0 -66 -42 -102.5t-116 -36.5q-70 0 -115 25z" />
    <glyph glyph-name="yen.dnom" horiz-adv-x="424" 
d="M367 201h-94l-21 -32v-14h115v-36h-115v-119h-76v119h-111v36h111v14l-21 32h-90v37h65l-111 169h91q32 -48 54.5 -83.5t36.5 -59.5t15 -26q3 4 14.5 22.5t23 36.5t29 44t45.5 66h84l-114 -169h69v-37z" />
    <glyph glyph-name="yen.sinf" horiz-adv-x="424" 
d="M367 75h-94l-21 -32v-14h115v-36h-115v-119h-76v119h-111v36h111v14l-21 32h-90v37h65l-111 169h91q32 -48 54.5 -83.5t36.5 -59.5t15 -26q3 4 14.5 22.5t23 36.5t29 44t45.5 66h84l-114 -169h69v-37z" />
    <glyph glyph-name="yen.numr" horiz-adv-x="424" 
d="M367 483h-94l-21 -32v-14h115v-36h-115v-119h-76v119h-111v36h111v14l-21 32h-90v37h65l-111 169h91q32 -48 54.5 -83.5t36.5 -59.5t15 -26q3 4 14.5 22.5t23 36.5t29 44t45.5 66h84l-114 -169h69v-37z" />
    <glyph glyph-name="yen.oldstyle" horiz-adv-x="614" 
d="M530 311h-143l-35 -52v-27h178v-51h-178v-181h-96v181h-172v51h172v27l-34 52h-138v53h103l-164 252h114q125 -192 171 -268q59 95 175 268h108l-169 -252h108v-53z" />
    <glyph glyph-name="yen.superior" horiz-adv-x="424" 
d="M367 621h-94l-21 -32v-14h115v-36h-115v-119h-76v119h-111v36h111v14l-21 32h-90v37h65l-111 169h91q32 -48 54.5 -83.5t36.5 -59.5t15 -26q3 4 14.5 22.5t23 36.5t29 44t45.5 66h84l-114 -169h69v-37z" />
    <glyph glyph-name="zero.dnom" 
d="M336 200q0 -64 -19 -110.5t-53 -71.5t-83 -25q-50 0 -84 25t-52.5 71t-18.5 111q0 56 17 107t54.5 79t86.5 28q73 0 112.5 -52t39.5 -162zM263 201q0 74 -19 111t-62 37q-24 0 -42.5 -15.5t-29 -49t-10.5 -85.5q0 -72 21.5 -107.5t60.5 -35.5q81 0 81 145z" />
    <glyph glyph-name="zero.pnum" horiz-adv-x="546" 
d="M513 339q0 -71 -14 -134t-43 -112t-75.5 -77t-107.5 -28q-46 0 -90.5 19t-77.5 63t-52.5 111.5t-19.5 157.5q0 74 15 140t45.5 115.5t77 78t106.5 28.5q236 0 236 -362zM417 341q0 133 -33.5 201.5t-108.5 68.5q-44 0 -75.5 -30t-49.5 -90t-18 -154q0 -130 38 -195
t106 -65t104.5 65.5t36.5 198.5z" />
    <glyph glyph-name="zero.frac" 
d="M336 482q0 -64 -19 -110.5t-53 -71.5t-83 -25q-50 0 -84 25t-52.5 71t-18.5 111q0 56 17 107t54.5 79t86.5 28q73 0 112.5 -52t39.5 -162zM263 483q0 74 -19 111t-62 37q-24 0 -42.5 -15.5t-29 -49t-10.5 -85.5q0 -72 21.5 -107.5t60.5 -35.5q81 0 81 145z" />
    <glyph glyph-name="zero.pnum.oldstyle" horiz-adv-x="524" 
d="M492 267q0 -57 -14 -108t-42.5 -89.5t-73 -60t-101.5 -21.5q-73 0 -123 33.5t-78 95.5t-28 150q0 91 30 155.5t81 98.5t123 34q226 0 226 -288zM397 269q0 98 -31.5 148t-101.5 50q-40 0 -70 -21.5t-47.5 -65.5t-17.5 -113q0 -95 36 -143t100 -48q63 0 97.5 48t34.5 145z
" />
    <glyph glyph-name="zero.oldstyle" horiz-adv-x="524" 
d="M492 267q0 -57 -14 -108t-42.5 -89.5t-73 -60t-101.5 -21.5q-73 0 -123 33.5t-78 95.5t-28 150q0 91 30 155.5t81 98.5t123 34q226 0 226 -288zM397 269q0 98 -31.5 148t-101.5 50q-40 0 -70 -21.5t-47.5 -65.5t-17.5 -113q0 -95 36 -143t100 -48q63 0 97.5 48t34.5 145z
" />
    </font>
</defs>
</svg>
