<?xml version="1.0" standalone="no"?>
<!DOCTYPE svg PUBLIC "-//W3C//DTD SVG 20010904//EN"
 "http://www.w3.org/TR/2001/REC-SVG-20010904/DTD/svg10.dtd">
<svg version="1.0" xmlns="http://www.w3.org/2000/svg"
 width="1190.000000pt" height="1190.000000pt" viewBox="0 0 1190.000000 1190.000000"
 preserveAspectRatio="xMidYMid meet">
<metadata>
Created by potrace 1.16, written by Peter Selinger 2001-2019
</metadata>
<g transform="translate(0.000000,1190.000000) scale(0.100000,-0.100000)"
fill="#000000" stroke="none">
<path d="M6098 9633 c-267 -379 -378 -536 -599 -848 -511 -722 -673 -951 -708
-1001 -20 -28 -85 -121 -146 -207 l-110 -156 -21 22 c-12 12 -261 301 -554
642 -293 341 -536 621 -540 623 -13 5 -208 -166 -340 -298 -758 -762 -1153
-1748 -1081 -2700 71 -939 409 -1662 975 -2090 26 -19 19 -8 -45 81 -128 179
-291 486 -383 722 -92 236 -167 522 -203 777 -27 193 -25 647 4 830 69 436
213 839 434 1216 84 143 240 369 352 509 111 140 293 345 306 345 4 0 252
-278 552 -617 299 -340 556 -631 570 -647 l25 -29 399 559 c219 307 464 651
544 763 l146 203 3 -911 2 -911 240 0 240 1 0 1600 c0 879 -2 1599 -3 1599 -2
0 -29 -35 -59 -77z"/>
<path d="M8035 7613 c6 -6 51 -44 100 -85 185 -154 393 -380 541 -589 605
-856 675 -1802 203 -2777 -99 -206 -196 -370 -290 -492 -91 -119 -302 -330
-436 -437 -451 -360 -1026 -607 -1658 -712 -136 -23 -325 -44 -331 -38 -3 2
-4 400 -4 884 0 485 -3 888 -6 897 -5 14 -34 16 -240 16 l-234 0 0 -1195 0
-1195 158 0 c273 0 535 28 845 91 1194 240 2078 884 2543 1854 94 198 116 255
158 415 100 382 139 826 106 1200 -79 877 -529 1598 -1295 2071 -122 76 -172
104 -160 92z"/>
<path d="M2520 6210 c-23 -6 -21 -7 15 -14 78 -15 156 -70 204 -143 l32 -47
-3 -313 c-3 -307 -3 -313 17 -313 20 0 20 6 18 267 l-2 268 23 -60 c12 -33 55
-153 95 -267 45 -127 79 -208 87 -208 14 0 21 18 124 315 40 116 74 212 77
214 2 3 2 -115 1 -262 l-3 -267 64 0 c51 0 62 3 53 12 -9 9 -12 90 -12 304 l0
293 23 4 c12 2 -21 4 -73 4 -52 1 -87 -1 -77 -4 9 -2 17 -8 17 -12 0 -4 -28
-86 -61 -182 -34 -96 -66 -189 -72 -206 -6 -18 -13 -33 -17 -33 -3 0 -34 75
-69 168 -117 309 -115 304 -191 375 -87 83 -198 127 -270 107z"/>
<path d="M3517 5993 c21 -4 22 -7 25 -243 l3 -238 31 -44 c44 -60 101 -88 178
-88 96 1 176 49 207 125 7 18 13 103 16 220 2 105 5 209 6 233 2 42 2 42 -33
42 l-35 0 3 -238 c3 -261 -3 -300 -50 -335 -39 -29 -115 -33 -155 -8 -67 42
-71 70 -65 413 2 139 4 157 20 161 9 3 -26 5 -78 4 -52 0 -85 -2 -73 -4z"/>
<path d="M4148 5993 l23 -4 -3 -305 -3 -304 223 0 222 0 0 48 0 47 -19 -32
c-24 -39 -59 -46 -211 -41 l-105 3 -3 292 -2 292 22 4 c13 2 -20 4 -72 4 -52
0 -85 -2 -72 -4z"/>
<path d="M4720 5948 l1 -53 13 31 c17 38 32 44 102 44 l55 0 -3 -295 -3 -295
55 0 55 0 -3 295 -3 295 56 0 c64 0 92 -12 105 -43 7 -17 9 -12 9 26 l1 47
-220 0 -220 0 0 -52z"/>
<path d="M5313 5993 c16 -4 17 -24 15 -309 l-3 -304 57 0 57 0 0 302 c0 281 2
303 18 310 10 3 -22 6 -72 6 -49 0 -82 -2 -72 -5z"/>
<path d="M5646 5990 c16 -6 44 -72 130 -309 59 -165 111 -295 115 -288 3 6 50
143 105 302 54 160 103 293 108 297 6 4 -7 8 -29 8 -32 0 -41 -4 -41 -17 0
-23 -117 -363 -125 -363 -3 0 -33 75 -67 168 -33 92 -63 175 -67 184 -5 12 0
18 17 21 13 2 -20 5 -72 5 -61 0 -88 -2 -74 -8z"/>
<path d="M6273 5993 c16 -4 17 -24 15 -309 l-3 -304 223 0 222 0 -1 43 c0 33
-2 38 -9 21 -13 -33 -62 -44 -196 -44 l-124 0 0 150 0 150 97 0 c76 0 100 -4
115 -17 17 -15 18 -14 17 38 0 46 -2 51 -11 32 -10 -22 -17 -23 -115 -23
l-103 0 0 120 0 120 140 0 c136 0 142 -1 165 -25 l25 -24 0 39 0 40 -237 -1
c-131 -1 -230 -3 -220 -6z"/>
<path d="M6878 5993 l23 -4 -3 -305 -3 -304 60 0 60 0 -3 140 -3 140 26 0 c29
0 36 -10 115 -168 l55 -110 57 -1 57 -1 -70 124 c-88 158 -86 152 -53 160 107
27 155 162 94 261 -40 64 -79 75 -270 73 -91 0 -155 -3 -142 -5z m281 -38 c56
-28 76 -117 45 -195 -21 -52 -56 -70 -134 -70 l-60 0 0 140 0 140 60 0 c34 0
74 -7 89 -15z"/>
<path d="M7574 5981 c-76 -35 -109 -115 -84 -205 15 -56 58 -100 124 -129 182
-80 230 -119 210 -174 -14 -41 -68 -73 -124 -73 -88 0 -158 49 -199 140 l-21
45 1 -65 c0 -36 4 -57 7 -48 6 15 11 13 34 -16 84 -105 280 -100 332 8 36 75
10 179 -57 230 -18 14 -66 39 -106 56 -98 40 -139 66 -156 100 -20 39 -19 44
16 84 76 87 228 44 294 -83 l24 -46 0 55 c1 34 -3 50 -8 42 -6 -11 -13 -7 -30
16 -29 42 -114 82 -170 82 -26 0 -64 -9 -87 -19z"/>
<path d="M8028 5990 l23 -10 -3 -300 -3 -300 218 0 217 0 -1 43 c0 33 -2 38
-9 21 -13 -33 -62 -44 -196 -44 l-124 0 0 150 0 150 97 0 c76 0 100 -4 115
-17 17 -15 18 -14 17 38 0 42 -2 49 -9 32 -9 -22 -15 -23 -115 -23 l-105 0 0
120 0 120 140 0 c136 0 142 -1 165 -25 l25 -24 0 39 0 40 -237 -1 c-156 0
-230 -3 -215 -9z"/>
<path d="M2930 5045 c0 -10 10 -15 30 -15 l30 0 0 -135 c0 -128 1 -135 20
-135 19 0 20 7 20 135 l0 135 30 0 c20 0 30 5 30 15 0 12 -16 15 -80 15 -64 0
-80 -3 -80 -15z"/>
<path d="M3210 4907 c0 -130 2 -154 15 -154 10 0 15 10 15 29 0 15 3 28 8 29
4 1 25 2 47 2 38 2 40 1 43 -30 2 -18 6 -33 10 -33 23 1 27 27 27 163 0 133
-2 147 -17 147 -16 0 -18 -12 -18 -105 l0 -105 -50 0 -50 0 0 105 c0 87 -3
105 -15 105 -13 0 -15 -24 -15 -153z"/>
<path d="M3491 4931 c-2 -180 -4 -176 72 -175 49 1 63 4 65 17 3 14 -5 17 -47
17 -44 0 -51 3 -51 20 0 17 7 20 40 20 32 0 40 4 40 19 0 16 -6 18 -40 14
l-40 -5 0 86 0 86 50 0 c38 0 50 4 50 15 0 12 -14 15 -69 15 l-69 0 -1 -129z"/>
<path d="M3930 4910 c0 -143 1 -150 20 -150 18 0 20 7 21 88 l1 87 25 -82 c14
-46 29 -83 33 -83 4 0 18 37 32 83 l26 82 1 -87 c1 -81 3 -88 21 -88 19 0 20
7 20 150 0 142 -1 150 -20 150 -15 0 -24 -17 -46 -90 -15 -49 -30 -90 -34 -90
-4 0 -19 41 -34 90 -22 73 -31 90 -46 90 -19 0 -20 -8 -20 -150z"/>
<path d="M4244 4937 c1 -97 5 -129 18 -149 29 -45 90 -44 125 1 8 11 12 59 13
144 0 106 -2 127 -15 127 -12 0 -15 -20 -15 -116 0 -125 -8 -154 -43 -154 -42
0 -47 17 -47 147 0 113 -2 123 -18 123 -17 0 -19 -10 -18 -123z"/>
<path d="M4522 4908 l3 -152 44 -4 c58 -5 92 4 85 23 -4 10 -20 15 -50 15
l-44 0 0 135 c0 129 -1 135 -20 135 -20 0 -20 -5 -18 -152z"/>
<path d="M4740 5046 c0 -9 12 -16 33 -18 l32 -3 -3 -117 c-4 -127 0 -155 23
-155 13 0 15 23 15 139 l0 138 29 0 c16 0 31 6 35 15 4 13 -8 15 -79 15 -67 0
-85 -3 -85 -14z"/>
<path d="M5400 4906 l0 -156 48 6 c57 6 86 24 108 65 20 40 11 99 -21 129 -18
17 -22 27 -15 40 5 10 4 25 -3 41 -11 20 -21 24 -65 27 l-52 3 0 -155z"/>
<path d="M5680 4911 c0 -118 3 -150 14 -154 20 -8 26 2 26 40 0 46 24 43 71
-8 48 -52 69 -43 29 12 l-29 41 26 22 c19 17 27 34 31 74 4 49 2 54 -31 87
-31 31 -41 35 -86 35 l-51 0 0 -149z"/>
<path d="M6017 4917 c-26 -79 -47 -148 -47 -155 0 -18 28 -3 35 19 5 16 16 19
61 19 49 0 55 -3 64 -25 6 -15 15 -23 24 -19 11 4 5 33 -35 151 -27 80 -50
147 -52 149 -1 2 -24 -61 -50 -139z"/>
<path d="M6289 5051 c-2 -6 -3 -76 -1 -156 2 -119 6 -145 18 -145 11 0 14 21
14 113 l1 112 47 -110 c67 -154 76 -149 80 43 2 130 0 152 -13 152 -21 0 -27
-36 -23 -124 2 -42 1 -76 -2 -76 -3 0 -24 44 -46 97 -24 59 -46 99 -56 101 -9
2 -18 -2 -19 -7z"/>
<path d="M6570 4906 l0 -154 43 5 c59 6 102 36 127 88 17 35 20 54 15 85 -12
72 -79 130 -150 130 l-35 0 0 -154z m85 110 c83 -35 86 -169 5 -211 -58 -30
-60 -27 -60 105 0 76 4 120 10 120 6 0 26 -6 45 -14z"/>
<path d="M7077 5042 c-36 -40 -19 -84 53 -136 40 -28 50 -42 50 -64 0 -15 -5
-33 -12 -40 -19 -19 -56 -14 -70 8 -16 25 -38 26 -38 2 0 -49 88 -75 129 -38
51 46 32 112 -49 170 -51 37 -55 42 -44 70 8 20 50 21 58 1 7 -19 36 -20 36
-2 0 42 -83 63 -113 29z"/>
<path d="M7645 5048 c-61 -33 -87 -76 -87 -145 0 -58 32 -106 88 -133 101 -49
215 21 216 134 2 86 -67 156 -151 156 -25 0 -55 -6 -66 -12z m124 -33 c32 -16
61 -69 61 -112 0 -34 -31 -88 -60 -103 -28 -15 -92 -15 -119 -1 -12 7 -31 27
-41 44 -65 106 49 229 159 172z"/>
<path d="M7980 4907 c0 -130 2 -154 15 -154 11 0 15 11 15 39 0 34 3 38 24 38
17 0 31 -10 45 -34 20 -33 48 -52 59 -41 3 2 -7 23 -22 46 l-28 41 27 28 c34
36 41 85 18 130 -22 42 -54 60 -110 60 l-43 0 0 -153z"/>
<path d="M8260 4911 l0 -149 28 -6 c15 -3 44 -5 65 -4 29 1 37 5 37 20 0 15
-8 18 -45 18 -38 0 -45 3 -45 20 0 17 7 20 40 20 32 0 40 4 40 18 0 15 -7 19
-37 18 l-38 -1 -3 83 -3 82 49 0 c37 0 49 4 49 15 0 12 -15 15 -69 15 l-68 0
0 -149z"/>
</g>
</svg>
